M48
;Layer_Color=9474304
;FILE_FORMAT=2:5
INCH,LZ
;TYPE=PLATED
T1F00S00C0.00787
T2F00S00C0.01181
T4F00S00C0.03150
T5F00S00C0.03500
T6F00S00C0.03800
T7F00S00C0.03937
T8F00S00C0.04331
T9F00S00C0.05000
T10F00S00C0.05118
T11F00S00C0.05512
T12F00S00C0.05906
T13F00S00C0.06200
T14F00S00C0.06496
T15F00S00C0.06497
T16F00S00C0.07087
T17F00S00C0.09843
T18F00S00C0.11811
T19F00S00C0.12598
T20F00S00C0.13394
T21F00S00C0.13780
T22F00S00C0.17047
;TYPE=NON_PLATED
T23F00S00C0.04331
T24F00S00C0.06299
T25F00S00C0.12800
%
T01
X0662504Y0262404
Y0266735
Y0271065
Y0275396
X0666835
X0671165
X0675496
Y0271065
X0671165
X0666835
Y0266735
X0671165
X0675496
Y0262404
X0671165
X0666835
Y0320304
X0671165
X0675496
Y0324635
Y0328965
Y0333296
X0671165
Y0328965
Y0324635
X0666835
Y0328965
Y0333296
X0662504
Y0328965
Y0324635
Y0320304
T02
X0053051Y0063484
Y0067697
Y0071909
Y0076122
Y0080335
Y0084547
Y0096752
Y0102682
Y0108612
Y0114542
Y0120472
X0059744
X0066437
X0065256Y0096752
X0059153
X00578Y0063484
X0062549
X0067298
X0072047
X0071358Y0096752
X007313Y0120472
X0356988Y0117898
X0361417
X04419Y0125
X04489
X0455709
X0461614
X0467421
X0472539Y0121555
Y0116437
X0471555Y0106299
X04752Y01309
X0496063Y0124705
X0505905
X0511713
X0517717
X0528642Y0125591
X0528937Y0113189
X0501083Y0106004
X0492028Y0040256
X04693Y00301
X0550492Y0010531
X06373Y00117
X0637598Y0023327
X06381Y00369
X0639075Y0049803
X06428Y00679
X06328Y00778
X06522Y00822
X06525Y00897
X0654134Y0102756
X0666Y0077458
X06847Y00772
X0679Y00635
X06792Y0052
X06771Y00395
X06823Y00345
X06719Y00121
X0662Y00128
X06469Y0031
X06908Y00633
X0681693Y0117126
X067874Y0147244
X0678628Y0153937
X0668209
Y0147244
X0572553Y0146441
Y0140535
Y0152347
X0552928Y0155299
Y0129709
Y0111992
X0572553Y0116913
Y0128724
X0572549Y0105102
Y0099197
X05925Y00996
X07038Y0112607
X07042Y01212
X0713681Y0121555
Y0118996
X0735335Y0118209
Y0121358
X0730807Y0111811
X0735138Y0104823
X0741634Y0102756
X0749705Y0087795
X0752362Y00745
X07599Y0069554
X0771457Y0069291
X0774803Y0084055
X0782087
X0780413Y0081299
X0797342Y0086024
X0804Y00951
X08016Y00977
X0782776Y0101772
X0778877Y0101673
X0765945Y0102756
X0765561Y0108957
X0762402Y0120571
X0759367
X0753642Y012126
X0764567Y0126083
X0757579Y01433
X0764862Y0154879
X07427Y0137303
X0726575Y0136811
Y0131965
X0702658Y0137106
X0695177Y01283
X0719095Y00906
X07273Y00908
X0717051Y0068209
X07154Y0058
X07023Y00633
X0697539Y0055
X07052Y0076559
X0742126Y006811
X07428Y00618
X0743Y00551
X07469Y00425
X07399Y00347
X07513Y00254
X07551Y00173
X0763189Y00237
X07617Y00319
X0778642Y00306
X0794882Y0034941
X0797736Y0038583
X0797539Y0050689
X0795669Y0054626
X080561Y0051968
X0820571Y0049311
X0825984Y0040453
X0831004Y0040354
X0834941Y0056403
X08496Y0056
X08488Y00734
X08495Y0087733
X0838386Y0087795
X08313Y0087733
X0820177Y0092323
X0817717Y0070866
X0815158Y0063287
X08196Y0028
X0819519Y00197
X08192Y00117
X0811319Y0008563
X08013Y00171
X0791614Y00219
X07822Y00125
X0788091Y0042618
X08392Y00276
X08374Y00186
X08372Y00108
X07396Y00093
X07311Y00095
X0721882Y00099
X07121Y00104
X07131Y00249
X07248Y00211
X0789862Y0113583
X0851378Y0044685
X079439Y0166929
X0745965Y0167557
X074252Y0185433
X0756693Y019124
X076437Y0202658
X0724606Y0178347
X0719685Y0178445
X0726575Y0161965
X0702362Y0162043
X0701476Y0194488
X0696752Y0256004
X0696457Y0269193
X0714Y0249
X0738779Y0269598
X0734744Y027559
X074382Y0282087
X0752854Y0278937
X07519Y03101
X0769Y0311347
X07805
X07921
X07908Y03044
X0793307Y0247638
X0725429Y0294306
X0721252Y0297842
X0717717Y0301378
X0688386Y0307972
X06891Y0287795
X0690551Y02839
X0668016Y0281693
X0664079Y0281779
X06566Y02817
X06533Y0288173
X06491Y0286044
X06431Y02901
X06385Y029
X0634252Y0280906
X0625Y02841
Y0287621
Y0291142
X06069Y02917
X06071Y03035
X06134Y03024
X06135Y03072
X06276Y03097
X063376Y03099
X0646161Y0303445
X06499Y0297
X0657677Y0295669
X0662205Y030059
X0665649Y0293401
X0670768Y0291142
X0660142Y0312196
X0656205Y03123
X0646703Y02765
X06456Y02551
X06567Y02563
X06582Y02458
X06583Y02407
X0670768Y0240158
X067Y02553
X06919Y02563
X069252Y0235335
X0689173Y0215256
X0685433Y0215339
X0687402Y0202658
X0681595Y0182382
X06866Y01702
X0669337Y0210971
Y0215354
X0627953Y0234201
Y023735
Y02405
Y024365
X0613484Y024585
Y0249
Y025215
Y0255299
X0613091Y023375
Y02306
Y022745
X0572553Y021337
Y0203528
Y0189748
Y0177937
Y0170063
Y0158252
X0552928Y0159236
Y0176953
Y0182858
Y0196638
Y020648
Y0230102
Y0241913
X05529Y02478
X05533Y02537
Y0265535
X0552928Y0277346
Y0283252
Y0289158
Y0300969
X05654Y02894
X0572549
X058429Y029211
X0588539Y02869
X05921
X05927Y02993
X05889
X0584479Y0303921
X057314Y025274
X0447361Y02451
X0439451
X043154
X042363
X041572
X040781
X03999
Y03056
X040781
X041572
X042363
X043154
X0439451
X0447361
X0358Y03062
X03479
X0336221Y02801
X0334941Y027559
X03243Y02808
X0321063Y0268602
X0313878Y0263779
X0303051Y0267028
X0308563Y0280906
X030374Y0288291
X02835Y02952
X0266333Y0267421
X0256693Y027126
X0257598Y0221028
X0242698Y0216815
X0273813Y0214567
X0279528
X0284646
X0289469
X0289764Y0219258
Y022395
Y0228642
Y0233333
Y0238025
Y0242717
X0312303
Y0238025
Y0233333
Y0228642
Y022395
X0312303Y0219258
X0312303Y0214567
X0306119
X0306119Y0219258
X0299935
Y0214567
X02346Y0311591
X0176673Y0309538
X01556Y02998
X0140256Y0311417
X0124705Y0311614
X010876Y0311319
X010374Y0309538
X0084153Y03083
Y030315
X0068209Y0190551
X0062254
X0056299
X0058392Y041998
X0038835Y0420866
X0013287Y0420571
X0082111Y0419685
X0089879Y04243
X0102338Y0423819
X0107529
X0112722
X0117913
Y0419576
Y0415332
Y0411089
Y0406846
Y0402603
Y0398359
Y0394116
Y0389873
Y038563
X0123622
Y0389873
Y0394116
Y0398359
Y0402603
Y0406846
Y0411089
Y0415332
Y0419576
Y0423819
X01134Y04067
X0117Y03725
X01254Y03702
X0130109Y0365
X01275Y03579
X0138025Y0353483
X0141289
X0144552
Y03499
X0141289Y0349884
X0138025Y03499
Y0346286
X0141289
X0144552
X0145378Y03349
X0145793Y03296
X01453Y03236
X0144865Y0316308
X0149967
X016017
X0165272
X0170374
Y0323644
X01688Y03317
X01659Y0331721
X01688Y03348
Y03375
X01657Y03376
X0162042Y0337627
X015731Y03401
X0160251Y0343849
X0167Y03474
X01653Y03538
X0168Y03594
X01679Y03621
X0171Y03622
X01748
X01578Y0364425
X01572Y03712
X015779Y0376596
X0157359Y038563
Y0389873
Y0394116
Y0398359
Y0402603
Y0406846
Y0411089
Y0415332
Y0419576
Y0423819
X0163091
Y0419576
Y0415332
Y0411089
Y0406846
Y0402603
Y0398359
Y0394116
Y0389873
Y038563
X01493Y03791
X0142421Y0378445
X01375Y03776
X0140375Y0364425
X0131Y03398
X0125689Y0322622
X0124459Y0316308
X012956
X0134662
X0139764
X0119357
X0114255
X0109153
Y0323228
X0084153Y0323753
Y0318602
Y0313451
Y0328904
Y0334055
X01522Y03376
X0202264Y0331821
Y0325886
X0223172Y032964
X0215698Y0313602
X0183661Y0423819
X0175787
X0169291
X0160851Y0455118
X0153839Y0462303
X0181299Y0462106
X01799Y04563
X0191634Y0459345
X0210039Y0456693
X0099016Y0464764
X00722Y044
X0239075Y0459547
X0264469Y04596
X0289665Y0459646
X031565Y0459547
X0341535
X034252Y0446358
X03433Y04193
X0368602Y04082
X0368701Y04338
X0365748Y0459646
X0369746Y0370854
X0352149Y0348749
X0340646Y0350054
X03432Y03278
Y03229
X03186Y03244
X03187Y03464
X02969Y0393
X02912Y03932
X02641Y03878
X02324Y03299
X03814Y03248
X0450197Y0393996
X0468504Y0379488
X0465354Y0427067
X04625Y0439173
X0452439Y0438679
X0442323Y0434646
X0447439Y0454726
X0457439Y0456271
X0467224Y0461417
X0472439Y0452874
X0477658Y0452756
X0500886Y0454429
X0515939Y0455309
X0526083Y0452756
X0533071Y0448937
X0520768Y043376
X0510827
X05058
X0498819Y0433465
X0488484Y0432776
X0483957
X0431693Y0456299
Y0462402
X0431398Y0468504
X0415551Y0461319
Y0456791
X0511319Y0356087
X0552931Y0354118
Y0348213
Y0342307
Y0336402
X0552928Y0324591
Y0318685
Y0312779
X0572553Y0327543
Y0341323
X05721Y03472
X0572553Y0351165
X0572561Y0362976
X05888Y03613
X05929
X05849Y03569
X0583613Y0349197
X0584654Y03352
X0589Y03309
X05924
X05927Y03208
X0588Y03209
X05848Y03157
X06064Y0315973
X060646Y03355
X06136Y03371
Y03327
X0611909Y0344783
X06063Y03571
X0590945Y037687
X0572561Y0382661
X0552915Y0383646
Y0369866
X0552931Y0364
X05421Y0412
X05381
Y04351
X05421
X05488Y04418
X05544Y04324
X05597
X0563539Y0440532
X0568539Y0439602
X0573539Y0439976
X0578539Y044026
X05789Y04351
X05827
X05999Y04339
X06105Y04331
X06185Y04328
X0630688
X06304Y04172
X0618507Y04179
X06108Y04178
X0599279Y04181
X05852Y04169
X0575098Y04173
X05711Y04176
X0567172
X0583539Y0453028
X0592311Y0446805
X0604655Y04419
X0613939Y0454466
X06187Y04596
X06237Y0454726
X06293Y0458
X06337Y0452
X0638939Y044049
X06463Y0443595
X06735Y04614
X0679204Y0463862
X06836Y0458
X06867Y0467
X06931Y04669
X0644095Y0388976
X0643405Y0385728
X0642213Y0381496
X0641142Y0377067
X0639764Y0372244
X0631791Y0373917
X06308Y03702
X06304Y03305
X0635Y03303
X0648454Y0323847
X0648327Y0319882
X0654261Y0321879
X065748Y0324705
X0654654Y0327784
X0656693Y03169
X0681795Y03125
X06919Y0316142
X0683516Y0327784
X0674803Y0356087
X06624Y0354413
Y0349713
X0654232Y0347638
X0650492Y0344979
X0698162Y0328839
X0696949Y0316142
X0752175Y0315025
X07861Y03244
X0809449Y0323327
X0836024
X0824137Y0412563
X0809744Y0418799
X07993Y04119
X078563Y043563
X078061Y0435039
X0771358Y0436614
X075561Y0433661
X0753445Y0449606
X07536Y04562
X0779035Y0458071
X0785639Y0457185
X0723851Y0455807
X07112Y04509
X0702166Y0460683
X0703347Y0468557
X0697146Y0412697
X06971Y04092
X0697146Y0406004
X06972Y04028
X0714961Y0397047
X0723425Y0412106
X0728261Y0415059
X0733261
X0738261
X0743261
X0748339Y0411713
X0753248Y0412008
X0747026Y04201
X07475Y04768
X0739567Y0475394
X075876Y0474311
X07714Y04726
X0774114Y0479134
X07737Y04823
X07738Y04855
X07726Y04934
X0783366Y0495218
X078376Y0484842
X079498Y0493504
X0788189Y0505709
X0786122Y0511713
X079498Y051752
X0800689
X0802756Y050679
X080876Y0511
X0809646Y0500295
X0808563Y0473721
X0796063Y0474213
X076939Y0506556
X0770965Y0512037
X07479Y05091
X0750492Y0495374
X0725395Y0503616
X0714863Y0506648
X070855
X0703643Y050153
X0711418Y0497436
X07044Y04781
X0705335Y05205
X0720472Y052185
X0720276Y0524902
X07221Y0515882
X0737894Y0520079
X0737769Y0523257
X07451Y05275
X0702166Y05602
X0818307Y0523425
X0831201Y0523917
X06919Y0525197
X0687205Y051475
X0692619Y0507632
X069309Y0492795
Y0488806
Y0484816
Y0480827
X0689101
Y0484816
Y0488806
Y0492795
X0685112
X0681122
Y0488806
X0685112
Y0484816
Y0480827
X0681122
Y0484816
X0673Y04927
X0672639Y0499753
X06619Y0501154
Y0495887
X0658173Y0488
X0658Y0483
X06585Y0477756
X0661544Y04721
X0667717Y0472146
X0693Y04727
X0643861Y0478361
X06378Y04958
X06288Y04924
X0613861Y0491535
X0594783Y0488287
X0596654Y0473228
X0603346
X05836Y04951
X05734Y0492
X0558551Y0492335
X0540158Y0488484
X0560433Y0528346
X0575394Y0515742
X0584055Y0522638
X0612894Y0527953
X0628051Y0515748
X0636105Y0521949
X0661024Y0525098
X0673819Y0522342
X06935Y05595
X06459Y05583
X0531416Y0516437
X0523425Y0522047
X05243Y04959
X05161Y04913
X0500861Y0492002
X0484055Y0488189
X0485827Y0473228
X0479724
X0492618
X0498819
X04774Y04994
X04625Y0492002
X0447361Y0491025
X04348Y04911
X0427461Y0521555
X0444783Y0529232
X0464272Y0515846
X0471457Y0522539
X0501575Y0529429
X0400886Y0521457
X03926Y05113
X0385433Y0505315
X0385827Y0501575
X0391954Y0494486
X0396654
X0367618Y0499902
X0368406Y0509449
X0364354Y0521358
X0338779Y0522244
X0342913Y0509547
X0341437Y0500689
X0342224Y0475098
X03676Y0474705
X0315945Y0475197
X0314961Y0500486
X031624Y050935
X0311122Y0522047
X0285925
X0290945Y0509842
X0289711Y0500295
X0264173Y0500277
X026565Y0509744
X025935Y0522146
X0233858Y0522047
X0240059Y0509547
X0238779Y0499705
X02391Y0473622
X0264764Y0473917
X0290158Y0474508
X0210925Y0474
X02058Y04771
X02061Y04807
X020375Y0483488
X01912Y0484995
X0174803Y0496358
X0178543Y0506496
X0172146Y0522146
X0197539Y0522342
X0208858Y0522441
X0212697Y0508858
X0208957Y0500591
X0153551Y0496555
X0151279Y0511516
X0142618Y0521752
X0106791Y0522047
X01135Y05048
X0098622Y0488779
X0099016Y0471161
X0090987Y0472047
X0113583Y046939
X0156693Y0481299
X01772Y05789
Y05842
X0060138Y0510728
X004626Y0512008
T04
X0171057Y00309
X0190743
X0338Y00273
X0354Y00269
X05285Y01349
X07873Y02096
X0298243Y01693
X0278557
X02459Y02398
X02293Y02933
X0106299Y0186417
Y0166732
X01003Y04424
X02425Y0398
X0242Y03744
X07304Y043
X07783Y05111
T05
X06611Y00288
Y00388
X06611Y00488
X06611Y00588
X0861909Y0054114
Y0064114
X0861909Y0044114
X0861909Y0034114
X07678Y02489
X07678Y02589
X07678Y02689
T06
X0780565Y03438
Y03518
Y03598
X0790565Y03638
Y03718
Y03798
Y03878
X0780565Y03918
Y03838
Y03758
X0790565Y03558
Y03478
T07
X00638Y00161
X00938
X08125Y01033
Y01123
X08315Y01163
Y01243
Y01323
Y01403
X08385Y01443
Y01363
Y01283
Y01203
X08125Y01483
Y01573
Y01781
Y01871
X08315Y01911
Y01991
Y02071
Y02151
X08385Y02111
Y02031
Y01951
Y02191
X08125Y02231
Y02321
Y02551
Y02641
X08315Y02681
Y02761
Y02841
Y02921
X08385Y02961
Y02881
Y02801
Y02721
X08125Y03001
Y03091
X03141Y04164
X03041
X03042Y04426
X03142
X0710264Y0543104
Y0550978
Y0558852
Y0566726
X0735855Y0566726
Y05746
Y0558852
Y0550978
Y0543104
Y053523
X0763189Y0535138
X0763189Y0543012
Y0550886
Y055876
X0763189Y0566634
Y0574508
X0788779Y0566634
Y055876
Y0550886
Y0543012
X081437
Y0550886
Y055876
Y0566634
X0839961Y0566634
Y0574508
Y055876
Y0550886
Y0543012
Y0535138
X0684674Y0543104
Y0550978
Y0558852
Y0566726
X0659083Y0566726
Y05746
X0659083Y0558852
Y0550978
Y0543104
X0659083Y053523
X0631749Y0535138
Y0543012
Y0550886
Y055876
Y0566634
Y0574508
X0606159Y0566634
Y055876
Y0550886
Y0543012
X0580568
Y0550886
Y055876
Y0566634
X0554978Y0566634
Y0574508
X0554978Y055876
Y0550886
Y0543012
X0554978Y0535138
X0527643Y0535155
Y0543029
Y0550903
Y0558777
Y0566651
Y0574525
X0502053Y0566651
Y0558777
Y0550903
Y0543029
X0476462
Y0550903
Y0558777
Y0566651
X0450872Y0566651
Y0574525
X0450872Y0558777
Y0550903
Y0543029
X0450872Y0535155
X0423538
Y0543029
Y0550903
Y0558777
Y0566651
Y0574525
X0397947Y0566651
Y0558777
Y0550903
Y0543029
X0372357
Y0550903
Y0558777
Y0566651
X0346766Y0566651
Y0574525
X0346766Y0558777
Y0550903
Y0543029
X0346766Y0535155
X0319432
Y0543029
Y0550903
Y0558777
Y0566651
Y0574525
X0293841Y0566651
Y0558777
Y0550903
Y0543029
X0268251
Y0550903
Y0558777
Y0566651
X024266Y0566651
Y0574525
X024266Y0558777
Y0550903
Y0543029
X024266Y0535155
X0215326
Y0543029
Y0550903
Y0558777
Y0566651
Y0574525
X0189736Y0566651
Y0558777
Y0550903
Y0543029
X0164145
Y0550903
Y0558777
Y0566651
X0138555Y0566651
Y0574525
X0138555Y0558777
Y0550903
Y0543029
X0138555Y0535155
X0111221Y0535138
Y0543012
Y0550886
Y055876
Y0566634
Y0574508
X008563Y0566634
Y055876
Y0550886
Y0543012
X0060039
Y0550886
Y055876
Y0566634
X0034449Y0566634
Y0574508
X0034449Y055876
Y0550886
Y0543012
X0034449Y0535138
T08
X02386Y00126
X02486
X02586
X02441Y04164
X02442Y04426
X02742
X02741Y04164
T09
X0831565Y03382
X0841565
Y03974
X0851565
Y03382
T10
X01217Y00788
Y01088
Y01388
X03217Y01238
Y01088
Y00938
T11
X0821663Y0449463
Y04634
X08356
Y0449463
X0828631Y0456431
T12
X0063583Y0047638
Y0077165
Y0106693
X0063565Y0141049
X02486Y0029411
X08485Y03071
X023253Y0164865
X0218199Y0182935
X01969
X0175601
X016127Y0164865
X0063565Y0170576
Y0200104
X0063484Y0234449
Y0263976
Y0293504
T13
X0816565Y03332
Y04024
T14
X0835Y00983
Y01731
Y02501
T15
X0835Y01623
Y02371
Y03141
T16
X03217Y00788
Y01388
T17
X0828631Y0426904
Y0485959
T18
X084438Y0426904
Y0485959
T19
X0030118Y0047638
Y0106693
X00301Y0141049
Y0200104
X003002Y0234449
Y0293504
T20
X08485Y01053
Y01553
Y01801
Y02301
Y02571
T21
X00159Y00161
X08543
X0852048Y0512371
X0018448Y0513371
T22
X0405755Y0086402
X0606542Y0086402
X0468747Y0234039
X0405755Y0381677
X0606542
T23
X0524832Y0090648
X039235Y0281677
X0567172Y0395457
T24
X0442155Y0090648
X0567172Y0072622
X039235Y0186402
T25
X0816565Y03488
Y03868
M30
