G04*
G04 #@! TF.GenerationSoftware,Altium Limited,Altium Designer,18.1.8 (232)*
G04*
G04 Layer_Physical_Order=3*
G04 Layer_Color=128*
%FSLAX25Y25*%
%MOIN*%
G70*
G01*
G75*
%ADD15C,0.01968*%
%ADD277C,0.07500*%
%ADD301C,0.04000*%
%ADD302C,0.07150*%
%ADD303C,0.08331*%
%ADD304C,0.09906*%
%ADD305C,0.07150*%
%ADD306C,0.07937*%
%ADD307O,0.14000X0.07000*%
%ADD308O,0.07000X0.14000*%
%ADD309C,0.10299*%
%ADD310C,0.08331*%
%ADD311C,0.17394*%
%ADD312C,0.10496*%
%ADD313C,0.10497*%
%ADD314C,0.17779*%
%ADD315C,0.21047*%
%ADD316C,0.09512*%
%ADD317C,0.15811*%
%ADD318C,0.13843*%
%ADD319C,0.16800*%
%ADD320C,0.07800*%
%ADD321C,0.10200*%
%ADD322C,0.09000*%
%ADD323C,0.11087*%
%ADD324C,0.09118*%
%ADD325C,0.09906*%
%ADD326C,0.16598*%
%ADD327C,0.05181*%
%ADD328C,0.04787*%
D15*
X169400Y480675D02*
Y490300D01*
Y451800D02*
Y461425D01*
Y490300D02*
X169900D01*
X169400Y461425D02*
Y480675D01*
X169900Y490300D02*
X202400D01*
X169400Y451800D02*
X169600Y451600D01*
X202264D01*
X388800Y385728D02*
Y390500D01*
Y451600D01*
X284400Y385728D02*
Y451600D01*
Y385728D02*
X388800D01*
X190150Y367400D02*
X202264D01*
X135400D02*
X153650D01*
X202264D02*
Y451600D01*
X134700Y368100D02*
X135400Y367400D01*
X54000Y429900D02*
X96200D01*
X50800Y433100D02*
X54000Y429900D01*
X50800Y433100D02*
Y592400D01*
X202400Y490300D02*
Y591600D01*
X153650Y367400D02*
X190150D01*
X388800Y451600D02*
Y513100D01*
X202264Y451600D02*
X388800D01*
X357100Y513100D02*
X388800D01*
X357100Y490300D02*
Y513100D01*
X202400Y490300D02*
X357100D01*
X790600Y63200D02*
X805600D01*
X805700Y63300D01*
X749600Y127400D02*
X824041D01*
Y63300D02*
Y127400D01*
X805700Y63300D02*
X824041D01*
X716200Y63200D02*
X790600D01*
X716200D02*
Y100900D01*
X728600D01*
Y127600D01*
X715000Y190100D02*
Y221800D01*
X675200D02*
X715000D01*
X675200Y112000D02*
Y221800D01*
Y112000D02*
X694400D01*
Y127300D01*
X694300Y127400D02*
X694400Y127300D01*
X694300Y127400D02*
X715000D01*
Y190100D02*
X749500D01*
X749600Y190000D01*
Y127400D02*
Y190000D01*
X715000Y127400D02*
Y190100D01*
Y127400D02*
X749600D01*
X744600Y446300D02*
X814400D01*
X708900D02*
X709000Y446400D01*
X726893D01*
Y530700D01*
X744600D01*
Y516000D02*
Y530700D01*
Y446300D02*
Y461035D01*
X708900Y391900D02*
Y446300D01*
Y391900D02*
X709900Y390900D01*
X746926D01*
X747026Y390800D01*
Y404526D01*
X748300Y405800D01*
X809400D01*
X814400Y410800D01*
Y446300D01*
X744600Y498700D02*
Y516500D01*
Y461035D02*
Y498700D01*
X96200Y420500D02*
Y429900D01*
X134700D01*
X96200Y375500D02*
X96200Y204500D01*
X497400Y255300D02*
Y401700D01*
X293600Y255300D02*
X497400D01*
Y401700D02*
X530100D01*
X530000Y423100D02*
X562800D01*
X530000Y401800D02*
Y423100D01*
X530100Y401700D02*
X556300D01*
Y282752D02*
Y401700D01*
X530000Y401800D02*
X530100Y401700D01*
X701100Y264000D02*
X749100D01*
X678740D02*
X701100D01*
X678740Y235540D02*
Y264000D01*
X678700Y235500D02*
X678740Y235540D01*
X651400Y235500D02*
X678700D01*
X630058Y274244D02*
X651400D01*
Y252200D02*
Y274244D01*
Y235500D02*
Y252902D01*
X703643Y312100D02*
Y338457D01*
X696000Y312100D02*
X703643D01*
X695900Y289700D02*
Y312100D01*
X641000Y306600D02*
Y327800D01*
X665400D01*
Y355000D01*
X681800Y338457D02*
X703643D01*
X681800D02*
Y356100D01*
X534900Y445100D02*
X544402D01*
Y437200D02*
Y445100D01*
Y437200D02*
X664800D01*
X459400Y300100D02*
Y386000D01*
Y422900D02*
X459600D01*
X459400Y386100D02*
Y422900D01*
X459600D02*
X507900D01*
X423000Y428700D02*
X445500D01*
X472400Y465100D02*
Y471000D01*
X472100Y471300D02*
X472400Y471000D01*
X464837Y471300D02*
X472100D01*
X472600Y464900D02*
X480137D01*
X472400Y465100D02*
X472600Y464900D01*
X442300Y471300D02*
X464837D01*
X443200Y548300D02*
X640300D01*
X443200Y512300D02*
Y548300D01*
X445500Y386200D02*
Y428700D01*
X749100Y264000D02*
Y289700D01*
X695900D02*
X749100D01*
X744600Y516500D02*
X789200D01*
X792000Y513700D01*
X814100D01*
X814400Y513400D01*
Y446300D02*
Y513400D01*
X293600Y204500D02*
Y255300D01*
X96200Y204500D02*
X293600D01*
X96200Y375500D02*
Y420500D01*
X134700Y300100D02*
Y429900D01*
Y300100D02*
X459400D01*
X620200Y304100D02*
X640400D01*
X556300Y282752D02*
X560433D01*
X560733Y282700D02*
X580300D01*
X620000Y282400D01*
Y392400D01*
X620100Y392500D01*
X635200D01*
X635800Y393100D01*
Y422800D01*
X635500Y423100D02*
X635800Y422800D01*
X562800Y423100D02*
X635500D01*
X480037Y465000D02*
X495900D01*
X640300Y541000D02*
Y548300D01*
X472400Y465100D02*
Y512300D01*
X443200D02*
X472400D01*
X640300Y504600D02*
Y541000D01*
X609800Y504600D02*
X640300D01*
X609800Y465100D02*
Y504600D01*
X495900Y465000D02*
X660000D01*
X630058Y284500D02*
Y287842D01*
X629900Y288000D02*
X630058Y287842D01*
X629900Y288000D02*
X640600D01*
X641000Y288400D01*
Y306600D01*
X665600Y354000D02*
Y436400D01*
X664800Y437200D02*
X665600Y436400D01*
X529400Y445000D02*
X536602D01*
X508000D02*
X529400D01*
X508000Y423100D02*
Y445000D01*
X445700Y386000D02*
X459400D01*
X445500Y386200D02*
X445700Y386000D01*
X423000Y428700D02*
Y471300D01*
X442300D01*
X660000Y465000D02*
X681800Y443200D01*
Y356100D02*
Y443200D01*
X630058Y274244D02*
Y284500D01*
D277*
X861909Y64114D02*
D03*
Y54114D02*
D03*
X861909Y44114D02*
D03*
X861909Y34114D02*
D03*
X661100Y28800D02*
D03*
Y38800D02*
D03*
X661100Y48800D02*
D03*
X661100Y58800D02*
D03*
X767800Y248900D02*
D03*
X767800Y258900D02*
D03*
X767800Y268900D02*
D03*
D301*
X100Y-100D02*
X870600D01*
X870600Y592100D02*
X870600Y-100D01*
X100Y592100D02*
X100Y-100D01*
X100Y592100D02*
X870600D01*
D302*
X730400Y430000D02*
D03*
X787300Y209600D02*
D03*
X528500Y134900D02*
D03*
X229300Y293300D02*
D03*
X242000Y374400D02*
D03*
X100300Y442400D02*
D03*
X242500Y398000D02*
D03*
X338000Y27300D02*
D03*
D303*
X238600Y12600D02*
D03*
X258600D02*
D03*
X248600D02*
D03*
D304*
Y29411D02*
D03*
X161270Y164865D02*
D03*
X232530D02*
D03*
X175601Y182935D02*
D03*
X196900D02*
D03*
X218199D02*
D03*
X848500Y307100D02*
D03*
D305*
X106299Y186417D02*
D03*
Y166732D02*
D03*
X171057Y30900D02*
D03*
X190743D02*
D03*
X278557Y169300D02*
D03*
X298243D02*
D03*
D306*
X93800Y16100D02*
D03*
X63800D02*
D03*
X450872Y566651D02*
D03*
Y535155D02*
D03*
X527643Y566651D02*
D03*
Y535155D02*
D03*
X450872Y550903D02*
D03*
Y558777D02*
D03*
X476462Y550903D02*
D03*
Y558777D02*
D03*
X502053Y550903D02*
D03*
Y558777D02*
D03*
X527643D02*
D03*
Y550903D02*
D03*
Y574525D02*
D03*
X450872D02*
D03*
X476462Y566651D02*
D03*
X502053D02*
D03*
X346766Y566651D02*
D03*
Y535155D02*
D03*
X423538Y566651D02*
D03*
Y535155D02*
D03*
X346766Y543029D02*
D03*
Y550903D02*
D03*
Y558777D02*
D03*
X372357Y543029D02*
D03*
Y550903D02*
D03*
Y558777D02*
D03*
X397947Y543029D02*
D03*
Y550903D02*
D03*
Y558777D02*
D03*
X423538D02*
D03*
Y550903D02*
D03*
Y543029D02*
D03*
Y574525D02*
D03*
X346766D02*
D03*
X372357Y566651D02*
D03*
X397947D02*
D03*
X242660Y566651D02*
D03*
Y535155D02*
D03*
X319432Y566651D02*
D03*
Y535155D02*
D03*
X242660Y543029D02*
D03*
Y550903D02*
D03*
Y558777D02*
D03*
X268251Y543029D02*
D03*
Y550903D02*
D03*
Y558777D02*
D03*
X293841Y543029D02*
D03*
Y550903D02*
D03*
Y558777D02*
D03*
X319432D02*
D03*
Y550903D02*
D03*
Y543029D02*
D03*
Y574525D02*
D03*
X242660D02*
D03*
X268251Y566651D02*
D03*
X293841D02*
D03*
X138555Y566651D02*
D03*
Y535155D02*
D03*
X215326Y566651D02*
D03*
Y535155D02*
D03*
X138555Y543029D02*
D03*
Y550903D02*
D03*
Y558777D02*
D03*
X164145Y543029D02*
D03*
Y550903D02*
D03*
Y558777D02*
D03*
X189736Y543029D02*
D03*
Y550903D02*
D03*
Y558777D02*
D03*
X215326D02*
D03*
Y550903D02*
D03*
Y543029D02*
D03*
Y574525D02*
D03*
X138555D02*
D03*
X164145Y566651D02*
D03*
X189736D02*
D03*
X34449Y566634D02*
D03*
Y535138D02*
D03*
X111221Y566634D02*
D03*
Y535138D02*
D03*
X34449Y543012D02*
D03*
Y550886D02*
D03*
Y558760D02*
D03*
X60039Y543012D02*
D03*
Y550886D02*
D03*
Y558760D02*
D03*
X85630Y543012D02*
D03*
Y550886D02*
D03*
Y558760D02*
D03*
X111221D02*
D03*
Y550886D02*
D03*
Y543012D02*
D03*
Y574508D02*
D03*
X34449D02*
D03*
X60039Y566634D02*
D03*
X85630D02*
D03*
X314200Y442600D02*
D03*
X314100Y416400D02*
D03*
X554978Y566634D02*
D03*
Y535138D02*
D03*
X631749Y566634D02*
D03*
Y535138D02*
D03*
X554978Y550886D02*
D03*
Y558760D02*
D03*
X580568Y550886D02*
D03*
Y558760D02*
D03*
X606159Y550886D02*
D03*
Y558760D02*
D03*
X631749D02*
D03*
Y550886D02*
D03*
Y574508D02*
D03*
X554978D02*
D03*
X580568Y566634D02*
D03*
X606159D02*
D03*
X763189Y566634D02*
D03*
Y535138D02*
D03*
X839961Y566634D02*
D03*
Y535138D02*
D03*
X763189Y543012D02*
D03*
Y550886D02*
D03*
Y558760D02*
D03*
X788779Y543012D02*
D03*
Y550886D02*
D03*
Y558760D02*
D03*
X814370Y543012D02*
D03*
Y550886D02*
D03*
Y558760D02*
D03*
X839961D02*
D03*
Y550886D02*
D03*
Y543012D02*
D03*
Y574508D02*
D03*
X763189D02*
D03*
X788779Y566634D02*
D03*
X814370D02*
D03*
X659083Y566726D02*
D03*
Y535230D02*
D03*
X735855Y566726D02*
D03*
Y535230D02*
D03*
X659083Y543104D02*
D03*
Y550978D02*
D03*
Y558852D02*
D03*
X684674Y543104D02*
D03*
Y550978D02*
D03*
Y558852D02*
D03*
X710264Y543104D02*
D03*
Y550978D02*
D03*
Y558852D02*
D03*
X735855D02*
D03*
Y550978D02*
D03*
Y543104D02*
D03*
Y574600D02*
D03*
X659083D02*
D03*
X684674Y566726D02*
D03*
X710264D02*
D03*
X838500Y144300D02*
D03*
X831500Y140300D02*
D03*
Y124300D02*
D03*
X812500Y148300D02*
D03*
X838500Y136300D02*
D03*
X812500Y103300D02*
D03*
X838500Y120300D02*
D03*
Y128300D02*
D03*
X812500Y112300D02*
D03*
X831500Y116300D02*
D03*
Y132300D02*
D03*
X812500Y157300D02*
D03*
Y232100D02*
D03*
X831500Y207100D02*
D03*
Y191100D02*
D03*
X812500Y187100D02*
D03*
X838500Y203100D02*
D03*
Y195100D02*
D03*
X812500Y178100D02*
D03*
X838500Y211100D02*
D03*
X812500Y223100D02*
D03*
X831500Y199100D02*
D03*
Y215100D02*
D03*
X838500Y219100D02*
D03*
Y296100D02*
D03*
X831500Y292100D02*
D03*
Y276100D02*
D03*
X812500Y300100D02*
D03*
X838500Y288100D02*
D03*
X812500Y255100D02*
D03*
X838500Y272100D02*
D03*
Y280100D02*
D03*
X812500Y264100D02*
D03*
X831500Y268100D02*
D03*
Y284100D02*
D03*
X812500Y309100D02*
D03*
D307*
X46279Y315058D02*
D03*
D308*
X56079Y333858D02*
D03*
X32579D02*
D03*
D309*
X442155Y90648D02*
D03*
X392350Y186402D02*
D03*
X567172Y72622D02*
D03*
D310*
X524832Y90648D02*
D03*
X274200Y442600D02*
D03*
X244200D02*
D03*
X274100Y416400D02*
D03*
X244100D02*
D03*
X392350Y281677D02*
D03*
X567172Y395457D02*
D03*
D311*
X848500Y105300D02*
D03*
Y155300D02*
D03*
Y230100D02*
D03*
Y180100D02*
D03*
Y257100D02*
D03*
D312*
X835000Y98300D02*
D03*
Y173100D02*
D03*
Y250100D02*
D03*
D313*
Y162300D02*
D03*
Y237100D02*
D03*
Y314100D02*
D03*
D314*
X852048Y512371D02*
D03*
X18448Y513371D02*
D03*
X854300Y16100D02*
D03*
X15900D02*
D03*
D315*
X468747Y234039D02*
D03*
X405755Y381677D02*
D03*
Y86402D02*
D03*
X606542Y86402D02*
D03*
Y381677D02*
D03*
D316*
X821663Y449463D02*
D03*
Y463400D02*
D03*
X835600Y449463D02*
D03*
Y463400D02*
D03*
X828631Y456431D02*
D03*
D317*
X844380Y485959D02*
D03*
Y426904D02*
D03*
D318*
X828631Y485959D02*
D03*
Y426904D02*
D03*
D319*
X816565Y348800D02*
D03*
Y386800D02*
D03*
D320*
X790565Y387800D02*
D03*
Y379800D02*
D03*
Y371800D02*
D03*
Y363800D02*
D03*
Y355800D02*
D03*
Y347800D02*
D03*
X780565Y391800D02*
D03*
Y383800D02*
D03*
Y375800D02*
D03*
Y359800D02*
D03*
Y351800D02*
D03*
Y343800D02*
D03*
D321*
X816565Y402400D02*
D03*
Y333200D02*
D03*
D322*
X841565Y397400D02*
D03*
X831565Y338200D02*
D03*
X851565D02*
D03*
D323*
X321700Y78800D02*
D03*
Y138800D02*
D03*
D324*
Y93800D02*
D03*
Y108800D02*
D03*
Y123800D02*
D03*
X121700Y138800D02*
D03*
Y108800D02*
D03*
Y78800D02*
D03*
D325*
X63583Y106693D02*
D03*
Y77165D02*
D03*
Y47638D02*
D03*
X63565Y200104D02*
D03*
Y170576D02*
D03*
Y141049D02*
D03*
X63484Y293504D02*
D03*
Y263976D02*
D03*
Y234449D02*
D03*
D326*
X30118Y106693D02*
D03*
Y47638D02*
D03*
X30100Y200104D02*
D03*
Y141049D02*
D03*
X30020Y293504D02*
D03*
Y234449D02*
D03*
D327*
X645900Y558300D02*
D03*
X702166Y560200D02*
D03*
X693500Y559500D02*
D03*
X168800Y337500D02*
D03*
X771400Y472600D02*
D03*
X693100Y466900D02*
D03*
X693000Y472700D02*
D03*
X165700Y337600D02*
D03*
X99016Y471161D02*
D03*
X113500Y504800D02*
D03*
X99016Y464764D02*
D03*
X90987Y472047D02*
D03*
X106791Y522047D02*
D03*
X157310Y340100D02*
D03*
X168800Y331700D02*
D03*
X165900Y331721D02*
D03*
X162042Y337627D02*
D03*
X174800Y362200D02*
D03*
X167000Y347400D02*
D03*
X157800Y364425D02*
D03*
X149300Y379100D02*
D03*
X157790Y376596D02*
D03*
X140375Y364425D02*
D03*
X324300Y280800D02*
D03*
X206100Y480700D02*
D03*
X205800Y477100D02*
D03*
X191200Y484995D02*
D03*
X392600Y511300D02*
D03*
X477400Y499400D02*
D03*
X462500Y492002D02*
D03*
X524300Y495900D02*
D03*
X516100Y491300D02*
D03*
X583600Y495100D02*
D03*
X573400Y492000D02*
D03*
X637800Y495800D02*
D03*
X628800Y492400D02*
D03*
X673000Y492700D02*
D03*
X772600Y493400D02*
D03*
X786100Y324400D02*
D03*
X630800Y370200D02*
D03*
X697100Y409200D02*
D03*
X697200Y402800D02*
D03*
X697146Y406004D02*
D03*
X654654Y327784D02*
D03*
X656205Y312300D02*
D03*
X643100Y290100D02*
D03*
X638500Y290000D02*
D03*
X646703Y276500D02*
D03*
X656600Y281700D02*
D03*
X670000Y255300D02*
D03*
X679200Y52000D02*
D03*
X677100Y39500D02*
D03*
X834941Y56403D02*
D03*
X849600Y56000D02*
D03*
X801600Y97700D02*
D03*
X804000Y95100D02*
D03*
X791614Y21900D02*
D03*
X552900Y247800D02*
D03*
X553300Y253700D02*
D03*
X552928Y318685D02*
D03*
Y300969D02*
D03*
Y289158D02*
D03*
Y283252D02*
D03*
X553300Y265535D02*
D03*
X552928Y277346D02*
D03*
Y312779D02*
D03*
X719095Y90600D02*
D03*
X714000Y249000D02*
D03*
X759900Y69554D02*
D03*
X649900Y297000D02*
D03*
X318600Y324400D02*
D03*
X318700Y346400D02*
D03*
X343300Y419300D02*
D03*
X434800Y491100D02*
D03*
X747900Y509100D02*
D03*
X705335Y520500D02*
D03*
X683600Y458000D02*
D03*
X673500Y461400D02*
D03*
X642800Y67900D02*
D03*
X743000Y55100D02*
D03*
X742800Y61800D02*
D03*
X703800Y112607D02*
D03*
X704200Y121200D02*
D03*
X646900Y31000D02*
D03*
X637300Y11700D02*
D03*
X697539Y55000D02*
D03*
X715400Y58000D02*
D03*
X705200Y76559D02*
D03*
X666000Y77458D02*
D03*
X684700Y77200D02*
D03*
X632800Y77800D02*
D03*
X801300Y17100D02*
D03*
X682300Y34500D02*
D03*
X638100Y36900D02*
D03*
X652200Y82200D02*
D03*
X652500Y89700D02*
D03*
X739600Y9300D02*
D03*
X731100Y9500D02*
D03*
X721882Y9900D02*
D03*
X712100Y10400D02*
D03*
X662000Y12800D02*
D03*
X671900Y12100D02*
D03*
X679000Y63500D02*
D03*
X690800Y63300D02*
D03*
X702300D02*
D03*
X837200Y10800D02*
D03*
X837400Y18600D02*
D03*
X839200Y27600D02*
D03*
X819200Y11700D02*
D03*
X819519Y19700D02*
D03*
X819600Y28000D02*
D03*
X831300Y87733D02*
D03*
X849500D02*
D03*
X848800Y73400D02*
D03*
X661544Y472100D02*
D03*
X658500Y477756D02*
D03*
X658000Y483000D02*
D03*
X658173Y488000D02*
D03*
X661900Y495887D02*
D03*
Y501154D02*
D03*
X778642Y30600D02*
D03*
X782200Y12500D02*
D03*
X755100Y17300D02*
D03*
X763189Y23700D02*
D03*
X751300Y25400D02*
D03*
X739900Y34700D02*
D03*
X746900Y42500D02*
D03*
X761700Y31900D02*
D03*
X724800Y21100D02*
D03*
X713100Y24900D02*
D03*
X782776Y101772D02*
D03*
X264100Y387800D02*
D03*
X711200Y450900D02*
D03*
X592500Y99600D02*
D03*
X745100Y527500D02*
D03*
X646300Y443595D02*
D03*
X633700Y452000D02*
D03*
X629300Y458000D02*
D03*
X623700Y454726D02*
D03*
X618700Y459600D02*
D03*
X559700Y432400D02*
D03*
X554400D02*
D03*
X550492Y10531D02*
D03*
X637598Y23327D02*
D03*
X811319Y8563D02*
D03*
X831004Y40354D02*
D03*
X825984Y40453D02*
D03*
X851378Y44685D02*
D03*
X820571Y49311D02*
D03*
X805610Y51968D02*
D03*
X795669Y54626D02*
D03*
X639075Y49803D02*
D03*
X741634Y102756D02*
D03*
X730807Y111811D02*
D03*
X753642Y121260D02*
D03*
X765561Y108957D02*
D03*
X765945Y102756D02*
D03*
X794390Y166929D02*
D03*
X701476Y194488D02*
D03*
X692520Y235335D02*
D03*
X687402Y202658D02*
D03*
X696949Y316142D02*
D03*
X793307Y247638D02*
D03*
X800689Y517520D02*
D03*
X794980D02*
D03*
X796063Y474213D02*
D03*
X758760Y474311D02*
D03*
X691900Y525197D02*
D03*
X673819Y522342D02*
D03*
X661024Y525098D02*
D03*
X687205Y514750D02*
D03*
X753248Y412008D02*
D03*
X594783Y488287D02*
D03*
X540158Y488484D02*
D03*
X484055Y488189D02*
D03*
X488484Y432776D02*
D03*
X483957D02*
D03*
X477658Y452756D02*
D03*
X500886Y454429D02*
D03*
X465354Y427067D02*
D03*
X202264Y331821D02*
D03*
Y325886D02*
D03*
X590945Y376870D02*
D03*
X38835Y420866D02*
D03*
X58392Y419980D02*
D03*
X84153Y303150D02*
D03*
Y308300D02*
D03*
Y313451D02*
D03*
Y318602D02*
D03*
Y323753D02*
D03*
Y328904D02*
D03*
Y334055D02*
D03*
X123622Y385630D02*
D03*
X142421Y378445D02*
D03*
X157359Y385630D02*
D03*
Y389873D02*
D03*
Y394116D02*
D03*
Y398359D02*
D03*
Y402603D02*
D03*
Y406846D02*
D03*
Y411089D02*
D03*
Y415332D02*
D03*
Y419576D02*
D03*
Y423819D02*
D03*
X123622Y389873D02*
D03*
Y394116D02*
D03*
Y398359D02*
D03*
Y402603D02*
D03*
Y406846D02*
D03*
Y411089D02*
D03*
Y415332D02*
D03*
Y419576D02*
D03*
Y423819D02*
D03*
X167900Y362100D02*
D03*
X168800Y334800D02*
D03*
X168000Y359400D02*
D03*
X171000Y362200D02*
D03*
X176673Y309538D02*
D03*
X109153Y323228D02*
D03*
X125689Y322622D02*
D03*
X170374Y323644D02*
D03*
Y316308D02*
D03*
X160170D02*
D03*
X140256Y311417D02*
D03*
X124705Y311614D02*
D03*
X108760Y311319D02*
D03*
X103740Y309538D02*
D03*
X165272Y316308D02*
D03*
X149967D02*
D03*
X144865D02*
D03*
X139764D02*
D03*
X134662D02*
D03*
X129560D02*
D03*
X124459D02*
D03*
X119357D02*
D03*
X114255D02*
D03*
X109153D02*
D03*
X56299Y190551D02*
D03*
X62254D02*
D03*
X68209D02*
D03*
X73130Y120472D02*
D03*
X71358Y96752D02*
D03*
X65256D02*
D03*
X59153D02*
D03*
X53051D02*
D03*
Y102682D02*
D03*
Y108612D02*
D03*
Y114542D02*
D03*
Y120472D02*
D03*
X59744D02*
D03*
X66437D02*
D03*
X361417Y117898D02*
D03*
X356988D02*
D03*
X72047Y63484D02*
D03*
X67298D02*
D03*
X62549D02*
D03*
X57800D02*
D03*
X53051D02*
D03*
Y67697D02*
D03*
Y71909D02*
D03*
Y76122D02*
D03*
Y80335D02*
D03*
Y84547D02*
D03*
X82111Y419685D02*
D03*
X13287Y420571D02*
D03*
X774803Y84055D02*
D03*
X749705Y87795D02*
D03*
X752362Y74500D02*
D03*
X797539Y50689D02*
D03*
X654134Y102756D02*
D03*
X764567Y126083D02*
D03*
X778877Y101673D02*
D03*
X838386Y87795D02*
D03*
X820177Y92323D02*
D03*
X797342Y86024D02*
D03*
X815158Y63287D02*
D03*
X788091Y42618D02*
D03*
X797736Y38583D02*
D03*
X794882Y34941D02*
D03*
X782087Y84055D02*
D03*
X780413Y81299D02*
D03*
X771457Y69291D02*
D03*
X717051Y68209D02*
D03*
X501083Y106004D02*
D03*
X528937Y113189D02*
D03*
X471555Y106299D02*
D03*
X472539Y116437D02*
D03*
Y121555D02*
D03*
X613091Y233750D02*
D03*
Y230600D02*
D03*
Y227450D02*
D03*
X627953Y243650D02*
D03*
Y240500D02*
D03*
Y234201D02*
D03*
Y237350D02*
D03*
X613484Y255299D02*
D03*
Y252150D02*
D03*
Y245850D02*
D03*
Y249000D02*
D03*
X560433Y528346D02*
D03*
X501575Y529429D02*
D03*
X308563Y280906D02*
D03*
X336221Y280100D02*
D03*
X631791Y373917D02*
D03*
X334941Y275590D02*
D03*
X256693Y271260D02*
D03*
X303051Y267028D02*
D03*
X266333Y267421D02*
D03*
X492028Y40256D02*
D03*
X98622Y488779D02*
D03*
X203750Y483488D02*
D03*
X178543Y506496D02*
D03*
X342520Y446358D02*
D03*
X46260Y512008D02*
D03*
X191634Y459345D02*
D03*
X113583Y469390D02*
D03*
X197539Y522342D02*
D03*
X172146Y522146D02*
D03*
X142618Y521752D02*
D03*
X151279Y511516D02*
D03*
X153551Y496555D02*
D03*
X153839Y462303D02*
D03*
X174803Y496358D02*
D03*
X181299Y462106D02*
D03*
X208957Y500591D02*
D03*
X212697Y508858D02*
D03*
X208858Y522441D02*
D03*
X238779Y499705D02*
D03*
X240059Y509547D02*
D03*
X210925Y474000D02*
D03*
X239100Y473622D02*
D03*
X233858Y522047D02*
D03*
X264764Y473917D02*
D03*
X264173Y500277D02*
D03*
X265650Y509744D02*
D03*
X259350Y522146D02*
D03*
X289711Y500295D02*
D03*
X290945Y509842D02*
D03*
X285925Y522047D02*
D03*
X290158Y474508D02*
D03*
X314961Y500486D02*
D03*
X316240Y509350D02*
D03*
X311122Y522047D02*
D03*
X315945Y475197D02*
D03*
X341437Y500689D02*
D03*
X342913Y509547D02*
D03*
X338779Y522244D02*
D03*
X368406Y509449D02*
D03*
X367618Y499902D02*
D03*
X364354Y521358D02*
D03*
X367600Y474705D02*
D03*
X342224Y475098D02*
D03*
X468504Y379488D02*
D03*
X400886Y521457D02*
D03*
X427461Y521555D02*
D03*
X467224Y461417D02*
D03*
X831201Y523917D02*
D03*
X818307Y523425D02*
D03*
X644095Y388976D02*
D03*
X643405Y385728D02*
D03*
X697146Y412697D02*
D03*
X723425Y412106D02*
D03*
X743261Y415059D02*
D03*
X738261D02*
D03*
X728261D02*
D03*
X733261D02*
D03*
X723851Y455807D02*
D03*
X642213Y381496D02*
D03*
X753445Y449606D02*
D03*
X721252Y297842D02*
D03*
X725429Y294306D02*
D03*
X717717Y301378D02*
D03*
X722100Y515882D02*
D03*
X771358Y436614D02*
D03*
X788189Y505709D02*
D03*
X808760Y511000D02*
D03*
X794980Y493504D02*
D03*
X783366Y495218D02*
D03*
X769390Y506556D02*
D03*
X783760Y484842D02*
D03*
X785639Y457185D02*
D03*
X785630Y435630D02*
D03*
X755610Y433661D02*
D03*
X625000Y291142D02*
D03*
Y287621D02*
D03*
Y284100D02*
D03*
X681795Y312500D02*
D03*
X688386Y307972D02*
D03*
X690551Y283900D02*
D03*
X689100Y287795D02*
D03*
X639764Y372244D02*
D03*
X641142Y377067D02*
D03*
X515939Y455309D02*
D03*
X533071Y448937D02*
D03*
X611909Y344783D02*
D03*
X738779Y269598D02*
D03*
X752854Y278937D02*
D03*
X734744Y275590D02*
D03*
X670768Y291142D02*
D03*
X657677Y295669D02*
D03*
X656693Y316900D02*
D03*
X691900Y256300D02*
D03*
X696752Y256004D02*
D03*
X809449Y323327D02*
D03*
X836024D02*
D03*
X764370Y202658D02*
D03*
X756693Y191240D02*
D03*
X764862Y154879D02*
D03*
X757579Y143300D02*
D03*
X726575Y161965D02*
D03*
Y131965D02*
D03*
X695177Y128300D02*
D03*
X702362Y162043D02*
D03*
X678628Y153937D02*
D03*
X668209Y147244D02*
D03*
Y153937D02*
D03*
X678740Y147244D02*
D03*
X739567Y475394D02*
D03*
X725395Y503616D02*
D03*
X714863Y506648D02*
D03*
X703643Y501530D02*
D03*
X711418Y497436D02*
D03*
X703347Y468557D02*
D03*
X702166Y460683D02*
D03*
X679204Y463862D02*
D03*
X431398Y468504D02*
D03*
X520768Y433760D02*
D03*
X444783Y529232D02*
D03*
X464272Y515846D02*
D03*
X447361Y491025D02*
D03*
X447439Y454726D02*
D03*
X462500Y439173D02*
D03*
X531416Y516437D02*
D03*
X500861Y492002D02*
D03*
X510827Y433760D02*
D03*
X558551Y492335D02*
D03*
X575394Y515742D02*
D03*
X592311Y446805D02*
D03*
X612894Y527953D02*
D03*
X613861Y491535D02*
D03*
X628051Y515748D02*
D03*
X643861Y478361D02*
D03*
X613939Y454466D02*
D03*
X654261Y321879D02*
D03*
X657480Y324705D02*
D03*
X650492Y344979D02*
D03*
X654232Y347638D02*
D03*
X563539Y440532D02*
D03*
X568539Y439602D02*
D03*
X573539Y439976D02*
D03*
X578539Y440260D02*
D03*
X662400Y349713D02*
D03*
Y354413D02*
D03*
X683516Y327784D02*
D03*
X691900Y316142D02*
D03*
X660142Y312196D02*
D03*
X653300Y288173D02*
D03*
X664079Y281779D02*
D03*
X452439Y438679D02*
D03*
X668016Y281693D02*
D03*
X505800Y433760D02*
D03*
X457439Y456271D02*
D03*
X583613Y349197D02*
D03*
X658300Y240700D02*
D03*
X658200Y245800D02*
D03*
X645600Y255100D02*
D03*
X656700Y256300D02*
D03*
X573140Y252740D02*
D03*
X649100Y286044D02*
D03*
X606900Y291700D02*
D03*
X607100Y303500D02*
D03*
X606400Y315973D02*
D03*
X572100Y347200D02*
D03*
X606460Y335500D02*
D03*
X606300Y357100D02*
D03*
X790800Y304400D02*
D03*
X792100Y311347D02*
D03*
X780500D02*
D03*
X769000D02*
D03*
X752175Y315025D02*
D03*
X751900Y310100D02*
D03*
X799300Y411900D02*
D03*
X824137Y412563D02*
D03*
X572553Y351165D02*
D03*
X117000Y372500D02*
D03*
X215698Y313602D02*
D03*
X234600Y311591D02*
D03*
X572549Y99197D02*
D03*
Y105102D02*
D03*
X552928Y111992D02*
D03*
X572553Y116913D02*
D03*
X552928Y129709D02*
D03*
X572553Y128724D02*
D03*
Y140535D02*
D03*
X552928Y155299D02*
D03*
X572553Y146441D02*
D03*
Y152347D02*
D03*
Y158252D02*
D03*
X552928Y159236D02*
D03*
X572553Y170063D02*
D03*
Y177937D02*
D03*
X552928Y176953D02*
D03*
Y182858D02*
D03*
X572553Y189748D02*
D03*
Y213370D02*
D03*
Y203528D02*
D03*
X552928Y196638D02*
D03*
Y206480D02*
D03*
Y230102D02*
D03*
Y241913D02*
D03*
Y324591D02*
D03*
X552931Y336402D02*
D03*
Y342307D02*
D03*
Y348213D02*
D03*
Y354118D02*
D03*
Y364000D02*
D03*
X552915Y369866D02*
D03*
Y383646D02*
D03*
X283500Y295200D02*
D03*
X343200Y327800D02*
D03*
Y322900D02*
D03*
X352149Y348749D02*
D03*
X381400Y324800D02*
D03*
X242698Y216815D02*
D03*
X257598Y221028D02*
D03*
X223172Y329640D02*
D03*
X232400Y329900D02*
D03*
X155600Y299800D02*
D03*
X165300Y353800D02*
D03*
X160251Y343849D02*
D03*
X145793Y329600D02*
D03*
X145300Y323600D02*
D03*
X138025Y349900D02*
D03*
X141289Y346286D02*
D03*
X131000Y339800D02*
D03*
X127500Y357900D02*
D03*
X137500Y377600D02*
D03*
X125400Y370200D02*
D03*
X145378Y334900D02*
D03*
X152200Y337600D02*
D03*
X141289Y353483D02*
D03*
X144552Y349900D02*
D03*
Y353483D02*
D03*
X138025D02*
D03*
X144552Y346286D02*
D03*
X141289Y349884D02*
D03*
X138025Y346286D02*
D03*
X693090Y480827D02*
D03*
X681122D02*
D03*
Y492795D02*
D03*
X693090D02*
D03*
Y488806D02*
D03*
Y484816D02*
D03*
X689101Y492795D02*
D03*
Y488806D02*
D03*
Y484816D02*
D03*
Y480827D02*
D03*
X685112Y492795D02*
D03*
Y488806D02*
D03*
Y484816D02*
D03*
Y480827D02*
D03*
X681122Y488806D02*
D03*
Y484816D02*
D03*
D328*
X662504Y275396D02*
D03*
X666835D02*
D03*
X671165D02*
D03*
X675496D02*
D03*
X662504Y271065D02*
D03*
X666835D02*
D03*
X671165D02*
D03*
X675496D02*
D03*
X662504Y266735D02*
D03*
X666835D02*
D03*
X671165D02*
D03*
X675496D02*
D03*
X662504Y262404D02*
D03*
X666835D02*
D03*
X671165D02*
D03*
X675496D02*
D03*
Y333296D02*
D03*
Y328965D02*
D03*
Y324635D02*
D03*
Y320304D02*
D03*
X671165Y333296D02*
D03*
Y328965D02*
D03*
Y324635D02*
D03*
Y320304D02*
D03*
X666835Y333296D02*
D03*
Y328965D02*
D03*
Y324635D02*
D03*
Y320304D02*
D03*
X662504Y333296D02*
D03*
Y328965D02*
D03*
Y324635D02*
D03*
Y320304D02*
D03*
M02*
