G04*
G04 #@! TF.GenerationSoftware,Altium Limited,Altium Designer,18.1.8 (232)*
G04*
G04 Layer_Physical_Order=2*
G04 Layer_Color=32768*
%FSLAX25Y25*%
%MOIN*%
G70*
G01*
G75*
%ADD15C,0.01968*%
%ADD277C,0.07500*%
%ADD301C,0.04000*%
%ADD302C,0.07150*%
%ADD303C,0.08331*%
%ADD304C,0.09906*%
%ADD305C,0.07150*%
%ADD306C,0.07937*%
%ADD307O,0.14000X0.07000*%
%ADD308O,0.07000X0.14000*%
%ADD309C,0.10299*%
%ADD310C,0.08331*%
%ADD311C,0.17394*%
%ADD312C,0.10496*%
%ADD313C,0.10497*%
%ADD314C,0.17779*%
%ADD315C,0.21047*%
%ADD316C,0.09512*%
%ADD317C,0.15811*%
%ADD318C,0.13843*%
%ADD319C,0.16800*%
%ADD320C,0.07800*%
%ADD321C,0.10200*%
%ADD322C,0.09000*%
%ADD323C,0.11087*%
%ADD324C,0.09118*%
%ADD325C,0.09906*%
%ADD326C,0.16598*%
%ADD327C,0.05181*%
D15*
X849900Y555000D02*
Y555100D01*
X750900D02*
X849900D01*
X814046Y458346D02*
Y521800D01*
X844300D01*
X750900Y522000D02*
Y531043D01*
X750443Y531500D02*
X750900Y531043D01*
X730200Y531500D02*
X750443D01*
X729600Y532100D02*
X730200Y531500D01*
X729600Y532100D02*
Y554900D01*
X729800Y555100D01*
X750900D01*
X844300Y521800D02*
X849900Y527400D01*
Y555000D01*
X70800Y450582D02*
Y513200D01*
X124300D01*
Y450582D02*
Y513200D01*
X70800Y450582D02*
X124300D01*
X425300Y474300D02*
Y557600D01*
X474900Y403898D02*
Y466400D01*
X648800D01*
X455500Y403898D02*
X474900D01*
X441900Y557600D02*
X642800D01*
Y492641D02*
Y557600D01*
Y492641D02*
X648900D01*
Y487500D02*
Y492641D01*
X844700Y208000D02*
Y222500D01*
Y192700D02*
Y208000D01*
X788800Y152100D02*
Y156600D01*
Y152100D02*
X843600D01*
X769800Y128100D02*
Y138900D01*
X761150D02*
X769800D01*
X749468D02*
X749537D01*
X749468Y127219D02*
Y138900D01*
X749537D02*
X761900D01*
X714663Y127237D02*
Y169938D01*
Y127237D02*
X714681Y127219D01*
X749468D01*
X714663Y169938D02*
Y172155D01*
Y181900D01*
X692200D02*
X714663D01*
X692200D02*
Y192400D01*
Y207225D01*
X692234Y207259D02*
X749159D01*
X692200Y207225D02*
X692234Y207259D01*
X749159Y225500D02*
X767400D01*
X749159Y207259D02*
Y225500D01*
X767400D02*
X841700D01*
X769800Y128100D02*
X816498D01*
X841700Y225500D02*
X844700Y222500D01*
X837300Y185300D02*
X844700Y192700D01*
X835100Y183100D02*
X837300Y185300D01*
X788800Y183100D02*
X835100D01*
X788800Y156600D02*
Y183100D01*
X843600Y128100D02*
Y152100D01*
X816800Y128100D02*
X843600D01*
X744700Y461100D02*
Y515800D01*
X750900Y522000D01*
X740400Y461100D02*
X744700D01*
X717717D02*
X740400D01*
X717717Y443200D02*
Y461100D01*
Y443200D02*
X798900D01*
X814046Y458346D01*
X425300Y557600D02*
X443300D01*
X425300Y474300D02*
X455500D01*
Y403898D02*
Y474300D01*
X648800Y466400D02*
X648900Y466500D01*
Y487500D01*
D277*
X861909Y54114D02*
D03*
X861909Y44114D02*
D03*
X861909Y34114D02*
D03*
X661100Y38800D02*
D03*
X661100Y48800D02*
D03*
X661100Y58800D02*
D03*
X767800Y258900D02*
D03*
X767800Y268900D02*
D03*
D301*
X100Y-100D02*
X870600D01*
X870600Y592100D02*
X870600Y-100D01*
X100Y592100D02*
X100Y-100D01*
X100Y592100D02*
X870600D01*
D302*
X730400Y430000D02*
D03*
X528500Y134900D02*
D03*
X229300Y293300D02*
D03*
X242000Y374400D02*
D03*
X100300Y442400D02*
D03*
X778300Y511100D02*
D03*
X242500Y398000D02*
D03*
X354000Y26900D02*
D03*
X245900Y239800D02*
D03*
D303*
X238600Y12600D02*
D03*
X258600D02*
D03*
X248600D02*
D03*
D304*
Y29411D02*
D03*
X161270Y164865D02*
D03*
X232530D02*
D03*
X175601Y182935D02*
D03*
X196900D02*
D03*
X218199D02*
D03*
X848500Y307100D02*
D03*
D305*
X106299Y186417D02*
D03*
Y166732D02*
D03*
X171057Y30900D02*
D03*
X190743D02*
D03*
X278557Y169300D02*
D03*
X298243D02*
D03*
D306*
X93800Y16100D02*
D03*
X63800D02*
D03*
X450872Y566651D02*
D03*
Y535155D02*
D03*
X527643Y566651D02*
D03*
Y535155D02*
D03*
X450872Y543029D02*
D03*
Y558777D02*
D03*
X476462Y543029D02*
D03*
Y558777D02*
D03*
X502053Y543029D02*
D03*
Y558777D02*
D03*
X527643D02*
D03*
Y543029D02*
D03*
Y574525D02*
D03*
X450872D02*
D03*
X476462Y566651D02*
D03*
X502053D02*
D03*
X346766Y535155D02*
D03*
X423538D02*
D03*
X346766Y543029D02*
D03*
Y550903D02*
D03*
Y558777D02*
D03*
X372357Y543029D02*
D03*
Y550903D02*
D03*
Y558777D02*
D03*
X397947Y543029D02*
D03*
Y550903D02*
D03*
Y558777D02*
D03*
X423538D02*
D03*
Y550903D02*
D03*
Y543029D02*
D03*
Y574525D02*
D03*
X346766D02*
D03*
X242660Y535155D02*
D03*
X319432D02*
D03*
X242660Y543029D02*
D03*
Y550903D02*
D03*
Y558777D02*
D03*
X268251Y543029D02*
D03*
Y550903D02*
D03*
Y558777D02*
D03*
X293841Y543029D02*
D03*
Y550903D02*
D03*
Y558777D02*
D03*
X319432D02*
D03*
Y550903D02*
D03*
Y543029D02*
D03*
Y574525D02*
D03*
X242660D02*
D03*
X138555Y535155D02*
D03*
X215326D02*
D03*
X138555Y543029D02*
D03*
Y550903D02*
D03*
Y558777D02*
D03*
X164145Y543029D02*
D03*
Y550903D02*
D03*
Y558777D02*
D03*
X189736Y543029D02*
D03*
Y550903D02*
D03*
Y558777D02*
D03*
X215326D02*
D03*
Y550903D02*
D03*
Y543029D02*
D03*
Y574525D02*
D03*
X138555D02*
D03*
X34449Y535138D02*
D03*
X111221D02*
D03*
X34449Y543012D02*
D03*
Y550886D02*
D03*
Y558760D02*
D03*
X60039Y543012D02*
D03*
Y550886D02*
D03*
Y558760D02*
D03*
X85630Y543012D02*
D03*
Y550886D02*
D03*
Y558760D02*
D03*
X111221D02*
D03*
Y550886D02*
D03*
Y543012D02*
D03*
Y574508D02*
D03*
X34449D02*
D03*
X314200Y442600D02*
D03*
X304200D02*
D03*
X314100Y416400D02*
D03*
X304100D02*
D03*
X554978Y566634D02*
D03*
Y535138D02*
D03*
X631749Y566634D02*
D03*
Y535138D02*
D03*
X554978Y543012D02*
D03*
Y558760D02*
D03*
X580568Y543012D02*
D03*
Y558760D02*
D03*
X606159Y543012D02*
D03*
Y558760D02*
D03*
X631749D02*
D03*
Y543012D02*
D03*
Y574508D02*
D03*
X554978D02*
D03*
X580568Y566634D02*
D03*
X606159D02*
D03*
X763189Y535138D02*
D03*
X839961D02*
D03*
X763189Y543012D02*
D03*
Y550886D02*
D03*
Y558760D02*
D03*
X788779Y543012D02*
D03*
Y550886D02*
D03*
Y558760D02*
D03*
X814370Y543012D02*
D03*
Y550886D02*
D03*
Y558760D02*
D03*
X839961D02*
D03*
Y550886D02*
D03*
Y543012D02*
D03*
Y574508D02*
D03*
X763189D02*
D03*
X659083Y535230D02*
D03*
X735855D02*
D03*
X659083Y543104D02*
D03*
Y550978D02*
D03*
Y558852D02*
D03*
X684674Y543104D02*
D03*
Y550978D02*
D03*
Y558852D02*
D03*
X710264Y543104D02*
D03*
Y550978D02*
D03*
Y558852D02*
D03*
X735855D02*
D03*
Y550978D02*
D03*
Y543104D02*
D03*
Y574600D02*
D03*
X659083D02*
D03*
X838500Y144300D02*
D03*
X831500Y140300D02*
D03*
Y124300D02*
D03*
X812500Y148300D02*
D03*
X838500Y136300D02*
D03*
X812500Y103300D02*
D03*
X838500Y120300D02*
D03*
Y128300D02*
D03*
X812500Y112300D02*
D03*
X831500Y116300D02*
D03*
Y132300D02*
D03*
X812500Y157300D02*
D03*
Y232100D02*
D03*
X831500Y207100D02*
D03*
Y191100D02*
D03*
X812500Y187100D02*
D03*
X838500Y203100D02*
D03*
Y195100D02*
D03*
X812500Y178100D02*
D03*
X838500Y211100D02*
D03*
X812500Y223100D02*
D03*
X831500Y199100D02*
D03*
Y215100D02*
D03*
X838500Y219100D02*
D03*
Y296100D02*
D03*
X831500Y292100D02*
D03*
Y276100D02*
D03*
X812500Y300100D02*
D03*
X838500Y288100D02*
D03*
X812500Y255100D02*
D03*
X838500Y272100D02*
D03*
Y280100D02*
D03*
X812500Y264100D02*
D03*
X831500Y268100D02*
D03*
Y284100D02*
D03*
X812500Y309100D02*
D03*
D307*
X46279Y315058D02*
D03*
D308*
X56079Y333858D02*
D03*
X32579D02*
D03*
D309*
X442155Y90648D02*
D03*
X392350Y186402D02*
D03*
X567172Y72622D02*
D03*
D310*
X524832Y90648D02*
D03*
X274200Y442600D02*
D03*
X244200D02*
D03*
X274100Y416400D02*
D03*
X244100D02*
D03*
X392350Y281677D02*
D03*
X567172Y395457D02*
D03*
D311*
X848500Y105300D02*
D03*
Y155300D02*
D03*
Y230100D02*
D03*
Y180100D02*
D03*
Y257100D02*
D03*
D312*
X835000Y98300D02*
D03*
Y173100D02*
D03*
Y250100D02*
D03*
D313*
Y162300D02*
D03*
Y237100D02*
D03*
Y314100D02*
D03*
D314*
X852048Y512371D02*
D03*
X18448Y513371D02*
D03*
X854300Y16100D02*
D03*
X15900D02*
D03*
D315*
X468747Y234039D02*
D03*
X405755Y381677D02*
D03*
Y86402D02*
D03*
X606542Y86402D02*
D03*
Y381677D02*
D03*
D316*
X821663Y463400D02*
D03*
X835600Y449463D02*
D03*
Y463400D02*
D03*
X828631Y456431D02*
D03*
D317*
X844380Y485959D02*
D03*
Y426904D02*
D03*
D318*
X828631Y485959D02*
D03*
Y426904D02*
D03*
D319*
X816565Y348800D02*
D03*
Y386800D02*
D03*
D320*
X790565Y387800D02*
D03*
Y379800D02*
D03*
Y371800D02*
D03*
Y363800D02*
D03*
Y355800D02*
D03*
Y347800D02*
D03*
X780565Y391800D02*
D03*
Y383800D02*
D03*
Y375800D02*
D03*
Y359800D02*
D03*
Y351800D02*
D03*
Y343800D02*
D03*
D321*
X816565Y402400D02*
D03*
Y333200D02*
D03*
D322*
X841565Y397400D02*
D03*
X851565D02*
D03*
X831565Y338200D02*
D03*
X841565D02*
D03*
X851565D02*
D03*
D323*
X321700Y78800D02*
D03*
Y138800D02*
D03*
D324*
Y93800D02*
D03*
Y108800D02*
D03*
Y123800D02*
D03*
X121700Y138800D02*
D03*
Y108800D02*
D03*
Y78800D02*
D03*
D325*
X63583Y106693D02*
D03*
Y77165D02*
D03*
Y47638D02*
D03*
X63565Y170576D02*
D03*
Y141049D02*
D03*
X63484Y263976D02*
D03*
Y234449D02*
D03*
D326*
X30118Y106693D02*
D03*
Y47638D02*
D03*
X30100Y200104D02*
D03*
Y141049D02*
D03*
X30020Y293504D02*
D03*
Y234449D02*
D03*
D327*
X645900Y558300D02*
D03*
X702166Y560200D02*
D03*
X693500Y559500D02*
D03*
X168800Y337500D02*
D03*
X686700Y467000D02*
D03*
X693000Y472700D02*
D03*
X165700Y337600D02*
D03*
X99016Y471161D02*
D03*
Y464764D02*
D03*
X90987Y472047D02*
D03*
X106791Y522047D02*
D03*
X157310Y340100D02*
D03*
X168800Y331700D02*
D03*
X165900Y331721D02*
D03*
X162042Y337627D02*
D03*
X174800Y362200D02*
D03*
X167000Y347400D02*
D03*
X157790Y376596D02*
D03*
X206100Y480700D02*
D03*
X205800Y477100D02*
D03*
X477400Y499400D02*
D03*
X462500Y492002D02*
D03*
X524300Y495900D02*
D03*
X516100Y491300D02*
D03*
X583600Y495100D02*
D03*
X573400Y492000D02*
D03*
X637800Y495800D02*
D03*
X628800Y492400D02*
D03*
X773700Y482300D02*
D03*
X773800Y485500D02*
D03*
X753600Y456200D02*
D03*
X786100Y324400D02*
D03*
X630800Y370200D02*
D03*
X697100Y409200D02*
D03*
X697200Y402800D02*
D03*
X697146Y406004D02*
D03*
X654654Y327784D02*
D03*
X648327Y319882D02*
D03*
X646703Y276500D02*
D03*
X572549Y289400D02*
D03*
X475200Y130900D02*
D03*
X469300Y30100D02*
D03*
X801600Y97700D02*
D03*
X804000Y95100D02*
D03*
X747500Y476800D02*
D03*
X179900Y456300D02*
D03*
X89879Y424300D02*
D03*
X72200Y440000D02*
D03*
X782200Y12500D02*
D03*
X755100Y17300D02*
D03*
X763189Y23700D02*
D03*
X751300Y25400D02*
D03*
X746900Y42500D02*
D03*
X447361Y305600D02*
D03*
X439451D02*
D03*
X431540D02*
D03*
X423630D02*
D03*
X415720D02*
D03*
X407810D02*
D03*
X399900D02*
D03*
Y245100D02*
D03*
X407810D02*
D03*
X415720D02*
D03*
X423630D02*
D03*
X447361D02*
D03*
X439451D02*
D03*
X431540D02*
D03*
X296900Y393000D02*
D03*
X291200Y393200D02*
D03*
X264100Y387800D02*
D03*
X177200Y578900D02*
D03*
Y584200D02*
D03*
X720276Y524902D02*
D03*
X704400Y478100D02*
D03*
X711200Y450900D02*
D03*
X727300Y90800D02*
D03*
X565400Y289400D02*
D03*
X548800Y441800D02*
D03*
X604655Y441900D02*
D03*
X633700Y452000D02*
D03*
X629300Y458000D02*
D03*
X623700Y454726D02*
D03*
X618700Y459600D02*
D03*
X686600Y170200D02*
D03*
X592100Y286900D02*
D03*
X588539D02*
D03*
X592700Y299300D02*
D03*
X588900D02*
D03*
X592700Y320800D02*
D03*
X588000Y320900D02*
D03*
X627600Y309700D02*
D03*
X633760Y309900D02*
D03*
X613400Y302400D02*
D03*
X613500Y307200D02*
D03*
X592400Y330900D02*
D03*
X630400Y330500D02*
D03*
X635000Y330300D02*
D03*
X575098Y417300D02*
D03*
X542100Y412000D02*
D03*
X538100D02*
D03*
X613600Y332700D02*
D03*
Y337100D02*
D03*
X578900Y435100D02*
D03*
X582700D02*
D03*
X599279Y418100D02*
D03*
X610800Y417800D02*
D03*
X618507Y417900D02*
D03*
X630400Y417200D02*
D03*
X618500Y432800D02*
D03*
X630688D02*
D03*
X599900Y433900D02*
D03*
X610500Y433100D02*
D03*
X585200Y416900D02*
D03*
X571100Y417600D02*
D03*
X567172D02*
D03*
X542100Y435100D02*
D03*
X538100D02*
D03*
X511713Y124705D02*
D03*
X637598Y23327D02*
D03*
X811319Y8563D02*
D03*
X795669Y54626D02*
D03*
X735138Y104823D02*
D03*
X735335Y121358D02*
D03*
X762402Y120571D02*
D03*
X759367D02*
D03*
X742520Y185433D02*
D03*
X724606Y178347D02*
D03*
X719685Y178445D02*
D03*
X689173Y215256D02*
D03*
X669337Y210971D02*
D03*
Y215354D02*
D03*
X685433Y215339D02*
D03*
X743820Y282087D02*
D03*
X800689Y517520D02*
D03*
X794980D02*
D03*
X737894Y520079D02*
D03*
X737769Y523257D02*
D03*
X774114Y479134D02*
D03*
X667717Y472146D02*
D03*
X415551Y461319D02*
D03*
X431693Y462402D02*
D03*
X603346Y473228D02*
D03*
X596654D02*
D03*
X498819D02*
D03*
X492618D02*
D03*
X485827D02*
D03*
X479724D02*
D03*
X488484Y432776D02*
D03*
X483957D02*
D03*
X498819Y433465D02*
D03*
X385827Y501575D02*
D03*
X385433Y505315D02*
D03*
X396654Y494486D02*
D03*
X391954D02*
D03*
X590945Y376870D02*
D03*
X299935Y214567D02*
D03*
X273813D02*
D03*
X279528D02*
D03*
X284646D02*
D03*
X299935Y219258D02*
D03*
X306119D02*
D03*
X306119Y214567D02*
D03*
X289469D02*
D03*
X289764Y219258D02*
D03*
Y223950D02*
D03*
Y228642D02*
D03*
Y233333D02*
D03*
Y238025D02*
D03*
Y242717D02*
D03*
X312303Y214567D02*
D03*
X312303Y219258D02*
D03*
X312303Y223950D02*
D03*
Y228642D02*
D03*
Y233333D02*
D03*
Y238025D02*
D03*
Y242717D02*
D03*
X60138Y510728D02*
D03*
X84153Y303150D02*
D03*
Y308300D02*
D03*
Y313451D02*
D03*
Y318602D02*
D03*
Y323753D02*
D03*
Y328904D02*
D03*
Y334055D02*
D03*
X183661Y423819D02*
D03*
X175787D02*
D03*
X169291D02*
D03*
X117913Y389873D02*
D03*
X163091Y385630D02*
D03*
Y389873D02*
D03*
Y394116D02*
D03*
Y398359D02*
D03*
Y402603D02*
D03*
Y406846D02*
D03*
Y411089D02*
D03*
Y415332D02*
D03*
Y419576D02*
D03*
Y423819D02*
D03*
X117913Y385630D02*
D03*
Y394116D02*
D03*
Y398359D02*
D03*
Y402603D02*
D03*
Y406846D02*
D03*
Y411089D02*
D03*
Y415332D02*
D03*
Y419576D02*
D03*
Y423819D02*
D03*
X112722D02*
D03*
X107529D02*
D03*
X102338D02*
D03*
X113400Y406700D02*
D03*
X167900Y362100D02*
D03*
X168800Y334800D02*
D03*
X168000Y359400D02*
D03*
X171000Y362200D02*
D03*
X73130Y120472D02*
D03*
X71358Y96752D02*
D03*
X65256D02*
D03*
X59153D02*
D03*
X53051D02*
D03*
Y102682D02*
D03*
Y108612D02*
D03*
Y114542D02*
D03*
Y120472D02*
D03*
X59744D02*
D03*
X66437D02*
D03*
X72047Y63484D02*
D03*
X67298D02*
D03*
X62549D02*
D03*
X57800D02*
D03*
X53051D02*
D03*
Y67697D02*
D03*
Y71909D02*
D03*
Y76122D02*
D03*
Y80335D02*
D03*
Y84547D02*
D03*
X742126Y68110D02*
D03*
X817717Y70866D02*
D03*
X797539Y50689D02*
D03*
X735335Y118209D02*
D03*
X713681Y121555D02*
D03*
Y118996D02*
D03*
X789862Y113583D02*
D03*
X797736Y38583D02*
D03*
X794882Y34941D02*
D03*
X782087Y84055D02*
D03*
X780413Y81299D02*
D03*
X528642Y125591D02*
D03*
X517717Y124705D02*
D03*
X505905D02*
D03*
X496063D02*
D03*
X467421Y125000D02*
D03*
X461614D02*
D03*
X455709D02*
D03*
X448900D02*
D03*
X441900D02*
D03*
X613091Y233750D02*
D03*
Y230600D02*
D03*
Y227450D02*
D03*
X627953Y243650D02*
D03*
Y240500D02*
D03*
Y234201D02*
D03*
Y237350D02*
D03*
X613484Y255299D02*
D03*
Y252150D02*
D03*
Y245850D02*
D03*
Y249000D02*
D03*
X308563Y280906D02*
D03*
X336221Y280100D02*
D03*
X631791Y373917D02*
D03*
X303740Y288291D02*
D03*
X321063Y268602D02*
D03*
X313878Y263779D02*
D03*
X511319Y356087D02*
D03*
X156693Y481299D02*
D03*
X203750Y483488D02*
D03*
X368602Y408200D02*
D03*
X368701Y433800D02*
D03*
X160851Y455118D02*
D03*
X197539Y522342D02*
D03*
X172146Y522146D02*
D03*
X142618Y521752D02*
D03*
X208858Y522441D02*
D03*
X210039Y456693D02*
D03*
X239075Y459547D02*
D03*
X233858Y522047D02*
D03*
X264469Y459600D02*
D03*
X259350Y522146D02*
D03*
X285925Y522047D02*
D03*
X289665Y459646D02*
D03*
X311122Y522047D02*
D03*
X315650Y459547D02*
D03*
X338779Y522244D02*
D03*
X364354Y521358D02*
D03*
X365748Y459646D02*
D03*
X341535Y459547D02*
D03*
X450197Y393996D02*
D03*
X400886Y521457D02*
D03*
X427461Y521555D02*
D03*
X467224Y461417D02*
D03*
X523425Y522047D02*
D03*
X831201Y523917D02*
D03*
X818307Y523425D02*
D03*
X644095Y388976D02*
D03*
X643405Y385728D02*
D03*
X697146Y412697D02*
D03*
X743261Y415059D02*
D03*
X738261D02*
D03*
X728261D02*
D03*
X733261D02*
D03*
X714961Y397047D02*
D03*
X748339Y411713D02*
D03*
X698162Y328839D02*
D03*
X642213Y381496D02*
D03*
X802756Y506790D02*
D03*
X721252Y297842D02*
D03*
X725429Y294306D02*
D03*
X717717Y301378D02*
D03*
X720472Y521850D02*
D03*
X809744Y418799D02*
D03*
X808563Y473721D02*
D03*
X786122Y511713D02*
D03*
X770965Y512037D02*
D03*
X750492Y495374D02*
D03*
X794980Y493504D02*
D03*
X783366Y495218D02*
D03*
X809646Y500295D02*
D03*
X779035Y458071D02*
D03*
X780610Y435039D02*
D03*
X747026Y420100D02*
D03*
X625000Y291142D02*
D03*
Y287621D02*
D03*
Y284100D02*
D03*
X681795Y312500D02*
D03*
X688386Y307972D02*
D03*
X690551Y283900D02*
D03*
X689100Y287795D02*
D03*
X639764Y372244D02*
D03*
X641142Y377067D02*
D03*
X515939Y455309D02*
D03*
X526083Y452756D02*
D03*
X611909Y344783D02*
D03*
X646161Y303445D02*
D03*
X670768Y291142D02*
D03*
X657677Y295669D02*
D03*
X665649Y293401D02*
D03*
X656693Y316900D02*
D03*
X674803Y356087D02*
D03*
X670768Y240158D02*
D03*
X696457Y269193D02*
D03*
X681693Y117126D02*
D03*
X742700Y137303D02*
D03*
X745965Y167557D02*
D03*
X726575Y136811D02*
D03*
X702658Y137106D02*
D03*
X681595Y182382D02*
D03*
X678628Y153937D02*
D03*
X668209Y147244D02*
D03*
Y153937D02*
D03*
X678740Y147244D02*
D03*
X708550Y506648D02*
D03*
X672639Y499753D02*
D03*
X692619Y507632D02*
D03*
X415551Y456791D02*
D03*
X431693Y456299D02*
D03*
X520768Y433760D02*
D03*
X471457Y522539D02*
D03*
X472439Y452874D02*
D03*
X442323Y434646D02*
D03*
X462500Y439173D02*
D03*
X510827Y433760D02*
D03*
X584055Y522638D02*
D03*
X583539Y453028D02*
D03*
X636105Y521949D02*
D03*
X638939Y440490D02*
D03*
X648454Y323847D02*
D03*
X657480Y324705D02*
D03*
X650492Y344979D02*
D03*
X654232Y347638D02*
D03*
X563539Y440532D02*
D03*
X568539Y439602D02*
D03*
X573539Y439976D02*
D03*
X578539Y440260D02*
D03*
X660142Y312196D02*
D03*
X662205Y300590D02*
D03*
X634252Y280906D02*
D03*
X653300Y288173D02*
D03*
X452439Y438679D02*
D03*
X668016Y281693D02*
D03*
X505800Y433760D02*
D03*
X457439Y456271D02*
D03*
X583613Y349197D02*
D03*
X645600Y255100D02*
D03*
X656700Y256300D02*
D03*
X649100Y286044D02*
D03*
X584290Y292110D02*
D03*
X584479Y303921D02*
D03*
X584800Y315700D02*
D03*
X572100Y347200D02*
D03*
X589000Y330900D02*
D03*
X592900Y361300D02*
D03*
X588800D02*
D03*
X572553Y351165D02*
D03*
X117000Y372500D02*
D03*
X215698Y313602D02*
D03*
X572553Y341323D02*
D03*
X584654Y335200D02*
D03*
X572553Y327543D02*
D03*
X584900Y356900D02*
D03*
X572561Y362976D02*
D03*
Y382661D02*
D03*
X340646Y350054D02*
D03*
X358000Y306200D02*
D03*
X369746Y370854D02*
D03*
X347900Y306200D02*
D03*
X242698Y216815D02*
D03*
X157200Y371200D02*
D03*
X155600Y299800D02*
D03*
X165300Y353800D02*
D03*
X160251Y343849D02*
D03*
X145793Y329600D02*
D03*
X145300Y323600D02*
D03*
X127500Y357900D02*
D03*
X130109Y365000D02*
D03*
X137500Y377600D02*
D03*
X145378Y334900D02*
D03*
M02*
