G04*
G04 #@! TF.GenerationSoftware,Altium Limited,Altium Designer,18.1.8 (232)*
G04*
G04 Layer_Color=16711935*
%FSLAX25Y25*%
%MOIN*%
G70*
G01*
G75*
%ADD18C,0.00394*%
%ADD354C,0.00197*%
%ADD355C,0.00039*%
D18*
X870600Y592100D02*
X870600Y-100D01*
X100D02*
X870600D01*
X100Y592100D02*
X100Y-100D01*
X100Y592100D02*
X870600D01*
D354*
X66634Y521200D02*
G03*
X66634Y521200I-1378J0D01*
G01*
X768378Y37600D02*
G03*
X768378Y37600I-1378J0D01*
G01*
X479626Y127264D02*
G03*
X479626Y127264I-1378J0D01*
G01*
X718078Y217104D02*
G03*
X718078Y217104I-1378J0D01*
G01*
X625978Y423700D02*
G03*
X625978Y423700I-1378J0D01*
G01*
X606378Y423600D02*
G03*
X606378Y423600I-1378J0D01*
G01*
X582278D02*
G03*
X582278Y423600I-1378J0D01*
G01*
X541578D02*
G03*
X541578Y423600I-1378J0D01*
G01*
X266990Y216726D02*
G03*
X266990Y216726I-1378J0D01*
G01*
X208678Y322200D02*
G03*
X208678Y322200I-1378J0D01*
G01*
X183737Y317900D02*
G03*
X183737Y317900I-1378J0D01*
G01*
Y332400D02*
G03*
X183737Y332400I-1378J0D01*
G01*
X186678Y237900D02*
G03*
X186678Y237900I-1378J0D01*
G01*
X122074D02*
G03*
X122074Y237900I-1378J0D01*
G01*
X133688Y305598D02*
G03*
X133688Y305598I-1378J0D01*
G01*
X161428Y393800D02*
G03*
X161428Y393800I-1378J0D01*
G01*
X97737Y351202D02*
G03*
X97737Y351202I-1378J0D01*
G01*
X396858Y502302D02*
G03*
X396858Y502302I-1378J0D01*
G01*
X829778Y412563D02*
G03*
X829778Y412563I-1378J0D01*
G01*
X761078Y304200D02*
G03*
X761078Y304200I-1378J0D01*
G01*
X729098Y523157D02*
G03*
X729098Y523157I-1378J0D01*
G01*
X358478Y359900D02*
G03*
X358478Y359900I-1378J0D01*
G01*
X348878Y330400D02*
G03*
X348878Y330400I-1378J0D01*
G01*
X373422Y330950D02*
G03*
X373422Y330950I-1378J0D01*
G01*
X373138Y353272D02*
G03*
X373138Y353272I-1378J0D01*
G01*
X737178Y424500D02*
G03*
X737178Y424500I-1378J0D01*
G01*
X68224Y474535D02*
G03*
X68224Y474535I-1378J0D01*
G01*
X738478Y486800D02*
G03*
X738478Y486800I-1378J0D01*
G01*
X679035Y211614D02*
G03*
X679035Y211614I-1378J0D01*
G01*
X764378Y188700D02*
G03*
X764378Y188700I-1378J0D01*
G01*
X762598Y102657D02*
G03*
X762598Y102657I-1378J0D01*
G01*
X723425Y120374D02*
G03*
X723425Y120374I-1378J0D01*
G01*
X741047Y74800D02*
G03*
X741047Y74800I-1378J0D01*
G01*
X790453Y446949D02*
G03*
X790453Y446949I-1378J0D01*
G01*
X769478Y447000D02*
G03*
X769478Y447000I-1378J0D01*
G01*
X164589Y305598D02*
G03*
X164589Y305598I-1378J0D01*
G01*
X149139D02*
G03*
X149139Y305598I-1378J0D01*
G01*
X118237D02*
G03*
X118237Y305598I-1378J0D01*
G01*
X119278Y329500D02*
G03*
X119278Y329500I-1378J0D01*
G01*
X99237Y317900D02*
G03*
X99237Y317900I-1378J0D01*
G01*
Y332400D02*
G03*
X99237Y332400I-1378J0D01*
G01*
X118878Y351000D02*
G03*
X118878Y351000I-1378J0D01*
G01*
X187078Y351200D02*
G03*
X187078Y351200I-1378J0D01*
G01*
X161237Y325900D02*
G03*
X161237Y325900I-1378J0D01*
G01*
X164978Y345200D02*
G03*
X164978Y345200I-1378J0D01*
G01*
X153101Y368742D02*
G03*
X153101Y368742I-1378J0D01*
G01*
X153078Y376000D02*
G03*
X153078Y376000I-1378J0D01*
G01*
X142737Y349900D02*
G03*
X142737Y349900I-1378J0D01*
G01*
X121428Y393800D02*
G03*
X121428Y393800I-1378J0D01*
G01*
Y416308D02*
G03*
X121428Y416308I-1378J0D01*
G01*
X424311Y456693D02*
G03*
X424311Y456693I-1378J0D01*
G01*
X461278Y465900D02*
G03*
X461278Y465900I-1378J0D01*
G01*
X514778D02*
G03*
X514778Y465900I-1378J0D01*
G01*
X564378Y424900D02*
G03*
X564378Y424900I-1378J0D01*
G01*
X627778Y465900D02*
G03*
X627778Y465900I-1378J0D01*
G01*
X572378D02*
G03*
X572378Y465900I-1378J0D01*
G01*
X589478Y96300D02*
G03*
X589478Y96300I-1378J0D01*
G01*
X331281Y278490D02*
G03*
X331281Y278490I-1378J0D01*
G01*
X152978Y326400D02*
G03*
X152978Y326400I-1378J0D01*
G01*
X142478Y331600D02*
G03*
X142478Y331600I-1378J0D01*
G01*
X114567Y519783D02*
G03*
X114567Y519783I-1378J0D01*
G01*
X482382Y394488D02*
G03*
X482382Y394488I-1378J0D01*
G01*
X792478Y492600D02*
G03*
X792478Y492600I-1378J0D01*
G01*
X715778Y149504D02*
G03*
X715778Y149504I-1378J0D01*
G01*
X821205Y403776D02*
G03*
X811920Y403778I-4642J-1396D01*
G01*
X811929Y331811D02*
G03*
X821206Y331810I4639J1409D01*
G01*
X764370Y140965D02*
G03*
X764370Y140965I-1378J0D01*
G01*
X229478Y329640D02*
G03*
X229478Y329640I-1378J0D01*
G01*
X78578Y386900D02*
G03*
X78578Y386900I-1378J0D01*
G01*
X206678Y390500D02*
G03*
X206678Y390500I-1378J0D01*
G01*
X161428Y416308D02*
G03*
X161428Y416308I-1378J0D01*
G01*
X294833Y233226D02*
G03*
X294833Y233226I-1378J0D01*
G01*
X626578Y335039D02*
G03*
X626578Y335039I-1378J0D01*
G01*
Y304600D02*
G03*
X626578Y304600I-1378J0D01*
G01*
X63287Y521200D02*
X67224D01*
X65256Y519232D02*
Y523169D01*
X56004Y516672D02*
Y525728D01*
X74508D01*
Y516672D02*
Y525728D01*
X56004Y516672D02*
X74508D01*
X329465Y344185D02*
Y348615D01*
X319531Y344185D02*
X329465D01*
X319531D02*
Y348615D01*
X329465D01*
Y322085D02*
Y326515D01*
X319531Y322085D02*
X329465D01*
X319531D02*
Y326515D01*
X329465D01*
X71969Y214886D02*
X85315D01*
Y188858D02*
Y214886D01*
X71969Y188858D02*
X85315D01*
X71969D02*
Y214886D01*
X18701Y428276D02*
X23228D01*
X18701D02*
Y437724D01*
X23228D01*
Y428276D02*
Y437724D01*
X598360Y480268D02*
Y490201D01*
Y480268D02*
X602789D01*
Y490201D01*
X598360D02*
X602789D01*
X762079Y41537D02*
X771921D01*
Y33663D02*
Y41537D01*
X762079Y33663D02*
X771921D01*
X762079D02*
Y41537D01*
X767000Y35631D02*
Y39568D01*
X765031Y37600D02*
X768968D01*
X747236Y27657D02*
Y37106D01*
X751764D01*
Y27657D02*
Y37106D01*
X747236Y27657D02*
X751764D01*
X769936Y23676D02*
Y33124D01*
X774464D01*
Y23676D02*
Y33124D01*
X769936Y23676D02*
X774464D01*
X781236Y27476D02*
Y36924D01*
X785764D01*
Y27476D02*
Y36924D01*
X781236Y27476D02*
X785764D01*
X752136Y27576D02*
Y37024D01*
X756664D01*
Y27576D02*
Y37024D01*
X752136Y27576D02*
X756664D01*
X781085Y47865D02*
X785515D01*
X781085Y37931D02*
Y47865D01*
Y37931D02*
X785515D01*
Y47865D01*
X775524Y152640D02*
Y157168D01*
X766076Y152640D02*
X775524D01*
X766076D02*
Y157168D01*
X775524D01*
X74124Y433136D02*
Y437664D01*
X64676Y433136D02*
X74124D01*
X64676D02*
Y437664D01*
X74124D01*
X89636Y427176D02*
X94164D01*
X89636D02*
Y436624D01*
X94164D01*
Y427176D02*
Y436624D01*
X828839Y30807D02*
Y40256D01*
X833366D01*
Y30807D02*
Y40256D01*
X828839Y30807D02*
X833366D01*
X823671Y30468D02*
X828100D01*
Y40402D01*
X823671D02*
X828100D01*
X823671Y30468D02*
Y40402D01*
X796169Y162254D02*
Y166683D01*
X806102D01*
Y162254D02*
Y166683D01*
X796169Y162254D02*
X806102D01*
X796654Y167618D02*
X806102D01*
Y172146D01*
X796654D02*
X806102D01*
X796654Y167618D02*
Y172146D01*
X796949Y239707D02*
Y244235D01*
X806398D01*
Y239707D02*
Y244235D01*
X796949Y239707D02*
X806398D01*
X796610Y244973D02*
Y249402D01*
X806543D01*
Y244973D02*
Y249402D01*
X796610Y244973D02*
X806543D01*
X811472Y321211D02*
Y325640D01*
X821406D01*
Y321211D02*
Y325640D01*
X811472Y321211D02*
X821406D01*
X823907Y325689D02*
X833356D01*
X823907Y321161D02*
Y325689D01*
Y321161D02*
X833356D01*
Y325689D01*
X772236Y113713D02*
X776764D01*
X772236D02*
Y123161D01*
X776764D01*
Y113713D02*
Y123161D01*
X472342Y124508D02*
X484154D01*
X472342D02*
Y130020D01*
X484154D01*
Y124508D02*
Y130020D01*
X478248Y125295D02*
Y129232D01*
X476279Y127264D02*
X480217D01*
X619803Y388602D02*
Y402146D01*
Y388602D02*
X628622D01*
Y402146D01*
X619803D02*
X628622D01*
X621931Y368154D02*
Y381697D01*
Y368154D02*
X630750D01*
Y381697D01*
X621931D02*
X630750D01*
X692763Y190608D02*
Y243600D01*
X740637D01*
Y190608D02*
Y243600D01*
X692763Y190608D02*
X740637D01*
X716700Y215135D02*
Y219072D01*
X714732Y217104D02*
X718669D01*
X543652Y480268D02*
Y490201D01*
Y480268D02*
X548081D01*
Y490201D01*
X543652D02*
X548081D01*
X606032Y441215D02*
X615965D01*
X606032Y436785D02*
Y441215D01*
Y436785D02*
X615965D01*
Y441215D01*
X491196Y32377D02*
X500645D01*
X491196Y27850D02*
Y32377D01*
Y27850D02*
X500645D01*
Y32377D01*
X259049Y272150D02*
Y282084D01*
X254620D02*
X259049D01*
X254620Y272150D02*
Y282084D01*
Y272150D02*
X259049D01*
X42836Y428276D02*
X47364D01*
X42836D02*
Y437724D01*
X47364D01*
Y428276D02*
Y437724D01*
X621057Y414054D02*
Y433346D01*
Y414054D02*
X628143D01*
Y433346D01*
X621057D02*
X628143D01*
X622632Y423700D02*
X626569D01*
X624600Y421732D02*
Y425668D01*
X601457Y413954D02*
Y433246D01*
Y413954D02*
X608543D01*
Y433246D01*
X601457D02*
X608543D01*
X603031Y423600D02*
X606968D01*
X605000Y421631D02*
Y425568D01*
X577357Y413954D02*
Y433246D01*
Y413954D02*
X584443D01*
Y433246D01*
X577357D02*
X584443D01*
X578932Y423600D02*
X582868D01*
X580900Y421631D02*
Y425568D01*
X536657Y413954D02*
Y433246D01*
Y413954D02*
X543743D01*
Y433246D01*
X536657D02*
X543743D01*
X538232Y423600D02*
X542169D01*
X540200Y421631D02*
Y425568D01*
X586346Y319288D02*
X604654D01*
Y312312D02*
Y319288D01*
X586346Y312312D02*
X604654D01*
X586346D02*
Y319288D01*
Y295188D02*
X604654D01*
Y288212D02*
Y295188D01*
X586346Y288212D02*
X604654D01*
X586346D02*
Y295188D01*
Y307588D02*
X604654D01*
Y300612D02*
Y307588D01*
X586346Y300612D02*
X604654D01*
X586346D02*
Y307588D01*
Y360588D02*
X604654D01*
Y353612D02*
Y360588D01*
X586346Y353612D02*
X604654D01*
X586346D02*
Y360588D01*
Y338988D02*
X604654D01*
Y332012D02*
Y338988D01*
X586346Y332012D02*
X604654D01*
X586346D02*
Y338988D01*
X270668Y228462D02*
Y232990D01*
X261219Y228462D02*
X270668D01*
X261219D02*
Y232990D01*
X270668D01*
X270522Y222962D02*
Y227490D01*
X261073Y222962D02*
X270522D01*
X261073D02*
Y227490D01*
X270522D01*
X263644Y216726D02*
X267581D01*
X265613Y214757D02*
Y218694D01*
X260691Y212789D02*
Y220663D01*
X270534D01*
Y212789D02*
Y220663D01*
X260691Y212789D02*
X270534D01*
X277012Y223261D02*
Y233194D01*
X272583D02*
X277012D01*
X272583Y223261D02*
Y233194D01*
Y223261D02*
X277012D01*
X255522Y214465D02*
Y218992D01*
X246073Y214465D02*
X255522D01*
X246073D02*
Y218992D01*
X255522D01*
X232324Y309327D02*
Y313854D01*
X222876Y309327D02*
X232324D01*
X222876D02*
Y313854D01*
X232324D01*
X209915Y330035D02*
Y339968D01*
X205485D02*
X209915D01*
X205485Y330035D02*
Y339968D01*
Y330035D02*
X209915D01*
X204402Y315956D02*
Y328444D01*
X210198D01*
X204402Y315956D02*
X210198D01*
Y328444D01*
X205331Y322200D02*
X209268D01*
X207300Y320232D02*
Y324168D01*
X173108Y311601D02*
X191611D01*
Y324199D01*
X173108D02*
X191611D01*
X173108Y311601D02*
Y324199D01*
X182359Y315932D02*
Y319868D01*
X180391Y317900D02*
X184328D01*
X173108Y326101D02*
X191611D01*
Y338699D01*
X173108D02*
X191611D01*
X173108Y326101D02*
Y338699D01*
X182359Y330432D02*
Y334368D01*
X180391Y332400D02*
X184328D01*
X183332Y237900D02*
X187268D01*
X185300Y235931D02*
Y239868D01*
X162780Y207447D02*
X207820D01*
X162780D02*
Y279652D01*
X207820Y207447D02*
Y279652D01*
X162780D02*
X207820D01*
X118728Y237900D02*
X122665D01*
X120696Y235931D02*
Y239868D01*
X98176Y207447D02*
X143216D01*
X98176D02*
Y279652D01*
X143216Y207447D02*
Y279652D01*
X98176D02*
X143216D01*
X87815Y282260D02*
X101161D01*
X87815D02*
Y308287D01*
X101161D01*
Y282260D02*
Y308287D01*
X126011Y296346D02*
Y314850D01*
Y296346D02*
X138609D01*
Y314850D01*
X126011D02*
X138609D01*
X130342Y305598D02*
X134279D01*
X132310Y303630D02*
Y307567D01*
X142137Y403839D02*
X177963D01*
X142137Y383761D02*
Y403839D01*
Y383761D02*
X177963D01*
Y403839D01*
X160050Y391831D02*
Y395768D01*
X158081Y393800D02*
X162019D01*
X94391Y351202D02*
X98328D01*
X96359Y349234D02*
Y353171D01*
X111123Y340376D02*
Y362029D01*
X81596Y340376D02*
X111123D01*
X81596D02*
Y362029D01*
X111123D01*
X706633Y504431D02*
X716566D01*
X706633Y500002D02*
Y504431D01*
Y500002D02*
X716566D01*
Y504431D01*
X638785Y513832D02*
Y523765D01*
Y513832D02*
X643215D01*
Y523765D01*
X638785D02*
X643215D01*
X395480Y500334D02*
Y504271D01*
X393512Y502302D02*
X397449D01*
X392724Y496397D02*
X398236D01*
X392724D02*
Y508208D01*
X398236D01*
Y496397D02*
Y508208D01*
X387066Y503734D02*
Y513667D01*
Y503734D02*
X391495D01*
Y513667D01*
X387066D02*
X391495D01*
X513779Y353740D02*
Y358268D01*
X523228D01*
Y353740D02*
Y358268D01*
X513779Y353740D02*
X523228D01*
X439931Y440515D02*
X449865D01*
X439931Y436085D02*
Y440515D01*
Y436085D02*
X449865D01*
Y440515D01*
X813332Y414164D02*
X823265D01*
X813332Y409735D02*
Y414164D01*
Y409735D02*
X823265D01*
Y414164D01*
X825034Y410988D02*
X831746D01*
Y414138D01*
X825034D02*
X831746D01*
X825034Y410988D02*
Y414138D01*
X828400Y410988D02*
Y414138D01*
X826431Y412563D02*
X830369D01*
X833376Y409636D02*
Y414164D01*
X842824D01*
Y409636D02*
Y414164D01*
X833376Y409636D02*
X842824D01*
X802276D02*
Y414164D01*
X811724D01*
Y409636D02*
Y414164D01*
X802276Y409636D02*
X811724D01*
X842121Y322036D02*
Y326564D01*
X851570D01*
Y322036D02*
Y326564D01*
X842121Y322036D02*
X851570D01*
X757731Y304200D02*
X761668D01*
X759700Y302232D02*
Y306169D01*
X753794Y301444D02*
Y306956D01*
X765605D01*
Y301444D02*
Y306956D01*
X753794Y301444D02*
X765605D01*
X755672Y307885D02*
X765605D01*
Y312315D01*
X755672D02*
X765605D01*
X755672Y307885D02*
Y312315D01*
X795536Y313596D02*
X800064D01*
X795536D02*
Y323045D01*
X800064D01*
Y313596D02*
Y323045D01*
X794215Y313112D02*
Y323045D01*
X789786D02*
X794215D01*
X789786Y313112D02*
Y323045D01*
Y313112D02*
X794215D01*
X784036Y313596D02*
X788563D01*
X784036D02*
Y323045D01*
X788563D01*
Y313596D02*
Y323045D01*
X782715Y313112D02*
Y323045D01*
X778286D02*
X782715D01*
X778286Y313112D02*
Y323045D01*
Y313112D02*
X782715D01*
X772536Y313596D02*
X777063D01*
X772536D02*
Y323045D01*
X777063D01*
Y313596D02*
Y323045D01*
X771215Y313112D02*
Y323045D01*
X766786D02*
X771215D01*
X766786Y313112D02*
Y323045D01*
Y313112D02*
X771215D01*
X761035Y313596D02*
X765563D01*
X761035D02*
Y323045D01*
X765563D01*
Y313596D02*
Y323045D01*
X759715Y313112D02*
Y323045D01*
X755285D02*
X759715D01*
X755285Y313112D02*
Y323045D01*
Y313112D02*
X759715D01*
X770247Y307688D02*
X788553D01*
Y300712D02*
Y307688D01*
X770247Y300712D02*
X788553D01*
X770247D02*
Y307688D01*
X721814Y525913D02*
X733625D01*
Y520401D02*
Y525913D01*
X721814Y520401D02*
X733625D01*
X721814D02*
Y525913D01*
X727720Y521188D02*
Y525125D01*
X725751Y523157D02*
X729688D01*
X618350Y232154D02*
Y245697D01*
Y232154D02*
X627169D01*
Y245697D01*
X618350D02*
X627169D01*
X603850Y222253D02*
Y235797D01*
Y222253D02*
X612669D01*
Y235797D01*
X603850D02*
X612669D01*
X603850Y243803D02*
Y257346D01*
Y243803D02*
X612669D01*
Y257346D01*
X603850D02*
X612669D01*
X538392Y5148D02*
X548325D01*
X538392D02*
Y9577D01*
X548325D01*
Y5148D02*
Y9577D01*
X547835Y10039D02*
Y14567D01*
X538386D02*
X547835D01*
X538386Y10039D02*
Y14567D01*
Y10039D02*
X547835D01*
X473185Y123770D02*
X483118D01*
Y119341D02*
Y123770D01*
X473185Y119341D02*
X483118D01*
X473185D02*
Y123770D01*
X473215Y118605D02*
X483148D01*
Y114176D02*
Y118605D01*
X473215Y114176D02*
X483148D01*
X473215D02*
Y118605D01*
X524724Y178336D02*
Y182864D01*
X515276Y178336D02*
X524724D01*
X515276D02*
Y182864D01*
X524724D01*
X439636Y114176D02*
X444164D01*
Y123624D01*
X439636D02*
X444164D01*
X439636Y114176D02*
Y123624D01*
X447036Y114176D02*
X451564D01*
Y123624D01*
X447036D02*
X451564D01*
X447036Y114176D02*
Y123624D01*
X453436Y114176D02*
X457964D01*
Y123624D01*
X453436D02*
X457964D01*
X453436Y114176D02*
Y123624D01*
X459236Y114176D02*
X463764D01*
Y123624D01*
X459236D02*
X463764D01*
X459236Y114176D02*
Y123624D01*
X421525Y97D02*
X536407D01*
X430147Y74335D02*
Y105077D01*
X536407Y97D02*
Y105077D01*
X421525Y97D02*
Y63311D01*
X430147Y105077D02*
X536407D01*
X421525Y63311D02*
X430147Y74335D01*
X465136Y114176D02*
X469664D01*
Y123624D01*
X465136D02*
X469664D01*
X465136Y114176D02*
Y123624D01*
X494136Y114176D02*
X498664D01*
Y123624D01*
X494136D02*
X498664D01*
X494136Y114176D02*
Y123624D01*
X503642Y114173D02*
X508169D01*
Y123622D01*
X503642D02*
X508169D01*
X503642Y114173D02*
Y123622D01*
X509436Y114176D02*
X513964D01*
Y123624D01*
X509436D02*
X513964D01*
X509436Y114176D02*
Y123624D01*
X515536Y114176D02*
X520064D01*
Y123624D01*
X515536D02*
X520064D01*
X515536Y114176D02*
Y123624D01*
X521063Y119193D02*
Y123721D01*
Y119193D02*
X530512D01*
Y123721D01*
X521063D02*
X530512D01*
X521032Y114176D02*
X530965D01*
X521032D02*
Y118605D01*
X530965D01*
Y114176D02*
Y118605D01*
X353376Y369736D02*
Y374264D01*
X362824D01*
Y369736D02*
Y374264D01*
X353376Y369736D02*
X362824D01*
X350210Y351900D02*
Y368000D01*
Y351900D02*
X363990D01*
Y368000D01*
X350210D02*
X363990D01*
X355132Y359900D02*
X359068D01*
X357100Y357931D02*
Y361869D01*
X377324Y362636D02*
Y367164D01*
X367876Y362636D02*
X377324D01*
X367876D02*
Y367164D01*
X377324D01*
X343436Y342476D02*
X347964D01*
X343436D02*
Y351924D01*
X347964D01*
Y342476D02*
Y351924D01*
X345532Y330400D02*
X349468D01*
X347500Y328432D02*
Y332368D01*
X332736Y319573D02*
Y341227D01*
X362264D01*
Y319573D02*
Y341227D01*
X332736Y319573D02*
X362264D01*
X350235Y342385D02*
X360169D01*
Y346815D01*
X350235D02*
X360169D01*
X350235Y342385D02*
Y346815D01*
X378344Y321698D02*
Y340202D01*
X365745D02*
X378344D01*
X365745Y321698D02*
Y340202D01*
Y321698D02*
X378344D01*
X370076Y330950D02*
X374013D01*
X372044Y328981D02*
Y332919D01*
X364870Y345272D02*
Y361372D01*
Y345272D02*
X378650D01*
Y361372D01*
X364870D02*
X378650D01*
X369791Y353272D02*
X373728D01*
X371760Y351304D02*
Y355241D01*
X320300Y327500D02*
X329500D01*
X320300Y342700D02*
X329500D01*
X320300Y327500D02*
Y342700D01*
X329500Y327500D02*
Y342700D01*
X345636Y318624D02*
X350164D01*
Y309176D02*
Y318624D01*
X345636Y309176D02*
X350164D01*
X345636D02*
Y318624D01*
X355736D02*
X360264D01*
Y309176D02*
Y318624D01*
X355736Y309176D02*
X360264D01*
X355736D02*
Y318624D01*
X714009Y448516D02*
X757595D01*
X714009Y400484D02*
Y448516D01*
Y400484D02*
X757595D01*
Y448516D01*
X733832Y424500D02*
X737769D01*
X735800Y422532D02*
Y426469D01*
X715832Y394585D02*
X725765D01*
X715832D02*
Y399015D01*
X725765D01*
Y394585D02*
Y399015D01*
X715832Y450085D02*
X725765D01*
X715832D02*
Y454515D01*
X725765D01*
Y450085D02*
Y454515D01*
X639321Y51035D02*
Y60969D01*
Y51035D02*
X643750D01*
Y60969D01*
X639321D02*
X643750D01*
X634388Y51032D02*
Y60965D01*
Y51032D02*
X638817D01*
Y60965D01*
X634388D02*
X638817D01*
X66437Y500547D02*
Y507524D01*
X48130Y500547D02*
X66437D01*
X48130D02*
Y507524D01*
X66437D01*
X40350Y498472D02*
X93342D01*
X40350Y450598D02*
Y498472D01*
Y450598D02*
X93342D01*
Y498472D01*
X64877Y474535D02*
X68814D01*
X66846Y472567D02*
Y476504D01*
X95358Y467700D02*
X102334D01*
X95358D02*
Y486007D01*
X102334D01*
Y467700D02*
Y486007D01*
X813533Y60783D02*
X817963D01*
Y70717D01*
X813533D02*
X817963D01*
X813533Y60783D02*
Y70717D01*
X766569Y90936D02*
X776018D01*
X766569D02*
Y95464D01*
X776018D01*
Y90936D02*
Y95464D01*
X835039Y46929D02*
X846457D01*
Y53071D01*
X835039D02*
X846457D01*
X835039Y46929D02*
Y53071D01*
X737100Y484831D02*
Y488768D01*
X735132Y486800D02*
X739069D01*
X763596Y462863D02*
Y510737D01*
X710604Y462863D02*
X763596D01*
X710604D02*
Y510737D01*
X763596D01*
X772388Y478346D02*
Y496654D01*
X765412D02*
X772388D01*
X765412Y478346D02*
Y496654D01*
Y478346D02*
X772388D01*
X735851Y521042D02*
X745784D01*
X735851D02*
Y525471D01*
X745784D01*
Y521042D02*
Y525471D01*
X717846Y519588D02*
X736154D01*
X717846Y512612D02*
Y519588D01*
Y512612D02*
X736154D01*
Y519588D01*
X727118Y281152D02*
X737051D01*
X727118Y276722D02*
Y281152D01*
Y276722D02*
X737051D01*
Y281152D01*
X684312Y217868D02*
Y236176D01*
X691288D01*
Y217868D02*
Y236176D01*
X684312Y217868D02*
X691288D01*
X689616Y203303D02*
Y213236D01*
X685187D02*
X689616D01*
X685187Y203303D02*
Y213236D01*
Y203303D02*
X689616D01*
X675689Y211614D02*
X679626D01*
X677658Y209646D02*
Y213583D01*
X671752Y208858D02*
Y214370D01*
X683563D01*
Y208858D02*
Y214370D01*
X671752Y208858D02*
X683563D01*
X775524Y200440D02*
Y204968D01*
X766076Y200440D02*
X775524D01*
X766076D02*
Y204968D01*
X775524D01*
X761031Y188700D02*
X764968D01*
X763000Y186732D02*
Y190668D01*
X748236Y177873D02*
Y199527D01*
X777764D01*
Y177873D02*
Y199527D01*
X748236Y177873D02*
X777764D01*
X708247Y181020D02*
X726553D01*
X708247D02*
Y187997D01*
X726553D01*
Y181020D02*
Y187997D01*
X687815Y159439D02*
Y169372D01*
X683385D02*
X687815D01*
X683385Y159439D02*
Y169372D01*
Y159439D02*
X687815D01*
X757131Y108869D02*
X767065D01*
X757131Y104440D02*
Y108869D01*
Y104440D02*
X767065D01*
Y108869D01*
X759252Y102657D02*
X763189D01*
X761221Y101083D02*
Y104232D01*
X764587Y101083D02*
Y104232D01*
X757874Y101083D02*
X764587D01*
X757874D02*
Y104232D01*
X764587D01*
X757131Y113815D02*
X767065D01*
X757131Y109385D02*
Y113815D01*
Y109385D02*
X767065D01*
Y113815D01*
X749957Y101378D02*
Y119685D01*
X756933D01*
Y101378D02*
Y119685D01*
X749957Y101378D02*
X756933D01*
X717332Y88415D02*
X727265D01*
X717332Y83985D02*
Y88415D01*
Y83985D02*
X727265D01*
Y88415D01*
X733022Y112752D02*
Y122685D01*
X728592D02*
X733022D01*
X728592Y112752D02*
Y122685D01*
Y112752D02*
X733022D01*
X720079Y120374D02*
X724016D01*
X722047Y118405D02*
Y122343D01*
X716142Y117618D02*
Y123130D01*
X727953D01*
Y117618D02*
Y123130D01*
X716142Y117618D02*
X727953D01*
X733858Y102657D02*
Y107185D01*
X724409Y102657D02*
X733858D01*
X724409D02*
Y107185D01*
X733858D01*
X776520Y79675D02*
Y84104D01*
X766587D02*
X776520D01*
X766587Y79675D02*
Y84104D01*
Y79675D02*
X776520D01*
X776618Y84992D02*
Y89421D01*
X766685D02*
X776618D01*
X766685Y84992D02*
Y89421D01*
Y84992D02*
X776618D01*
X766613Y78664D02*
X776062D01*
Y74136D02*
Y78664D01*
X766613Y74136D02*
X776062D01*
X766613D02*
Y78664D01*
X765702Y82376D02*
Y91824D01*
X761174Y82376D02*
X765702D01*
X761174D02*
Y91824D01*
X765702D01*
X757085Y27735D02*
X761515D01*
Y37668D01*
X757085D02*
X761515D01*
X757085Y27735D02*
Y37668D01*
X776285Y37931D02*
Y47865D01*
X780715D01*
Y37931D02*
Y47865D01*
X776285Y37931D02*
X780715D01*
X777085Y70665D02*
X781515D01*
X777085Y60732D02*
Y70665D01*
Y60732D02*
X781515D01*
Y70665D01*
X783858Y57382D02*
X793307D01*
X783858D02*
Y61910D01*
X793307D01*
Y57382D02*
Y61910D01*
X765285Y23235D02*
X769715D01*
Y33169D01*
X765285D02*
X769715D01*
X765285Y23235D02*
Y33169D01*
X682891Y42629D02*
Y48771D01*
Y42629D02*
X694309D01*
Y48771D01*
X682891D02*
X694309D01*
X727015Y22872D02*
Y32805D01*
X722585D02*
X727015D01*
X722585Y22872D02*
Y32805D01*
Y22872D02*
X727015D01*
X810335Y53248D02*
Y62697D01*
X805807Y53248D02*
X810335D01*
X805807D02*
Y62697D01*
X810335D01*
X817763Y56509D02*
X822192D01*
X817763Y46576D02*
Y56509D01*
Y46576D02*
X822192D01*
Y56509D01*
X812587Y47047D02*
Y56496D01*
X817115D01*
Y47047D02*
Y56496D01*
X812587Y47047D02*
X817115D01*
X828755Y50782D02*
X833184D01*
X828755Y40849D02*
Y50782D01*
Y40849D02*
X833184D01*
Y50782D01*
X823855D02*
X828284D01*
X823855Y40849D02*
Y50782D01*
Y40849D02*
X828284D01*
Y50782D01*
X779076Y96226D02*
X788524D01*
Y91698D02*
Y96226D01*
X779076Y91698D02*
X788524D01*
X779076D02*
Y96226D01*
X791176Y91398D02*
X800624D01*
X791176D02*
Y95926D01*
X800624D01*
Y91398D02*
Y95926D01*
X754253Y69785D02*
Y74215D01*
X744320D02*
X754253D01*
X744320Y69785D02*
Y74215D01*
Y69785D02*
X754253D01*
X754276Y75246D02*
Y79675D01*
X744343D02*
X754276D01*
X744343Y75246D02*
Y79675D01*
Y75246D02*
X754276D01*
X736905Y83876D02*
Y93324D01*
X741433D01*
Y83876D02*
Y93324D01*
X736905Y83876D02*
X741433D01*
X742425Y68894D02*
Y80705D01*
X736913Y68894D02*
X742425D01*
X736913D02*
Y80705D01*
X742425D01*
X737701Y74800D02*
X741638D01*
X739669Y72831D02*
Y76768D01*
X776427Y27035D02*
X780856D01*
Y36968D01*
X776427D02*
X780856D01*
X776427Y27035D02*
Y36968D01*
X798830Y508736D02*
Y513264D01*
Y508736D02*
X808279D01*
Y513264D01*
X798830D02*
X808279D01*
X792181Y508218D02*
X802114D01*
X792181Y503789D02*
Y508218D01*
X802114Y503789D02*
Y508218D01*
X792181Y503789D02*
X802114D01*
X798535Y421015D02*
X808469D01*
Y416585D02*
Y421015D01*
X798535Y416585D02*
X808469D01*
X798535D02*
Y421015D01*
X767279Y422933D02*
X810866D01*
Y470965D01*
X767279D02*
X810866D01*
X767279Y422933D02*
Y470965D01*
X787106Y446949D02*
X791043D01*
X789075Y444980D02*
Y448917D01*
X798335Y475915D02*
X808269D01*
Y471485D02*
Y475915D01*
X798335Y471485D02*
X808269D01*
X798335D02*
Y475915D01*
X792976Y515236D02*
X802424D01*
X792976D02*
Y519764D01*
X802424Y515236D02*
Y519764D01*
X792976D02*
X802424D01*
X787421Y508736D02*
X796870D01*
X787421D02*
Y513264D01*
X796870Y508736D02*
Y513264D01*
X787421D02*
X796870D01*
X768724Y509636D02*
Y514164D01*
X759276Y509636D02*
X768724D01*
X759276D02*
Y514164D01*
X768724D01*
X757079Y509636D02*
Y514164D01*
X747630Y509636D02*
X757079D01*
X747630D02*
Y514164D01*
X757079D01*
X770036Y496376D02*
X774564D01*
X770036D02*
Y505824D01*
X774564D01*
Y496376D02*
Y505824D01*
X747931Y422315D02*
X757865D01*
X747931Y417885D02*
Y422315D01*
Y417885D02*
X757865D01*
Y422315D01*
X747831Y476215D02*
X757765D01*
X747831Y471785D02*
Y476215D01*
Y471785D02*
X757765D01*
Y476215D01*
X746309Y422984D02*
X789895D01*
X746309D02*
Y471016D01*
X789895D01*
Y422984D02*
Y471016D01*
X766131Y447000D02*
X770069D01*
X768100Y445031D02*
Y448969D01*
X156912Y296346D02*
Y314850D01*
Y296346D02*
X169511D01*
Y314850D01*
X156912D02*
X169511D01*
X161243Y305598D02*
X165180D01*
X163211Y303630D02*
Y307567D01*
X141462Y296346D02*
Y314850D01*
Y296346D02*
X154060D01*
Y314850D01*
X141462D02*
X154060D01*
X145792Y305598D02*
X149729D01*
X147761Y303630D02*
Y307567D01*
X110560Y296346D02*
Y314850D01*
Y296346D02*
X123159D01*
Y314850D01*
X110560D02*
X123159D01*
X114891Y305598D02*
X118828D01*
X116859Y303630D02*
Y307567D01*
X117900Y327532D02*
Y331469D01*
X115931Y329500D02*
X119869D01*
X113372Y338752D02*
X122428D01*
Y320248D02*
Y338752D01*
X113372Y320248D02*
X122428D01*
X113372D02*
Y338752D01*
X88608Y324199D02*
X107111D01*
X88608Y311601D02*
Y324199D01*
Y311601D02*
X107111D01*
Y324199D01*
X97860Y315932D02*
Y319868D01*
X95891Y317900D02*
X99828D01*
X88608Y338699D02*
X107111D01*
X88608Y326101D02*
Y338699D01*
Y326101D02*
X107111D01*
Y338699D01*
X97860Y330432D02*
Y334368D01*
X95891Y332400D02*
X99828D01*
X117500Y349031D02*
Y352969D01*
X115925Y351000D02*
X119075D01*
X115925Y347654D02*
X119075D01*
X115925D02*
Y354346D01*
X119075D01*
Y347654D02*
Y354346D01*
X124915Y343035D02*
Y352969D01*
X120485D02*
X124915D01*
X120485Y343035D02*
Y352969D01*
Y343035D02*
X124915D01*
X183731Y351200D02*
X187669D01*
X185700Y349232D02*
Y353169D01*
X170936Y340373D02*
Y362027D01*
X200464D01*
Y340373D02*
Y362027D01*
X170936Y340373D02*
X200464D01*
X159315Y341983D02*
Y351916D01*
X154885D02*
X159315D01*
X154885Y341983D02*
Y351916D01*
Y341983D02*
X159315D01*
X173684Y365136D02*
Y369664D01*
X164235Y365136D02*
X173684D01*
X164235D02*
Y369664D01*
X173684D01*
X159859Y323932D02*
Y327869D01*
X157891Y325900D02*
X161828D01*
X155332Y335152D02*
X164387D01*
Y316648D02*
Y335152D01*
X155332Y316648D02*
X164387D01*
X155332D02*
Y335152D01*
X163600Y343232D02*
Y347168D01*
X162025Y345200D02*
X165175D01*
X162025Y348547D02*
X165175D01*
Y341853D02*
Y348547D01*
X162025Y341853D02*
X165175D01*
X162025D02*
Y348547D01*
X155136Y363524D02*
X159664D01*
Y354076D02*
Y363524D01*
X155136Y354076D02*
X159664D01*
X155136D02*
Y363524D01*
X151723Y366773D02*
Y370710D01*
X150148Y368742D02*
X153298D01*
X150148Y372088D02*
X153298D01*
Y365395D02*
Y372088D01*
X150148Y365395D02*
X153298D01*
X150148D02*
Y372088D01*
X150125Y372654D02*
Y379366D01*
Y372654D02*
X153275D01*
Y379366D01*
X150125D02*
X153275D01*
X150125Y376000D02*
X153275D01*
X151700Y374031D02*
Y377969D01*
X145136Y376424D02*
X149664D01*
Y366976D02*
Y376424D01*
X145136Y366976D02*
X149664D01*
X145136D02*
Y376424D01*
X140285Y366932D02*
Y376865D01*
Y366932D02*
X144715D01*
Y376865D01*
X140285D02*
X144715D01*
X132636Y375170D02*
X137164D01*
Y365721D02*
Y375170D01*
X132636Y365721D02*
X137164D01*
X132636D02*
Y375170D01*
X141359Y347932D02*
Y351869D01*
X139391Y349900D02*
X143328D01*
X128958Y337498D02*
Y362302D01*
Y337498D02*
X153761D01*
Y362302D01*
X128958D02*
X153761D01*
X121096Y358676D02*
X125623D01*
X121096D02*
Y368124D01*
X125623D01*
Y358676D02*
Y368124D01*
X114736Y359976D02*
Y369424D01*
Y359976D02*
X119264D01*
Y369424D01*
X114736D02*
X119264D01*
X102137Y383761D02*
X137963D01*
Y403839D01*
X102137D02*
X137963D01*
X102137Y383761D02*
Y403839D01*
X120050Y391831D02*
Y395768D01*
X118081Y393800D02*
X122019D01*
X102137Y406269D02*
X137963D01*
Y426347D01*
X102137D02*
X137963D01*
X102137Y406269D02*
Y426347D01*
X120050Y414339D02*
Y418276D01*
X118081Y416308D02*
X122019D01*
X132324Y368235D02*
Y378169D01*
X127895D02*
X132324D01*
X127895Y368235D02*
Y378169D01*
Y368235D02*
X132324D01*
X417028Y453937D02*
X428839D01*
Y459449D01*
X417028D02*
X428839D01*
X417028Y453937D02*
Y459449D01*
X422933Y454724D02*
Y458661D01*
X420965Y456693D02*
X424902D01*
X424409Y470516D02*
X428839D01*
Y460583D02*
Y470516D01*
X424409Y460583D02*
X428839D01*
X424409D02*
Y470516D01*
X432529Y490201D02*
X436959D01*
Y480268D02*
Y490201D01*
X432529Y480268D02*
X436959D01*
X432529D02*
Y490201D01*
X459900Y463932D02*
Y467869D01*
X457932Y465900D02*
X461868D01*
X481695Y441884D02*
Y489916D01*
X438109D02*
X481695D01*
X438109Y441884D02*
Y489916D01*
Y441884D02*
X481695D01*
X485778Y490201D02*
X490207D01*
Y480268D02*
Y490201D01*
X485778Y480268D02*
X490207D01*
X485778D02*
Y490201D01*
X513400Y463932D02*
Y467869D01*
X511432Y465900D02*
X515369D01*
X535195Y441884D02*
Y489916D01*
X491609D02*
X535195D01*
X491609Y441884D02*
Y489916D01*
Y441884D02*
X535195D01*
X561031Y424900D02*
X564968D01*
X563000Y422931D02*
Y426868D01*
X573236Y418010D02*
Y431790D01*
X552764Y418010D02*
X573236D01*
X552764D02*
Y431790D01*
X573236D01*
X560865Y437085D02*
Y441515D01*
X550932Y437085D02*
X560865D01*
X550932D02*
Y441515D01*
X560865D01*
X503165Y436085D02*
Y440515D01*
X493231Y436085D02*
X503165D01*
X493231D02*
Y440515D01*
X503165D01*
X626400Y463932D02*
Y467869D01*
X624432Y465900D02*
X628369D01*
X648195Y441884D02*
Y489916D01*
X604609D02*
X648195D01*
X604609Y441884D02*
Y489916D01*
Y441884D02*
X648195D01*
X571000Y463932D02*
Y467869D01*
X569031Y465900D02*
X572968D01*
X592795Y441884D02*
Y489916D01*
X549209D02*
X592795D01*
X549209Y441884D02*
Y489916D01*
Y441884D02*
X592795D01*
X474951Y514524D02*
X479380D01*
X474951D02*
Y524457D01*
X479380D01*
Y514524D02*
Y524457D01*
X526526Y524453D02*
X530955D01*
Y514520D02*
Y524453D01*
X526526Y514520D02*
X530955D01*
X526526D02*
Y524453D01*
X438274Y511635D02*
X442703D01*
X438274D02*
Y521568D01*
X442703D01*
Y511635D02*
Y521568D01*
X433274Y503735D02*
X437703D01*
X433274D02*
Y513668D01*
X437703D01*
Y503735D02*
Y513668D01*
X497753Y493884D02*
Y498313D01*
X487820Y493884D02*
X497753D01*
X487820D02*
Y498313D01*
X497753D01*
X438929Y497982D02*
X448862D01*
X438929Y493553D02*
Y497982D01*
X448862Y493553D02*
Y497982D01*
X438929Y493553D02*
X448862D01*
X446610Y522687D02*
X456543D01*
Y527116D01*
X446610Y522687D02*
Y527116D01*
X456543D01*
X489874Y512234D02*
X494303D01*
X489874D02*
Y522167D01*
X494303D01*
Y512234D02*
Y522167D01*
X484674Y504085D02*
X489103D01*
X484674D02*
Y514018D01*
X489103D01*
Y504085D02*
Y514018D01*
X500153Y522687D02*
Y527116D01*
X510087D01*
Y522687D02*
Y527116D01*
X500153Y522687D02*
X510087D01*
X560465Y492985D02*
Y497415D01*
X550531Y492985D02*
X560465D01*
X550531D02*
Y497415D01*
X560465D01*
X587585Y514435D02*
X592015D01*
X587585D02*
Y524368D01*
X592015D01*
Y514435D02*
Y524368D01*
X544185Y503835D02*
X548615D01*
X544185D02*
Y513768D01*
X548615D01*
Y503835D02*
Y513768D01*
X549685Y512035D02*
X554115D01*
X549685D02*
Y521969D01*
X554115D01*
Y512035D02*
Y521969D01*
X558224Y522687D02*
Y527116D01*
X568157D01*
Y522687D02*
Y527116D01*
X558224Y522687D02*
X568157D01*
X614865Y492985D02*
Y497415D01*
X604931Y492985D02*
X614865D01*
X604931D02*
Y497415D01*
X614865D01*
X610980Y522687D02*
Y527116D01*
X620913D01*
Y522687D02*
Y527116D01*
X610980Y522687D02*
X620913D01*
X602085Y512035D02*
X606515D01*
X602085D02*
Y521969D01*
X606515D01*
Y512035D02*
Y521969D01*
X596885Y503935D02*
X601315D01*
X596885D02*
Y513869D01*
X601315D01*
Y503935D02*
Y513869D01*
X641485Y289167D02*
X645915D01*
Y279234D02*
Y289167D01*
X641485Y279234D02*
X645915D01*
X641485D02*
Y289167D01*
X636185D02*
X640615D01*
Y279234D02*
Y289167D01*
X636185Y279234D02*
X640615D01*
X636185D02*
Y289167D01*
X643996Y303937D02*
Y313386D01*
Y303937D02*
X648524D01*
Y313386D01*
X643996D02*
X648524D01*
X660136Y289173D02*
Y298622D01*
Y289173D02*
X664664D01*
Y298622D01*
X660136D02*
X664664D01*
X694403Y257718D02*
X698832D01*
X694403D02*
Y267651D01*
X698832D01*
Y257718D02*
Y267651D01*
X689503Y257718D02*
X693932D01*
X689503D02*
Y267651D01*
X693932D01*
Y257718D02*
Y267651D01*
X659335Y238485D02*
Y242915D01*
X669269D01*
Y238485D02*
Y242915D01*
X659335Y238485D02*
X669269D01*
X659335Y243585D02*
Y248015D01*
X669269D01*
Y243585D02*
Y248015D01*
X659335Y243585D02*
X669269D01*
X649760Y302018D02*
Y306447D01*
X659693D01*
Y302018D02*
Y306447D01*
X649760Y302018D02*
X659693D01*
X649858Y297293D02*
Y301722D01*
X659791D01*
Y297293D02*
Y301722D01*
X649858Y297293D02*
X659791D01*
X694585Y317435D02*
X699015D01*
X694585D02*
Y327368D01*
X699015D01*
Y317435D02*
Y327368D01*
X689685Y317535D02*
X694115D01*
X689685D02*
Y327468D01*
X694115D01*
Y317535D02*
Y327468D01*
X663735Y347498D02*
Y351927D01*
X673668D01*
Y347498D02*
Y351927D01*
X663735Y347498D02*
X673668D01*
X663735Y352198D02*
Y356627D01*
X673668D01*
Y352198D02*
Y356627D01*
X663735Y352198D02*
X673668D01*
X701436Y501124D02*
X705964D01*
Y491676D02*
Y501124D01*
X701436Y491676D02*
X705964D01*
X701436D02*
Y501124D01*
X711687Y489417D02*
Y499350D01*
Y489417D02*
X716116D01*
Y499350D01*
X711687D02*
X716116D01*
X706686Y489417D02*
Y499350D01*
Y489417D02*
X711116D01*
Y499350D01*
X706686D02*
X711116D01*
X685086Y502148D02*
Y512081D01*
Y502148D02*
X689516D01*
Y512081D01*
X685086D02*
X689516D01*
X676752Y506102D02*
X682894D01*
Y517520D01*
X676752D02*
X682894D01*
X676752Y506102D02*
Y517520D01*
X665433Y506662D02*
X671575D01*
Y518080D01*
X665433D02*
X671575D01*
X665433Y506662D02*
Y518080D01*
X696240Y506102D02*
X702382D01*
Y517520D01*
X696240D02*
X702382D01*
X696240Y506102D02*
Y517520D01*
X661732Y493840D02*
X671665D01*
Y498269D01*
X661732D02*
X671665D01*
X661732Y493840D02*
Y498269D01*
X661632Y499040D02*
X671565D01*
Y503469D01*
X661632D02*
X671565D01*
X661632Y499040D02*
Y503469D01*
X659322Y488340D02*
X669255D01*
Y492769D01*
X659322D02*
X669255D01*
X659322Y488340D02*
Y492769D01*
X659368Y483273D02*
X669301D01*
Y487702D01*
X659368D02*
X669301D01*
X659368Y483273D02*
Y487702D01*
X659471Y478206D02*
X669404D01*
Y482635D01*
X659471D02*
X669404D01*
X659471Y478206D02*
Y482635D01*
Y473139D02*
X669404D01*
Y477569D01*
X659471D02*
X669404D01*
X659471Y473139D02*
Y477569D01*
X694637Y451692D02*
X699165D01*
X694637D02*
Y461141D01*
X699165D01*
Y451692D02*
Y461141D01*
X703938Y461864D02*
Y466392D01*
X694489Y461864D02*
X703938D01*
X694489D02*
Y466392D01*
X703938D01*
X691438Y466786D02*
Y471313D01*
X700887D01*
Y466786D02*
Y471313D01*
X691438Y466786D02*
X700887D01*
X705562Y469597D02*
Y479530D01*
X701133D02*
X705562D01*
X701133Y469597D02*
Y479530D01*
Y469597D02*
X705562D01*
X693825Y455753D02*
Y460280D01*
X684377Y455753D02*
X693825D01*
X684377D02*
Y460280D01*
X693825D01*
X690324Y460736D02*
Y465264D01*
X680876Y460736D02*
X690324D01*
X680876D02*
Y465264D01*
X690324D01*
X678535Y467085D02*
X688469D01*
Y471515D01*
X678535D02*
X688469D01*
X678535Y467085D02*
Y471515D01*
X673337Y471441D02*
X677865D01*
Y461992D02*
Y471441D01*
X673337Y461992D02*
X677865D01*
X673337D02*
Y471441D01*
X673524Y473228D02*
Y500394D01*
Y473228D02*
X700689D01*
Y500394D01*
X673524D02*
X700689D01*
X732386Y492648D02*
Y502581D01*
Y492648D02*
X736816D01*
Y502581D01*
X732386D02*
X736816D01*
X732386Y481492D02*
X736914D01*
X732386D02*
Y490941D01*
X736914D01*
Y481492D02*
Y490941D01*
X736816Y469952D02*
Y479885D01*
X732386D02*
X736816D01*
X732386Y469952D02*
Y479885D01*
Y469952D02*
X736816D01*
X813736Y84876D02*
X818264D01*
Y94324D01*
X813736D02*
X818264D01*
X813736Y84876D02*
Y94324D01*
X707485Y22876D02*
X711915D01*
X707485D02*
Y32809D01*
X711915D01*
Y22876D02*
Y32809D01*
X695935Y28385D02*
Y32815D01*
X705868D01*
Y28385D02*
Y32815D01*
X695935Y28385D02*
X705868D01*
X712476Y28336D02*
X721924D01*
Y32864D01*
X712476D02*
X721924D01*
X712476Y28336D02*
Y32864D01*
X827953Y79429D02*
X837402D01*
Y83957D01*
X827953D02*
X837402D01*
X827953Y79429D02*
Y83957D01*
X839616Y79779D02*
X844045D01*
X839616D02*
Y89713D01*
X844045D01*
Y79779D02*
Y89713D01*
X821995Y79779D02*
X826424D01*
X821995D02*
Y89713D01*
X826424D01*
Y79779D02*
Y89713D01*
X654976Y100436D02*
X664424D01*
Y104964D01*
X654976D02*
X664424D01*
X654976Y100436D02*
Y104964D01*
X666458Y80225D02*
X711142D01*
X666458D02*
Y106375D01*
X711142D01*
Y80225D02*
Y106375D01*
X588100Y94332D02*
Y98269D01*
X586131Y96300D02*
X590068D01*
X585344Y90395D02*
X590856D01*
X585344D02*
Y102206D01*
X590856D01*
Y90395D02*
Y102206D01*
X91015Y204935D02*
Y214868D01*
X86585D02*
X91015D01*
X86585Y204935D02*
Y214868D01*
Y204935D02*
X91015D01*
X314059Y286027D02*
Y290554D01*
X304610Y286027D02*
X314059D01*
X304610D02*
Y290554D01*
X314059D01*
X327935Y278490D02*
X331872D01*
X329903Y276522D02*
Y280459D01*
X334824Y274553D02*
Y282428D01*
X324982Y274553D02*
X334824D01*
X324982D02*
Y282428D01*
X334824D01*
X328659Y269127D02*
Y273654D01*
X319210Y269127D02*
X328659D01*
X319210D02*
Y273654D01*
X328659D01*
X154498Y320156D02*
Y332644D01*
X148702Y320156D02*
X154498D01*
X148702Y332644D02*
X154498D01*
X148702Y320156D02*
Y332644D01*
X149632Y326400D02*
X153568D01*
X151600Y324431D02*
Y328368D01*
X141100Y329631D02*
Y333569D01*
X139525Y331600D02*
X142675D01*
X139525Y328254D02*
X142675D01*
X139525D02*
Y334946D01*
X142675D01*
Y328254D02*
Y334946D01*
X138715Y323884D02*
Y333817D01*
X134285D02*
X138715D01*
X134285Y323884D02*
Y333817D01*
Y323884D02*
X138715D01*
X133874D02*
Y333817D01*
X129445D02*
X133874D01*
X129445Y323884D02*
Y333817D01*
Y323884D02*
X133874D01*
X103937Y515256D02*
X122441D01*
X103937D02*
Y524311D01*
X122441D01*
Y515256D02*
Y524311D01*
X113189Y517815D02*
Y521752D01*
X111221Y519783D02*
X115157D01*
X532054Y391323D02*
X541346D01*
X532054D02*
Y409236D01*
X550361D01*
X532054Y58842D02*
X550361D01*
X575322Y407228D02*
Y416087D01*
X550361Y51992D02*
X575283D01*
X550361Y409236D02*
Y416087D01*
X541346Y76874D02*
Y391323D01*
X550361Y416087D02*
X575322D01*
X583865Y60654D02*
Y407228D01*
X575322D02*
X583865D01*
X550361Y51992D02*
Y58842D01*
X575283Y51992D02*
Y60654D01*
X583865D01*
X532054Y58842D02*
Y76756D01*
Y76874D02*
X541346D01*
X469773Y430761D02*
X488080D01*
X469773Y423785D02*
Y430761D01*
Y423785D02*
X488080D01*
Y430761D01*
X446839Y374002D02*
Y392309D01*
Y374002D02*
X453815D01*
Y392309D01*
X446839D02*
X453815D01*
X457067Y367992D02*
Y420984D01*
Y367992D02*
X504941D01*
Y420984D01*
X457067D02*
X504941D01*
X481004Y392520D02*
Y396457D01*
X479035Y394488D02*
X482972D01*
X794193Y480020D02*
X803642D01*
X794193Y475492D02*
Y480020D01*
X803642Y475492D02*
Y480020D01*
X794193Y475492D02*
X803642D01*
X741882Y281152D02*
X751815D01*
X741882Y276722D02*
Y281152D01*
X751815Y276722D02*
Y281152D01*
X741882Y276722D02*
X751815D01*
X715515Y250435D02*
Y260368D01*
X711085D02*
X715515D01*
X711085Y250435D02*
X715515D01*
X711085D02*
Y260368D01*
X715315Y266387D02*
Y276320D01*
X710885D02*
X715315D01*
X710885Y266387D02*
X715315D01*
X710885D02*
Y276320D01*
X709915Y257535D02*
Y267469D01*
X705485D02*
X709915D01*
X705485Y257535D02*
X709915D01*
X705485D02*
Y267469D01*
X753476Y520064D02*
X762924D01*
X753476Y515536D02*
Y520064D01*
X762924Y515536D02*
Y520064D01*
X753476Y515536D02*
X762924D01*
X789131Y492600D02*
X793069D01*
X805864Y481773D02*
Y503474D01*
X791100Y490631D02*
Y494568D01*
X776336Y503474D02*
X805864D01*
X776336Y481773D02*
X805864D01*
X776336D02*
Y503474D01*
X612669Y266154D02*
Y279697D01*
X603850D02*
X612669D01*
X603850Y266154D02*
X612669D01*
X603850D02*
Y279697D01*
X740485Y169372D02*
X744915D01*
X740485Y159439D02*
Y169372D01*
X744915Y159439D02*
Y169372D01*
X740485Y159439D02*
X744915D01*
X666240Y124902D02*
X670768D01*
X666240Y115453D02*
Y124902D01*
X670768Y115453D02*
Y124902D01*
X666240Y115453D02*
X670768D01*
X675886Y184252D02*
X680413D01*
X675886Y174803D02*
Y184252D01*
X680413Y174803D02*
Y184252D01*
X675886Y174803D02*
X680413D01*
X714400Y147535D02*
Y151472D01*
X712431Y149504D02*
X716368D01*
X738416Y127709D02*
Y171295D01*
X690384D02*
X738416D01*
X690384Y127709D02*
X738416D01*
X690384D02*
Y171295D01*
X675984Y115354D02*
X680512D01*
Y124803D01*
X675984Y115354D02*
Y124803D01*
X680512D01*
X665945Y184252D02*
X670472D01*
X665945Y174803D02*
Y184252D01*
X670472Y174803D02*
Y184252D01*
X665945Y174803D02*
X670472D01*
X772667Y331809D02*
X811925D01*
X821210Y403778D02*
X868533D01*
X772667Y331809D02*
Y403778D01*
X811919D01*
X868533Y331809D02*
Y403778D01*
X821209Y331809D02*
X868533D01*
X742963Y183516D02*
Y193449D01*
Y183516D02*
X747392D01*
Y193449D01*
X742963D02*
X747392D01*
X780036Y193679D02*
X784564D01*
Y184230D02*
Y193679D01*
X780036Y184230D02*
X784564D01*
X780036D02*
Y193679D01*
Y145424D02*
X784564D01*
Y135976D02*
Y145424D01*
X780036Y135976D02*
X784564D01*
X780036D02*
Y145424D01*
X743258Y135386D02*
Y145319D01*
Y135386D02*
X747687D01*
Y145319D01*
X743258D02*
X747687D01*
X520453Y84961D02*
Y93779D01*
X506910Y84961D02*
X520453D01*
X506910D02*
Y93779D01*
X520453D01*
X514587Y299626D02*
X523406D01*
X514587D02*
Y313169D01*
X523406D01*
Y299626D02*
Y313169D01*
X585758Y408051D02*
X594577D01*
Y394508D02*
Y408051D01*
X585758Y394508D02*
X594577D01*
X585758D02*
Y408051D01*
X613996Y292992D02*
X622815D01*
Y279449D02*
Y292992D01*
X613996Y279449D02*
X622815D01*
X613996D02*
Y292992D01*
X618350Y269846D02*
X627169D01*
Y256303D02*
Y269846D01*
X618350Y256303D02*
X627169D01*
X618350D02*
Y269846D01*
X748228Y130138D02*
X777756D01*
Y151791D01*
X748228D02*
X777756D01*
X748228Y130138D02*
Y151791D01*
X762992Y138996D02*
Y142933D01*
X761024Y140965D02*
X764961D01*
X515476Y188464D02*
X524924D01*
X515476Y183936D02*
Y188464D01*
Y183936D02*
X524924D01*
Y188464D01*
X211053Y316136D02*
X245147D01*
Y343144D01*
X211053D02*
X245147D01*
X211053Y316136D02*
Y343144D01*
X228100Y327672D02*
Y331609D01*
X226132Y329640D02*
X230068D01*
X98381Y365325D02*
Y408475D01*
X56019D02*
X98381D01*
X56019Y365325D02*
Y408475D01*
Y365325D02*
X98381D01*
X75231Y386900D02*
X79168D01*
X77200Y384931D02*
Y388868D01*
X181363Y364772D02*
Y416228D01*
X205300Y388531D02*
Y392469D01*
X203331Y390500D02*
X207269D01*
X181363Y364772D02*
X229237D01*
X181363Y416228D02*
X229237D01*
Y364772D02*
Y416228D01*
X158081Y416308D02*
X162019D01*
X160050Y414339D02*
Y418276D01*
X177963Y406269D02*
Y426347D01*
X142137Y406269D02*
X177963D01*
X142137D02*
Y426347D01*
X177963D01*
X261992Y259046D02*
X306677D01*
X261992D02*
Y285195D01*
X306677D01*
Y259046D02*
Y285195D01*
X278691Y222399D02*
X308219D01*
Y244053D01*
X278691D02*
X308219D01*
X278691Y222399D02*
Y244053D01*
X293455Y231258D02*
Y235194D01*
X291487Y233226D02*
X295424D01*
X337684Y118927D02*
X363712D01*
Y132273D01*
X337684D02*
X363712D01*
X337684Y118927D02*
Y132273D01*
X623232Y335039D02*
X627169D01*
X625200Y333071D02*
Y337008D01*
X634846Y331496D02*
Y338583D01*
X615554Y331496D02*
X634846D01*
X615554D02*
Y338583D01*
X634846D01*
X623232Y304600D02*
X627169D01*
X625200Y302631D02*
Y306569D01*
X634846Y301057D02*
Y308143D01*
X615554Y301057D02*
X634846D01*
X615554D02*
Y308143D01*
X634846D01*
D355*
X728483Y16535D02*
Y100393D01*
Y16535D02*
X801712D01*
Y100393D01*
X728483D02*
X801712D01*
M02*
