G04*
G04 #@! TF.GenerationSoftware,Altium Limited,Altium Designer,18.1.8 (232)*
G04*
G04 Layer_Color=8421504*
%FSLAX25Y25*%
%MOIN*%
G70*
G01*
G75*
%ADD26R,0.04724X0.06890*%
%ADD27O,0.07874X0.02362*%
%ADD28R,0.07874X0.02362*%
%ADD29R,0.06000X0.01200*%
%ADD30O,0.06000X0.01200*%
%ADD31O,0.06693X0.01260*%
%ADD32O,0.02362X0.07874*%
%ADD33R,0.02362X0.07874*%
%ADD34R,0.02756X0.03347*%
%ADD35R,0.05787X0.10906*%
%ADD36R,0.03347X0.02559*%
%ADD37R,0.03347X0.02756*%
%ADD38R,0.03268X0.03937*%
%ADD39R,0.10000X0.06000*%
%ADD40C,0.05906*%
%ADD41R,0.02559X0.03347*%
%ADD42R,0.01968X0.01575*%
G04:AMPARAMS|DCode=43|XSize=29.53mil|YSize=16.54mil|CornerRadius=4.13mil|HoleSize=0mil|Usage=FLASHONLY|Rotation=90.000|XOffset=0mil|YOffset=0mil|HoleType=Round|Shape=RoundedRectangle|*
%AMROUNDEDRECTD43*
21,1,0.02953,0.00827,0,0,90.0*
21,1,0.02126,0.01654,0,0,90.0*
1,1,0.00827,0.00413,0.01063*
1,1,0.00827,0.00413,-0.01063*
1,1,0.00827,-0.00413,-0.01063*
1,1,0.00827,-0.00413,0.01063*
%
%ADD43ROUNDEDRECTD43*%
%ADD44R,0.01575X0.01968*%
%ADD45R,0.05787X0.04567*%
%ADD46R,0.01968X0.02362*%
%ADD47R,0.04567X0.05787*%
%ADD48R,0.07874X0.03937*%
%ADD49R,0.05906X0.01181*%
%ADD50R,0.06000X0.10000*%
%ADD51R,0.01811X0.02559*%
%ADD52R,0.05512X0.04724*%
%ADD53R,0.07087X0.04921*%
%ADD54R,0.02244X0.01181*%
%ADD55R,0.04724X0.03937*%
%ADD56R,0.19291X0.08465*%
%ADD57R,0.04528X0.10630*%
%ADD58R,0.43307X0.37992*%
%ADD59R,0.09134X0.15000*%
%ADD60R,0.10630X0.04528*%
%ADD61R,0.09252X0.09646*%
%ADD62R,0.06299X0.02362*%
%ADD63R,0.05709X0.02362*%
%ADD64R,0.05118X0.04724*%
%ADD65R,0.04724X0.05118*%
%ADD66R,0.03800X0.03400*%
%ADD67R,0.06000X0.05000*%
%ADD68R,0.03937X0.03425*%
%ADD69R,0.02284X0.02598*%
%ADD70R,0.03425X0.03937*%
%ADD71R,0.10236X0.14410*%
%ADD72R,0.10236X0.13937*%
%ADD73R,0.03937X0.05512*%
%ADD74R,0.07087X0.03937*%
%ADD75O,0.03347X0.01181*%
%ADD76O,0.01181X0.03347*%
%ADD77R,0.16732X0.16732*%
%ADD78R,0.04921X0.07087*%
%ADD79R,0.02559X0.01811*%
%ADD80R,0.04331X0.04331*%
%ADD81O,0.02756X0.09843*%
%ADD82O,0.09843X0.02756*%
G04:AMPARAMS|DCode=83|XSize=29.53mil|YSize=16.54mil|CornerRadius=4.13mil|HoleSize=0mil|Usage=FLASHONLY|Rotation=0.000|XOffset=0mil|YOffset=0mil|HoleType=Round|Shape=RoundedRectangle|*
%AMROUNDEDRECTD83*
21,1,0.02953,0.00827,0,0,0.0*
21,1,0.02126,0.01654,0,0,0.0*
1,1,0.00827,0.01063,-0.00413*
1,1,0.00827,-0.01063,-0.00413*
1,1,0.00827,-0.01063,0.00413*
1,1,0.00827,0.01063,0.00413*
%
%ADD83ROUNDEDRECTD83*%
%ADD84O,0.02756X0.08661*%
%ADD85R,0.03150X0.08661*%
%ADD86R,0.06890X0.04724*%
%ADD87R,0.02441X0.02244*%
%ADD88R,0.02598X0.02284*%
%ADD89R,0.08110X0.08110*%
%ADD90O,0.03543X0.01181*%
%ADD91O,0.01181X0.03543*%
%ADD92R,0.07087X0.08858*%
%ADD93R,0.16732X0.16732*%
%ADD94O,0.01181X0.03740*%
%ADD95O,0.03740X0.01181*%
%ADD96R,0.09449X0.07480*%
%ADD97R,0.02362X0.03937*%
%ADD98R,0.03937X0.07087*%
%ADD99O,0.01968X0.11811*%
%ADD100R,0.03937X0.02362*%
%ADD101R,0.07087X0.03937*%
%ADD102O,0.11811X0.01968*%
%ADD103R,0.05906X0.04724*%
%ADD104R,0.11811X0.06299*%
%ADD105R,0.26772X0.24410*%
G04:AMPARAMS|DCode=106|XSize=188.98mil|YSize=118.11mil|CornerRadius=7.09mil|HoleSize=0mil|Usage=FLASHONLY|Rotation=90.000|XOffset=0mil|YOffset=0mil|HoleType=Round|Shape=RoundedRectangle|*
%AMROUNDEDRECTD106*
21,1,0.18898,0.10394,0,0,90.0*
21,1,0.17480,0.11811,0,0,90.0*
1,1,0.01417,0.05197,0.08740*
1,1,0.01417,0.05197,-0.08740*
1,1,0.01417,-0.05197,-0.08740*
1,1,0.01417,-0.05197,0.08740*
%
%ADD106ROUNDEDRECTD106*%
%ADD107R,0.19685X0.12992*%
%ADD108R,0.04961X0.01417*%
%ADD109R,0.08661X0.03150*%
%ADD110R,0.02000X0.04000*%
%ADD111R,0.02362X0.01968*%
%ADD112R,0.03400X0.03800*%
%ADD113R,0.07874X0.05906*%
%ADD114R,0.07874X0.14961*%
%ADD115R,0.13386X0.09449*%
%ADD116R,0.21260X0.11417*%
%ADD117R,0.10906X0.05787*%
%ADD118R,0.08465X0.19291*%
%ADD119R,0.04724X0.05512*%
G36*
X694106Y489811D02*
X690106D01*
Y493811D01*
X694106D01*
Y489811D01*
D02*
G37*
G36*
X689106D02*
X685106D01*
Y493811D01*
X689106D01*
Y489811D01*
D02*
G37*
G36*
X684106D02*
X680106D01*
Y493811D01*
X684106D01*
Y489811D01*
D02*
G37*
G36*
X694106Y484811D02*
X690106D01*
Y488811D01*
X694106D01*
Y484811D01*
D02*
G37*
G36*
X684106D02*
X680106D01*
Y488811D01*
X684106D01*
Y484811D01*
D02*
G37*
G36*
X689112Y484806D02*
X685112D01*
Y488806D01*
X689112D01*
Y484806D01*
D02*
G37*
G36*
X694106Y479811D02*
X690106D01*
Y483811D01*
X694106D01*
Y479811D01*
D02*
G37*
G36*
X689106D02*
X685106D01*
Y483811D01*
X689106D01*
Y479811D01*
D02*
G37*
G36*
X684106D02*
X680106D01*
Y483811D01*
X684106D01*
Y479811D01*
D02*
G37*
D26*
X71161Y521200D02*
D03*
X59350D02*
D03*
D27*
X107507Y504600D02*
D03*
Y489600D02*
D03*
Y494600D02*
D03*
X133493Y499600D02*
D03*
X133492Y494600D02*
D03*
X107507Y499600D02*
D03*
X133492Y504600D02*
D03*
Y469300D02*
D03*
X107507Y464300D02*
D03*
X133492Y459300D02*
D03*
X133493Y464300D02*
D03*
X107507Y459300D02*
D03*
Y454300D02*
D03*
Y469300D02*
D03*
X362608Y408200D02*
D03*
Y418200D02*
D03*
X388592D02*
D03*
Y443800D02*
D03*
X362608D02*
D03*
Y433800D02*
D03*
D28*
X133492Y489600D02*
D03*
Y454300D02*
D03*
X388592Y408200D02*
D03*
Y433800D02*
D03*
D29*
X196508Y459345D02*
D03*
D30*
X172492Y461904D02*
D03*
Y469581D02*
D03*
Y472140D02*
D03*
X196508Y479817D02*
D03*
Y472140D02*
D03*
Y482376D02*
D03*
Y461904D02*
D03*
Y469581D02*
D03*
X172492Y464463D02*
D03*
Y467022D02*
D03*
Y474699D02*
D03*
Y477258D02*
D03*
X196508D02*
D03*
Y474699D02*
D03*
Y467022D02*
D03*
Y464463D02*
D03*
X172492Y482376D02*
D03*
Y459345D02*
D03*
Y479817D02*
D03*
D31*
X470109Y500487D02*
D03*
Y503047D02*
D03*
Y505606D02*
D03*
Y508165D02*
D03*
Y510724D02*
D03*
Y513283D02*
D03*
Y515842D02*
D03*
Y518401D02*
D03*
X447668Y500487D02*
D03*
Y503047D02*
D03*
Y505606D02*
D03*
Y508165D02*
D03*
Y510724D02*
D03*
Y513283D02*
D03*
Y515842D02*
D03*
Y518401D02*
D03*
X521475Y500486D02*
D03*
Y503045D02*
D03*
Y505604D02*
D03*
Y508163D02*
D03*
Y510722D02*
D03*
Y513281D02*
D03*
Y515840D02*
D03*
Y518399D02*
D03*
X499034Y500486D02*
D03*
Y503045D02*
D03*
Y505604D02*
D03*
Y508163D02*
D03*
Y510722D02*
D03*
Y513281D02*
D03*
Y515840D02*
D03*
Y518399D02*
D03*
X581554Y500387D02*
D03*
Y502947D02*
D03*
Y505506D02*
D03*
Y508065D02*
D03*
Y510624D02*
D03*
Y513183D02*
D03*
Y515742D02*
D03*
Y518301D02*
D03*
X559113Y500387D02*
D03*
Y502947D02*
D03*
Y505506D02*
D03*
Y508065D02*
D03*
Y510624D02*
D03*
Y513183D02*
D03*
Y515742D02*
D03*
Y518301D02*
D03*
X633720Y500387D02*
D03*
Y502947D02*
D03*
Y505506D02*
D03*
Y508065D02*
D03*
Y510624D02*
D03*
Y513183D02*
D03*
Y515742D02*
D03*
Y518301D02*
D03*
X611280Y500387D02*
D03*
Y502947D02*
D03*
Y505506D02*
D03*
Y508065D02*
D03*
Y510624D02*
D03*
Y513183D02*
D03*
Y515742D02*
D03*
Y518301D02*
D03*
X743820Y254243D02*
D03*
Y256802D02*
D03*
Y259361D02*
D03*
Y261920D02*
D03*
Y264479D02*
D03*
Y267039D02*
D03*
Y269598D02*
D03*
Y272157D02*
D03*
X721380Y254243D02*
D03*
Y256802D02*
D03*
Y259361D02*
D03*
Y261920D02*
D03*
Y264479D02*
D03*
Y267039D02*
D03*
Y269598D02*
D03*
Y272157D02*
D03*
D32*
X315800Y494292D02*
D03*
Y468308D02*
D03*
X325800D02*
D03*
X342100Y494292D02*
D03*
Y468308D02*
D03*
X352100D02*
D03*
X367600Y494292D02*
D03*
Y468308D02*
D03*
X377600D02*
D03*
X211000Y494292D02*
D03*
Y468308D02*
D03*
X221000D02*
D03*
X249100D02*
D03*
X239100D02*
D03*
Y494292D02*
D03*
X264667D02*
D03*
Y468308D02*
D03*
X274667D02*
D03*
X300233D02*
D03*
X290233D02*
D03*
Y494292D02*
D03*
D33*
X325800D02*
D03*
X352100D02*
D03*
X377600D02*
D03*
X221000D02*
D03*
X249100D02*
D03*
X274667D02*
D03*
X300233D02*
D03*
D34*
X321449Y346400D02*
D03*
X327551D02*
D03*
X321449Y324300D02*
D03*
X327551D02*
D03*
X804185Y164469D02*
D03*
X798083D02*
D03*
X804626Y247188D02*
D03*
X798524D02*
D03*
X819488Y323425D02*
D03*
X813386D02*
D03*
X614051Y439000D02*
D03*
X607949D02*
D03*
X714652Y502216D02*
D03*
X708550D02*
D03*
X447951Y438300D02*
D03*
X441849D02*
D03*
X821351Y411949D02*
D03*
X815249D02*
D03*
X757586Y310100D02*
D03*
X763688D02*
D03*
X352149Y344600D02*
D03*
X358251D02*
D03*
X735138Y278937D02*
D03*
X729035D02*
D03*
X765151Y106654D02*
D03*
X759049D02*
D03*
X765151Y111600D02*
D03*
X759049D02*
D03*
X725351Y86200D02*
D03*
X719249D02*
D03*
X794095Y506004D02*
D03*
X800197D02*
D03*
X755951Y420100D02*
D03*
X749849D02*
D03*
X755851Y474000D02*
D03*
X749749D02*
D03*
X552849Y439300D02*
D03*
X558951D02*
D03*
X495149Y438300D02*
D03*
X501251D02*
D03*
X489737Y496098D02*
D03*
X495839D02*
D03*
X440846Y495768D02*
D03*
X446949D02*
D03*
X454626Y524902D02*
D03*
X448524D02*
D03*
X508169D02*
D03*
X502067D02*
D03*
X552449Y495200D02*
D03*
X558551D02*
D03*
X566240Y524902D02*
D03*
X560138D02*
D03*
X606849Y495200D02*
D03*
X612951D02*
D03*
X618996Y524902D02*
D03*
X612894D02*
D03*
X667351Y240700D02*
D03*
X661249D02*
D03*
X667351Y245800D02*
D03*
X661249D02*
D03*
X657776Y304232D02*
D03*
X651673D02*
D03*
X657874Y299508D02*
D03*
X651772D02*
D03*
X671751Y349713D02*
D03*
X665649D02*
D03*
X671751Y354413D02*
D03*
X665649D02*
D03*
X663645Y496054D02*
D03*
X669747D02*
D03*
X663545Y501254D02*
D03*
X669648D02*
D03*
X661236Y490554D02*
D03*
X667338D02*
D03*
X661281Y485487D02*
D03*
X667384D02*
D03*
X661384Y480421D02*
D03*
X667487D02*
D03*
X661384Y475354D02*
D03*
X667487D02*
D03*
X680449Y469300D02*
D03*
X686551D02*
D03*
X703951Y30600D02*
D03*
X697849D02*
D03*
X743799Y278937D02*
D03*
X749902D02*
D03*
D35*
X78642Y194823D02*
D03*
Y208917D02*
D03*
X94488Y302323D02*
D03*
Y288228D02*
D03*
D36*
X20965Y435854D02*
D03*
Y430146D02*
D03*
X91900Y434754D02*
D03*
Y429046D02*
D03*
X774500Y121291D02*
D03*
Y115583D02*
D03*
X45100Y435854D02*
D03*
Y430146D02*
D03*
X797800Y321175D02*
D03*
Y315466D02*
D03*
X786300Y321175D02*
D03*
Y315466D02*
D03*
X774799Y321175D02*
D03*
Y315466D02*
D03*
X763299Y321175D02*
D03*
Y315466D02*
D03*
X345700Y350054D02*
D03*
Y344346D02*
D03*
X347900Y311046D02*
D03*
Y316754D02*
D03*
X358000Y311046D02*
D03*
Y316754D02*
D03*
X772300Y503954D02*
D03*
Y498246D02*
D03*
X157400Y355946D02*
D03*
Y361654D02*
D03*
X147400Y368846D02*
D03*
Y374554D02*
D03*
X134900Y367591D02*
D03*
Y373300D02*
D03*
X123359Y366254D02*
D03*
Y360546D02*
D03*
X117000Y367554D02*
D03*
Y361846D02*
D03*
X646260Y311516D02*
D03*
Y305807D02*
D03*
X662400Y296752D02*
D03*
Y291043D02*
D03*
X703700Y493546D02*
D03*
Y499254D02*
D03*
X696901Y459271D02*
D03*
Y453562D02*
D03*
X675601Y463862D02*
D03*
Y469571D02*
D03*
X734650Y489071D02*
D03*
Y483362D02*
D03*
X668504Y123031D02*
D03*
Y117323D02*
D03*
X678150Y182382D02*
D03*
Y176673D02*
D03*
X678248Y117224D02*
D03*
Y122933D02*
D03*
X668209Y182382D02*
D03*
Y176673D02*
D03*
X782300Y186100D02*
D03*
Y191809D02*
D03*
Y137846D02*
D03*
Y143554D02*
D03*
D37*
X600575Y488287D02*
D03*
Y482185D02*
D03*
X545866Y488287D02*
D03*
Y482185D02*
D03*
X256835Y274064D02*
D03*
Y280166D02*
D03*
X274798Y225175D02*
D03*
Y231277D02*
D03*
X207700Y331949D02*
D03*
Y338051D02*
D03*
X641000Y521851D02*
D03*
Y515749D02*
D03*
X389280Y511754D02*
D03*
Y505651D02*
D03*
X792001Y315025D02*
D03*
Y321128D02*
D03*
X780500Y315025D02*
D03*
Y321128D02*
D03*
X769000Y315025D02*
D03*
Y321128D02*
D03*
X757500Y315025D02*
D03*
Y321128D02*
D03*
X641535Y59055D02*
D03*
Y52953D02*
D03*
X636603Y59051D02*
D03*
Y52949D02*
D03*
X687402Y205217D02*
D03*
Y211319D02*
D03*
X685600Y161353D02*
D03*
Y167455D02*
D03*
X730807Y114665D02*
D03*
Y120768D02*
D03*
X724800Y24786D02*
D03*
Y30888D02*
D03*
X122700Y344949D02*
D03*
Y351051D02*
D03*
X157100Y343896D02*
D03*
Y349998D02*
D03*
X142500Y374951D02*
D03*
Y368849D02*
D03*
X130109Y370149D02*
D03*
Y376251D02*
D03*
X426624Y462500D02*
D03*
Y468602D02*
D03*
X434744Y482185D02*
D03*
Y488287D02*
D03*
X487992Y482185D02*
D03*
Y488287D02*
D03*
X477165Y522539D02*
D03*
Y516437D02*
D03*
X528740D02*
D03*
Y522539D02*
D03*
X440488Y519651D02*
D03*
Y513549D02*
D03*
X435488Y511751D02*
D03*
Y505649D02*
D03*
X492088Y520250D02*
D03*
Y514147D02*
D03*
X486888Y512101D02*
D03*
Y505998D02*
D03*
X589800Y522451D02*
D03*
Y516349D02*
D03*
X546400Y511851D02*
D03*
Y505749D02*
D03*
X551900Y520051D02*
D03*
Y513949D02*
D03*
X604300Y520051D02*
D03*
Y513949D02*
D03*
X599100Y511951D02*
D03*
Y505849D02*
D03*
X643700Y281151D02*
D03*
Y287253D02*
D03*
X638400Y281151D02*
D03*
Y287253D02*
D03*
X696617Y265734D02*
D03*
Y259631D02*
D03*
X691717Y265734D02*
D03*
Y259631D02*
D03*
X696800Y325451D02*
D03*
Y319349D02*
D03*
X691900Y325551D02*
D03*
Y319449D02*
D03*
X713901Y497436D02*
D03*
Y491334D02*
D03*
X708901Y497436D02*
D03*
Y491334D02*
D03*
X687301Y510168D02*
D03*
Y504065D02*
D03*
X703347Y471510D02*
D03*
Y477612D02*
D03*
X734601Y500667D02*
D03*
Y494565D02*
D03*
Y471865D02*
D03*
Y477968D02*
D03*
X709700Y30892D02*
D03*
Y24790D02*
D03*
X841831Y87795D02*
D03*
Y81693D02*
D03*
X824209Y87795D02*
D03*
Y81693D02*
D03*
X88800Y206849D02*
D03*
Y212951D02*
D03*
X136500Y325798D02*
D03*
Y331900D02*
D03*
X131659Y325798D02*
D03*
Y331900D02*
D03*
X713300Y258451D02*
D03*
Y252349D02*
D03*
X713100Y274402D02*
D03*
Y268300D02*
D03*
X707700Y265551D02*
D03*
Y259449D02*
D03*
X742700Y167455D02*
D03*
Y161353D02*
D03*
X745177Y191535D02*
D03*
Y185433D02*
D03*
X745472Y143405D02*
D03*
Y137303D02*
D03*
D38*
X646752Y58543D02*
D03*
Y67835D02*
D03*
X760138Y116713D02*
D03*
Y126004D02*
D03*
D39*
X143900Y87950D02*
D03*
Y101450D02*
D03*
X161100Y87950D02*
D03*
Y101450D02*
D03*
D40*
X756693Y167400D02*
D03*
D41*
X767946Y154904D02*
D03*
X773654D02*
D03*
X66546Y435400D02*
D03*
X72254D02*
D03*
X798524Y169882D02*
D03*
X804232D02*
D03*
X804528Y241971D02*
D03*
X798819D02*
D03*
X831486Y323425D02*
D03*
X825777D02*
D03*
X498775Y30113D02*
D03*
X493066D02*
D03*
X263089Y230726D02*
D03*
X268798D02*
D03*
X262943Y225226D02*
D03*
X268652D02*
D03*
X247943Y216728D02*
D03*
X253652D02*
D03*
X224746Y311591D02*
D03*
X230454D02*
D03*
X521358Y356004D02*
D03*
X515650D02*
D03*
X840954Y411900D02*
D03*
X835246D02*
D03*
X809854D02*
D03*
X804146D02*
D03*
X849700Y324300D02*
D03*
X843991D02*
D03*
X517146Y180600D02*
D03*
X522854D02*
D03*
X360954Y372000D02*
D03*
X355246D02*
D03*
X369746Y364900D02*
D03*
X375454D02*
D03*
X767946Y202704D02*
D03*
X773654D02*
D03*
X726279Y104921D02*
D03*
X731988D02*
D03*
X761146Y511900D02*
D03*
X766854D02*
D03*
X749500D02*
D03*
X755209D02*
D03*
X166105Y367400D02*
D03*
X171814D02*
D03*
X696359Y464128D02*
D03*
X702068D02*
D03*
X699017Y469049D02*
D03*
X693308D02*
D03*
X686247Y458016D02*
D03*
X691955D02*
D03*
X682746Y463000D02*
D03*
X688454D02*
D03*
X714346Y30600D02*
D03*
X720054D02*
D03*
X829823Y81693D02*
D03*
X835532D02*
D03*
X656846Y102700D02*
D03*
X662554D02*
D03*
X306480Y288291D02*
D03*
X312189D02*
D03*
X321080Y271391D02*
D03*
X326789D02*
D03*
X796063Y477756D02*
D03*
X801772D02*
D03*
X755346Y517800D02*
D03*
X761054D02*
D03*
X523054Y186200D02*
D03*
X517346D02*
D03*
D42*
X672400Y40528D02*
D03*
Y44072D02*
D03*
X679300Y46428D02*
D03*
Y49972D02*
D03*
D43*
X666929Y515914D02*
D03*
X697736Y515354D02*
D03*
X700886D02*
D03*
X678248D02*
D03*
X681398D02*
D03*
Y508268D02*
D03*
X678248D02*
D03*
X670079Y515914D02*
D03*
Y508828D02*
D03*
X666929D02*
D03*
X700886Y508268D02*
D03*
X697736D02*
D03*
D44*
X668928Y520400D02*
D03*
X703272D02*
D03*
X699728D02*
D03*
X693996Y525197D02*
D03*
X697539D02*
D03*
X674409D02*
D03*
X677953D02*
D03*
X683772Y520300D02*
D03*
X680228D02*
D03*
X672472Y520400D02*
D03*
X663228Y525100D02*
D03*
X666772D02*
D03*
D45*
X82111Y435108D02*
D03*
Y428100D02*
D03*
X58392Y435108D02*
D03*
Y428100D02*
D03*
X36700Y435108D02*
D03*
Y428100D02*
D03*
X154700Y469604D02*
D03*
Y462596D02*
D03*
X678346Y161753D02*
D03*
Y168761D02*
D03*
X784100Y113896D02*
D03*
Y120904D02*
D03*
X719095Y104193D02*
D03*
Y97185D02*
D03*
X818799Y509193D02*
D03*
Y516201D02*
D03*
X831299Y509193D02*
D03*
Y516201D02*
D03*
X154800Y503904D02*
D03*
Y496896D02*
D03*
X668307Y129961D02*
D03*
Y136969D02*
D03*
X668307Y168761D02*
D03*
Y161753D02*
D03*
X678346Y129961D02*
D03*
Y136969D02*
D03*
X13500Y435108D02*
D03*
Y428100D02*
D03*
D46*
X626772Y390650D02*
D03*
Y393799D02*
D03*
Y396949D02*
D03*
Y400098D02*
D03*
X621653Y393799D02*
D03*
Y390650D02*
D03*
Y396949D02*
D03*
Y400098D02*
D03*
X628900Y370201D02*
D03*
Y373350D02*
D03*
Y376500D02*
D03*
Y379650D02*
D03*
X623782Y373350D02*
D03*
Y370201D02*
D03*
Y376500D02*
D03*
Y379650D02*
D03*
X625318Y234201D02*
D03*
Y237350D02*
D03*
Y240500D02*
D03*
Y243650D02*
D03*
X620200Y237350D02*
D03*
Y234201D02*
D03*
Y240500D02*
D03*
Y243650D02*
D03*
X610818Y224301D02*
D03*
Y227450D02*
D03*
Y230600D02*
D03*
Y233750D02*
D03*
X605700Y227450D02*
D03*
Y224301D02*
D03*
Y230600D02*
D03*
Y233750D02*
D03*
X610818Y245850D02*
D03*
Y249000D02*
D03*
Y252150D02*
D03*
Y255299D02*
D03*
X605700Y249000D02*
D03*
Y245850D02*
D03*
Y252150D02*
D03*
Y255299D02*
D03*
X610818Y274500D02*
D03*
Y277650D02*
D03*
Y271350D02*
D03*
X605700Y268201D02*
D03*
Y274500D02*
D03*
Y277650D02*
D03*
Y271350D02*
D03*
X610818Y268201D02*
D03*
X521555Y301673D02*
D03*
Y304823D02*
D03*
Y311122D02*
D03*
Y307972D02*
D03*
X516437Y301673D02*
D03*
Y304823D02*
D03*
Y307972D02*
D03*
Y311122D02*
D03*
X587608Y406004D02*
D03*
Y402854D02*
D03*
Y396555D02*
D03*
Y399705D02*
D03*
X592726Y406004D02*
D03*
Y402854D02*
D03*
Y399705D02*
D03*
Y396555D02*
D03*
X615846Y290945D02*
D03*
Y287795D02*
D03*
Y281496D02*
D03*
Y284646D02*
D03*
X620965Y290945D02*
D03*
Y287795D02*
D03*
Y284646D02*
D03*
Y281496D02*
D03*
X620200Y267799D02*
D03*
Y264650D02*
D03*
Y258350D02*
D03*
Y261500D02*
D03*
X625318Y267799D02*
D03*
Y264650D02*
D03*
Y261500D02*
D03*
Y258350D02*
D03*
D47*
X482874Y30413D02*
D03*
X475866D02*
D03*
X319431Y288491D02*
D03*
X326439D02*
D03*
X83696Y522146D02*
D03*
X90704D02*
D03*
X109565D02*
D03*
X116573D02*
D03*
X135696D02*
D03*
X142704D02*
D03*
X161363D02*
D03*
X168371D02*
D03*
X187029D02*
D03*
X194037D02*
D03*
X212696D02*
D03*
X219704D02*
D03*
X239496D02*
D03*
X246504D02*
D03*
X265170D02*
D03*
X272178D02*
D03*
X290845D02*
D03*
X297853D02*
D03*
X316519D02*
D03*
X323527D02*
D03*
X342996D02*
D03*
X350004D02*
D03*
X368663D02*
D03*
X375671D02*
D03*
X394035D02*
D03*
X401043D02*
D03*
X419996D02*
D03*
X427004D02*
D03*
D48*
X735794Y202104D02*
D03*
Y212104D02*
D03*
Y222104D02*
D03*
Y232104D02*
D03*
X697606Y202104D02*
D03*
Y212104D02*
D03*
Y222104D02*
D03*
Y232104D02*
D03*
D49*
X578983Y337386D02*
D03*
Y339354D02*
D03*
Y359039D02*
D03*
Y361008D02*
D03*
Y343291D02*
D03*
Y345260D02*
D03*
Y79512D02*
D03*
Y81480D02*
D03*
Y83449D02*
D03*
Y85417D02*
D03*
Y87386D02*
D03*
Y89354D02*
D03*
Y193685D02*
D03*
Y191717D02*
D03*
Y189748D02*
D03*
Y187779D02*
D03*
Y185811D02*
D03*
Y183843D02*
D03*
Y181874D02*
D03*
Y179905D02*
D03*
Y177937D02*
D03*
Y175969D02*
D03*
Y174000D02*
D03*
Y172031D02*
D03*
Y170063D02*
D03*
Y168095D02*
D03*
Y114945D02*
D03*
Y116913D02*
D03*
Y118882D02*
D03*
Y120850D02*
D03*
Y122819D02*
D03*
Y124787D02*
D03*
Y126756D02*
D03*
Y128724D02*
D03*
Y130693D02*
D03*
Y132661D02*
D03*
Y134630D02*
D03*
Y136598D02*
D03*
Y138567D02*
D03*
Y140535D02*
D03*
Y142504D02*
D03*
Y144473D02*
D03*
Y146441D02*
D03*
Y148409D02*
D03*
Y150378D02*
D03*
Y152347D02*
D03*
Y154315D02*
D03*
Y156283D02*
D03*
Y158252D02*
D03*
Y160221D02*
D03*
Y162189D02*
D03*
Y164157D02*
D03*
Y166126D02*
D03*
Y91323D02*
D03*
Y93291D02*
D03*
Y95260D02*
D03*
Y97228D02*
D03*
Y99197D02*
D03*
Y101165D02*
D03*
Y103134D02*
D03*
Y105102D02*
D03*
Y107071D02*
D03*
Y109039D02*
D03*
Y111008D02*
D03*
Y112976D02*
D03*
Y77543D02*
D03*
Y268488D02*
D03*
Y266520D02*
D03*
Y264551D02*
D03*
Y262583D02*
D03*
X546700Y113961D02*
D03*
Y111992D02*
D03*
Y110024D02*
D03*
Y108055D02*
D03*
Y106087D02*
D03*
Y104118D02*
D03*
Y102150D02*
D03*
Y100181D02*
D03*
Y98213D02*
D03*
Y96244D02*
D03*
Y94276D02*
D03*
Y92307D02*
D03*
Y90339D02*
D03*
Y88370D02*
D03*
Y86402D02*
D03*
Y84433D02*
D03*
Y82465D02*
D03*
Y80496D02*
D03*
Y78528D02*
D03*
Y76559D02*
D03*
Y167110D02*
D03*
Y165142D02*
D03*
Y163173D02*
D03*
Y161205D02*
D03*
Y159236D02*
D03*
Y157268D02*
D03*
Y155299D02*
D03*
Y153331D02*
D03*
Y151362D02*
D03*
Y149394D02*
D03*
Y147425D02*
D03*
Y145457D02*
D03*
Y143488D02*
D03*
Y141520D02*
D03*
Y139551D02*
D03*
Y137583D02*
D03*
Y135614D02*
D03*
Y133646D02*
D03*
Y131677D02*
D03*
Y129709D02*
D03*
Y127740D02*
D03*
Y125772D02*
D03*
Y123803D02*
D03*
Y121835D02*
D03*
Y119866D02*
D03*
Y117898D02*
D03*
Y115929D02*
D03*
Y291126D02*
D03*
Y269472D02*
D03*
Y271441D02*
D03*
Y273410D02*
D03*
Y275378D02*
D03*
Y277346D02*
D03*
Y279315D02*
D03*
Y281283D02*
D03*
Y283252D02*
D03*
Y285221D02*
D03*
Y287189D02*
D03*
Y289158D02*
D03*
Y344276D02*
D03*
Y346244D02*
D03*
Y348213D02*
D03*
Y293094D02*
D03*
Y295063D02*
D03*
Y297031D02*
D03*
Y299000D02*
D03*
Y300969D02*
D03*
Y302937D02*
D03*
Y304906D02*
D03*
Y306874D02*
D03*
Y308842D02*
D03*
Y310811D02*
D03*
Y312779D02*
D03*
Y314748D02*
D03*
Y316717D02*
D03*
Y318685D02*
D03*
Y320654D02*
D03*
Y322622D02*
D03*
Y324591D02*
D03*
Y326559D02*
D03*
Y328528D02*
D03*
Y330496D02*
D03*
Y332465D02*
D03*
Y334433D02*
D03*
Y336402D02*
D03*
Y338370D02*
D03*
Y340339D02*
D03*
Y342307D02*
D03*
Y391520D02*
D03*
Y389551D02*
D03*
Y387583D02*
D03*
Y385614D02*
D03*
Y383646D02*
D03*
Y381677D02*
D03*
Y379709D02*
D03*
Y377740D02*
D03*
Y375772D02*
D03*
Y369866D02*
D03*
Y367898D02*
D03*
Y365929D02*
D03*
Y363961D02*
D03*
Y361992D02*
D03*
Y360024D02*
D03*
Y358055D02*
D03*
Y356087D02*
D03*
Y354118D02*
D03*
Y352150D02*
D03*
Y169079D02*
D03*
Y171047D02*
D03*
Y173016D02*
D03*
Y174984D02*
D03*
Y176953D02*
D03*
Y178921D02*
D03*
Y180890D02*
D03*
Y182858D02*
D03*
Y184827D02*
D03*
Y186795D02*
D03*
Y188764D02*
D03*
Y190732D02*
D03*
Y192701D02*
D03*
Y194669D02*
D03*
X578983Y294079D02*
D03*
Y296047D02*
D03*
Y298016D02*
D03*
Y299984D02*
D03*
Y301953D02*
D03*
Y303921D02*
D03*
Y305890D02*
D03*
Y307858D02*
D03*
Y309827D02*
D03*
Y311795D02*
D03*
Y313764D02*
D03*
Y315732D02*
D03*
Y317701D02*
D03*
Y319669D02*
D03*
Y321638D02*
D03*
Y323606D02*
D03*
Y325575D02*
D03*
Y327543D02*
D03*
Y329512D02*
D03*
Y331480D02*
D03*
Y333449D02*
D03*
Y335417D02*
D03*
Y341323D02*
D03*
Y347228D02*
D03*
Y349197D02*
D03*
Y351165D02*
D03*
Y353134D02*
D03*
Y355102D02*
D03*
Y357071D02*
D03*
Y362976D02*
D03*
Y364945D02*
D03*
Y366913D02*
D03*
Y368882D02*
D03*
Y374787D02*
D03*
Y376756D02*
D03*
Y378724D02*
D03*
Y380693D02*
D03*
Y382661D02*
D03*
Y384630D02*
D03*
Y386598D02*
D03*
Y388567D02*
D03*
Y390535D02*
D03*
Y195653D02*
D03*
Y197622D02*
D03*
Y199591D02*
D03*
Y201559D02*
D03*
Y203528D02*
D03*
Y205496D02*
D03*
Y207465D02*
D03*
Y209433D02*
D03*
Y211402D02*
D03*
Y213370D02*
D03*
Y215339D02*
D03*
Y217307D02*
D03*
Y219276D02*
D03*
Y221244D02*
D03*
Y231087D02*
D03*
Y233055D02*
D03*
Y235024D02*
D03*
Y236992D02*
D03*
Y238961D02*
D03*
Y240929D02*
D03*
Y242898D02*
D03*
Y244866D02*
D03*
Y246835D02*
D03*
Y248803D02*
D03*
Y250772D02*
D03*
Y252740D02*
D03*
Y254709D02*
D03*
Y256677D02*
D03*
Y258646D02*
D03*
Y260614D02*
D03*
Y270457D02*
D03*
Y272425D02*
D03*
Y274394D02*
D03*
Y276362D02*
D03*
Y278331D02*
D03*
Y280299D02*
D03*
Y282268D02*
D03*
Y284236D02*
D03*
Y286205D02*
D03*
Y288173D02*
D03*
Y290142D02*
D03*
Y292110D02*
D03*
X546700Y245850D02*
D03*
Y247819D02*
D03*
Y249787D02*
D03*
Y251756D02*
D03*
Y253724D02*
D03*
Y255693D02*
D03*
Y257661D02*
D03*
Y259630D02*
D03*
Y261598D02*
D03*
Y263567D02*
D03*
Y265535D02*
D03*
Y267504D02*
D03*
Y196638D02*
D03*
Y198606D02*
D03*
Y200575D02*
D03*
Y202543D02*
D03*
Y204512D02*
D03*
Y206480D02*
D03*
Y208449D02*
D03*
Y210417D02*
D03*
Y212386D02*
D03*
Y214354D02*
D03*
Y216323D02*
D03*
Y218291D02*
D03*
Y220260D02*
D03*
Y222228D02*
D03*
Y230102D02*
D03*
Y232071D02*
D03*
Y234039D02*
D03*
Y236008D02*
D03*
Y237976D02*
D03*
Y239945D02*
D03*
Y241913D02*
D03*
Y243882D02*
D03*
Y350181D02*
D03*
D50*
X96120Y86221D02*
D03*
X82620D02*
D03*
X82350Y108000D02*
D03*
X95850D02*
D03*
X175150Y68500D02*
D03*
X188650D02*
D03*
X175350Y85500D02*
D03*
X188850D02*
D03*
X295550Y124500D02*
D03*
X282050D02*
D03*
D51*
X496129Y40213D02*
D03*
X498098Y36079D02*
D03*
X500066Y40213D02*
D03*
X772400Y106800D02*
D03*
X774368Y110934D02*
D03*
X776337Y106800D02*
D03*
D52*
X624600Y430393D02*
D03*
Y417007D02*
D03*
X605000Y430293D02*
D03*
Y416907D02*
D03*
X580900Y430293D02*
D03*
Y416907D02*
D03*
X540200Y430293D02*
D03*
Y416907D02*
D03*
D53*
X600618Y315800D02*
D03*
X590382D02*
D03*
X600618Y291700D02*
D03*
X590382D02*
D03*
X600618Y304100D02*
D03*
X590382D02*
D03*
X600618Y357100D02*
D03*
X590382D02*
D03*
X600618Y335500D02*
D03*
X590382D02*
D03*
X784518Y304200D02*
D03*
X774282D02*
D03*
X712282Y184509D02*
D03*
X722518D02*
D03*
D54*
X268723Y218694D02*
D03*
Y216726D02*
D03*
Y214757D02*
D03*
X262502D02*
D03*
Y216726D02*
D03*
Y218694D02*
D03*
X326793Y276522D02*
D03*
Y278490D02*
D03*
Y280459D02*
D03*
X333013D02*
D03*
Y278490D02*
D03*
Y276522D02*
D03*
D55*
X207300Y325940D02*
D03*
Y318460D02*
D03*
X151600Y322660D02*
D03*
Y330140D02*
D03*
D56*
X181694Y299000D02*
D03*
X205906D02*
D03*
D57*
X176454Y317900D02*
D03*
X188265D02*
D03*
X176454Y332400D02*
D03*
X188265D02*
D03*
X103765Y317900D02*
D03*
X91954D02*
D03*
X103765Y332400D02*
D03*
X91954D02*
D03*
D58*
X185300Y259888D02*
D03*
X120696D02*
D03*
D59*
X195694Y215912D02*
D03*
X174906D02*
D03*
X131090D02*
D03*
X110302D02*
D03*
D60*
X132310Y311504D02*
D03*
Y299693D02*
D03*
X372044Y325044D02*
D03*
Y336856D02*
D03*
X163211Y311504D02*
D03*
Y299693D02*
D03*
X147761Y311504D02*
D03*
Y299693D02*
D03*
X116859Y311504D02*
D03*
Y299693D02*
D03*
D61*
X172255Y393800D02*
D03*
X147845D02*
D03*
X107845D02*
D03*
X132255D02*
D03*
X107845Y416308D02*
D03*
X132255D02*
D03*
X147845D02*
D03*
X172255D02*
D03*
D62*
X85729Y343702D02*
D03*
Y348702D02*
D03*
Y353702D02*
D03*
Y358702D02*
D03*
X106989D02*
D03*
Y353702D02*
D03*
Y348702D02*
D03*
Y343702D02*
D03*
X358130Y337900D02*
D03*
Y332900D02*
D03*
Y327900D02*
D03*
Y322900D02*
D03*
X336870D02*
D03*
Y327900D02*
D03*
Y332900D02*
D03*
Y337900D02*
D03*
X773630Y196200D02*
D03*
Y191200D02*
D03*
Y186200D02*
D03*
Y181200D02*
D03*
X752370D02*
D03*
Y186200D02*
D03*
Y191200D02*
D03*
Y196200D02*
D03*
X196330Y358700D02*
D03*
Y353700D02*
D03*
Y348700D02*
D03*
Y343700D02*
D03*
X175070D02*
D03*
Y348700D02*
D03*
Y353700D02*
D03*
Y358700D02*
D03*
X752362Y148465D02*
D03*
Y143465D02*
D03*
Y138465D02*
D03*
Y133465D02*
D03*
X773622D02*
D03*
Y138465D02*
D03*
Y143465D02*
D03*
Y148465D02*
D03*
X282825Y240726D02*
D03*
Y235726D02*
D03*
Y230726D02*
D03*
Y225726D02*
D03*
X304085D02*
D03*
Y230726D02*
D03*
Y235726D02*
D03*
Y240726D02*
D03*
D63*
X341226Y409260D02*
D03*
Y416740D02*
D03*
X331974Y413000D02*
D03*
X341226Y436160D02*
D03*
Y443640D02*
D03*
X331974Y439900D02*
D03*
D64*
X95300Y467734D02*
D03*
Y459466D02*
D03*
X145200Y499634D02*
D03*
Y491366D02*
D03*
X145000Y465834D02*
D03*
Y457566D02*
D03*
X313878Y276181D02*
D03*
Y267913D02*
D03*
X95300Y495266D02*
D03*
Y503534D02*
D03*
D65*
X152734Y449000D02*
D03*
X144466D02*
D03*
X152834Y481300D02*
D03*
X144566D02*
D03*
D66*
X240800Y513400D02*
D03*
X247000D02*
D03*
X213500D02*
D03*
X219700D02*
D03*
X266333D02*
D03*
X272533D02*
D03*
X291867D02*
D03*
X298067D02*
D03*
X317400D02*
D03*
X323600D02*
D03*
X343600D02*
D03*
X349800D02*
D03*
X369800D02*
D03*
X376000D02*
D03*
X370600Y459600D02*
D03*
X376800D02*
D03*
X345500D02*
D03*
X351700D02*
D03*
X319600D02*
D03*
X325800D02*
D03*
X293900D02*
D03*
X300100D02*
D03*
X268200D02*
D03*
X274400D02*
D03*
X242500D02*
D03*
X248700D02*
D03*
X215200D02*
D03*
X221400D02*
D03*
X379300Y401000D02*
D03*
X373100D02*
D03*
X379500Y426600D02*
D03*
X373300D02*
D03*
D67*
X221400Y504300D02*
D03*
X210400D02*
D03*
X249500D02*
D03*
X238500D02*
D03*
X274800Y504400D02*
D03*
X263800D02*
D03*
X300100D02*
D03*
X289100D02*
D03*
X325400D02*
D03*
X314400D02*
D03*
X352400D02*
D03*
X341400D02*
D03*
X378600D02*
D03*
X367600D02*
D03*
X303600Y406400D02*
D03*
X314600D02*
D03*
X303100Y431900D02*
D03*
X314100D02*
D03*
D68*
X395480Y505609D02*
D03*
Y498995D02*
D03*
X588100Y99607D02*
D03*
Y92993D02*
D03*
D69*
X826471Y412563D02*
D03*
X830329D02*
D03*
X759291Y102657D02*
D03*
X763150D02*
D03*
D70*
X763007Y304200D02*
D03*
X756393D02*
D03*
X680965Y211614D02*
D03*
X674350D02*
D03*
X725354Y120374D02*
D03*
X718740D02*
D03*
X419626Y456693D02*
D03*
X426240D02*
D03*
D71*
X283700Y306098D02*
D03*
D72*
Y368302D02*
D03*
D73*
X360840Y364428D02*
D03*
X353360D02*
D03*
X357100Y355372D02*
D03*
X375500Y357800D02*
D03*
X368020D02*
D03*
X371760Y348745D02*
D03*
D74*
X324900Y330179D02*
D03*
Y340021D02*
D03*
D75*
X651480Y283664D02*
D03*
Y281695D02*
D03*
Y279727D02*
D03*
Y277758D02*
D03*
Y275790D02*
D03*
Y273821D02*
D03*
Y271853D02*
D03*
Y269884D02*
D03*
Y267916D02*
D03*
Y265947D02*
D03*
Y263979D02*
D03*
Y262010D02*
D03*
Y260042D02*
D03*
Y258073D02*
D03*
Y256105D02*
D03*
Y254136D02*
D03*
X686520D02*
D03*
Y256105D02*
D03*
Y258073D02*
D03*
Y260042D02*
D03*
Y262010D02*
D03*
Y263979D02*
D03*
Y265947D02*
D03*
Y267916D02*
D03*
Y269884D02*
D03*
Y271853D02*
D03*
Y273821D02*
D03*
Y275790D02*
D03*
Y277758D02*
D03*
Y279727D02*
D03*
Y281695D02*
D03*
Y283664D02*
D03*
X651480Y312036D02*
D03*
Y314005D02*
D03*
Y315973D02*
D03*
Y317942D02*
D03*
Y319910D02*
D03*
Y321879D02*
D03*
Y323847D02*
D03*
Y325816D02*
D03*
Y327784D02*
D03*
Y329753D02*
D03*
Y331721D02*
D03*
Y333690D02*
D03*
Y335658D02*
D03*
Y337627D02*
D03*
Y339595D02*
D03*
Y341564D02*
D03*
X686520D02*
D03*
Y339595D02*
D03*
Y337627D02*
D03*
Y335658D02*
D03*
Y333690D02*
D03*
Y331721D02*
D03*
Y329753D02*
D03*
Y327784D02*
D03*
Y325816D02*
D03*
Y323847D02*
D03*
Y321879D02*
D03*
Y319910D02*
D03*
Y317942D02*
D03*
Y315973D02*
D03*
Y314005D02*
D03*
Y312036D02*
D03*
D76*
X654236Y251380D02*
D03*
X656205D02*
D03*
X658173D02*
D03*
X660142D02*
D03*
X662110D02*
D03*
X664079D02*
D03*
X666047D02*
D03*
X668016D02*
D03*
X669984D02*
D03*
X671953D02*
D03*
X673921D02*
D03*
X675890D02*
D03*
X677858D02*
D03*
X679827D02*
D03*
X681795D02*
D03*
X683764D02*
D03*
Y286420D02*
D03*
X681795D02*
D03*
X679827D02*
D03*
X677858D02*
D03*
X675890D02*
D03*
X673921D02*
D03*
X671953D02*
D03*
X669984D02*
D03*
X668016D02*
D03*
X666047D02*
D03*
X664079D02*
D03*
X662110D02*
D03*
X660142D02*
D03*
X658173D02*
D03*
X656205D02*
D03*
X654236D02*
D03*
Y344320D02*
D03*
X656205D02*
D03*
X658173D02*
D03*
X660142D02*
D03*
X662110D02*
D03*
X664079D02*
D03*
X666047D02*
D03*
X668016D02*
D03*
X669984D02*
D03*
X671953D02*
D03*
X673921D02*
D03*
X675890D02*
D03*
X677858D02*
D03*
X679827D02*
D03*
X681795D02*
D03*
X683764D02*
D03*
Y309280D02*
D03*
X681795D02*
D03*
X679827D02*
D03*
X677858D02*
D03*
X675890D02*
D03*
X673921D02*
D03*
X671953D02*
D03*
X669984D02*
D03*
X668016D02*
D03*
X666047D02*
D03*
X664079D02*
D03*
X662110D02*
D03*
X660142D02*
D03*
X658173D02*
D03*
X656205D02*
D03*
X654236D02*
D03*
D77*
X669000Y268900D02*
D03*
D78*
X687800Y232140D02*
D03*
Y221904D02*
D03*
X753445Y115650D02*
D03*
Y105413D02*
D03*
D79*
X743110Y108760D02*
D03*
X747244Y106791D02*
D03*
X743110Y104823D02*
D03*
X720100Y72137D02*
D03*
X724234Y70169D02*
D03*
X720100Y68200D02*
D03*
X811100Y67800D02*
D03*
X806966Y65832D02*
D03*
X811100Y63863D02*
D03*
D80*
X758011Y76180D02*
D03*
X765098D02*
D03*
X772184D02*
D03*
X779271Y69094D02*
D03*
Y62007D02*
D03*
Y54921D02*
D03*
Y47834D02*
D03*
X772184Y40747D02*
D03*
X765098D02*
D03*
X758011D02*
D03*
X750924Y47834D02*
D03*
Y54921D02*
D03*
Y62007D02*
D03*
Y69094D02*
D03*
D81*
X743444Y94881D02*
D03*
X747381D02*
D03*
X751318D02*
D03*
X755255D02*
D03*
X759192D02*
D03*
X763129D02*
D03*
X767066D02*
D03*
X771003D02*
D03*
X774940D02*
D03*
X778877D02*
D03*
X782814D02*
D03*
X786751D02*
D03*
Y22046D02*
D03*
X782814D02*
D03*
X778877D02*
D03*
X774940D02*
D03*
X771003D02*
D03*
X767066D02*
D03*
X763129D02*
D03*
X759192D02*
D03*
X755255D02*
D03*
X751318D02*
D03*
X747381D02*
D03*
X743444D02*
D03*
D82*
X796200Y86023D02*
D03*
Y82086D02*
D03*
Y78149D02*
D03*
Y74212D02*
D03*
Y70275D02*
D03*
Y66338D02*
D03*
Y62401D02*
D03*
Y58464D02*
D03*
Y54527D02*
D03*
Y50590D02*
D03*
Y46653D02*
D03*
Y42716D02*
D03*
Y38779D02*
D03*
Y34842D02*
D03*
Y30905D02*
D03*
X733995D02*
D03*
Y34842D02*
D03*
Y38779D02*
D03*
Y42716D02*
D03*
Y46653D02*
D03*
Y50590D02*
D03*
Y54527D02*
D03*
Y58464D02*
D03*
Y62401D02*
D03*
Y66338D02*
D03*
Y70275D02*
D03*
Y74212D02*
D03*
Y78149D02*
D03*
Y82086D02*
D03*
Y86023D02*
D03*
D83*
X692143Y47275D02*
D03*
Y44125D02*
D03*
X685057D02*
D03*
Y47275D02*
D03*
D84*
X765500Y502349D02*
D03*
X760500D02*
D03*
X755500D02*
D03*
X750500D02*
D03*
X765500Y483451D02*
D03*
X760500D02*
D03*
X755500D02*
D03*
X750500D02*
D03*
D85*
X750561Y466094D02*
D03*
X755561D02*
D03*
X785561D02*
D03*
X780561D02*
D03*
X775561D02*
D03*
X770561D02*
D03*
X765561D02*
D03*
X760561D02*
D03*
X785639Y427906D02*
D03*
X750639D02*
D03*
X755639D02*
D03*
X760639D02*
D03*
X770639D02*
D03*
X775639D02*
D03*
X780639D02*
D03*
X765639D02*
D03*
X457439Y446805D02*
D03*
X472439D02*
D03*
X467439D02*
D03*
X462439D02*
D03*
X452439D02*
D03*
X447439D02*
D03*
X442439D02*
D03*
X477439D02*
D03*
X452361Y484995D02*
D03*
X457361D02*
D03*
X462361D02*
D03*
X467361D02*
D03*
X472361D02*
D03*
X477361D02*
D03*
X447361D02*
D03*
X442361D02*
D03*
X510939Y446805D02*
D03*
X525939D02*
D03*
X520939D02*
D03*
X515939D02*
D03*
X505939D02*
D03*
X500939D02*
D03*
X495939D02*
D03*
X530939D02*
D03*
X505861Y484995D02*
D03*
X510861D02*
D03*
X515861D02*
D03*
X520861D02*
D03*
X525861D02*
D03*
X530861D02*
D03*
X500861D02*
D03*
X495861D02*
D03*
X623939Y446805D02*
D03*
X638939D02*
D03*
X633939D02*
D03*
X628939D02*
D03*
X618939D02*
D03*
X613939D02*
D03*
X608939D02*
D03*
X643939D02*
D03*
X618861Y484995D02*
D03*
X623861D02*
D03*
X628861D02*
D03*
X633861D02*
D03*
X638861D02*
D03*
X643861D02*
D03*
X613861D02*
D03*
X608861D02*
D03*
X568539Y446805D02*
D03*
X583539D02*
D03*
X578539D02*
D03*
X573539D02*
D03*
X563539D02*
D03*
X558539D02*
D03*
X553539D02*
D03*
X588539D02*
D03*
X563461Y484995D02*
D03*
X568461D02*
D03*
X573461D02*
D03*
X578461D02*
D03*
X583461D02*
D03*
X588461D02*
D03*
X558461D02*
D03*
X553461D02*
D03*
D86*
X117900Y323594D02*
D03*
Y335405D02*
D03*
X159859Y319994D02*
D03*
Y331805D02*
D03*
D87*
X117500Y352890D02*
D03*
Y349110D02*
D03*
X163600Y343310D02*
D03*
Y347090D02*
D03*
X151723Y366852D02*
D03*
Y370632D02*
D03*
X141100Y333490D02*
D03*
Y329710D02*
D03*
D88*
X151700Y377929D02*
D03*
Y374071D02*
D03*
D89*
X141359Y349900D02*
D03*
D90*
X151005Y356790D02*
D03*
Y354821D02*
D03*
Y352853D02*
D03*
Y350884D02*
D03*
Y348916D02*
D03*
Y346947D02*
D03*
Y344979D02*
D03*
Y343010D02*
D03*
X131714D02*
D03*
Y344979D02*
D03*
Y346947D02*
D03*
Y348916D02*
D03*
Y350884D02*
D03*
Y352853D02*
D03*
Y354821D02*
D03*
Y356790D02*
D03*
D91*
X148249Y340254D02*
D03*
X146281D02*
D03*
X144312D02*
D03*
X142344D02*
D03*
X140375D02*
D03*
X138407D02*
D03*
X136438D02*
D03*
X134470D02*
D03*
Y359546D02*
D03*
X136438D02*
D03*
X138407D02*
D03*
X140375D02*
D03*
X142344D02*
D03*
X144312D02*
D03*
X146281D02*
D03*
X148249D02*
D03*
D92*
X557291Y424900D02*
D03*
X568709D02*
D03*
D93*
X669000Y326800D02*
D03*
D94*
X694980Y497933D02*
D03*
X693012D02*
D03*
X691043D02*
D03*
X689075D02*
D03*
X687106D02*
D03*
X685138D02*
D03*
X683169D02*
D03*
X681201D02*
D03*
X679232D02*
D03*
Y475689D02*
D03*
X681201D02*
D03*
X683169D02*
D03*
X685138D02*
D03*
X687106D02*
D03*
X689075D02*
D03*
X691043D02*
D03*
X693012D02*
D03*
X694980D02*
D03*
D95*
X675984Y494685D02*
D03*
Y492717D02*
D03*
Y490748D02*
D03*
Y488779D02*
D03*
Y486811D02*
D03*
Y484842D02*
D03*
Y482874D02*
D03*
Y480905D02*
D03*
Y478937D02*
D03*
X698228D02*
D03*
Y480905D02*
D03*
Y482874D02*
D03*
Y484842D02*
D03*
Y486811D02*
D03*
Y488779D02*
D03*
Y490748D02*
D03*
Y492717D02*
D03*
Y494685D02*
D03*
D96*
X723901Y495887D02*
D03*
Y479745D02*
D03*
D97*
X690800Y6000D02*
D03*
D98*
X696312Y12500D02*
D03*
X685288D02*
D03*
D99*
X690800Y20193D02*
D03*
D100*
X864100Y81200D02*
D03*
D101*
X857600Y86712D02*
D03*
Y75688D02*
D03*
D102*
X852876Y81200D02*
D03*
D103*
X707501Y84442D02*
D03*
Y102158D02*
D03*
X670099D02*
D03*
Y84442D02*
D03*
X303035Y263262D02*
D03*
Y280979D02*
D03*
X265634D02*
D03*
Y263262D02*
D03*
D104*
X81068Y473257D02*
D03*
Y455265D02*
D03*
X81234Y504496D02*
D03*
Y486504D02*
D03*
D105*
X52800Y464261D02*
D03*
X52966Y495500D02*
D03*
D106*
X404752Y186402D02*
D03*
X379949D02*
D03*
Y281677D02*
D03*
X404752D02*
D03*
D107*
X562842Y61008D02*
D03*
Y407071D02*
D03*
D108*
X802517Y500277D02*
D03*
Y497718D02*
D03*
Y492600D02*
D03*
Y495159D02*
D03*
Y490041D02*
D03*
Y484923D02*
D03*
Y487482D02*
D03*
X779683Y500277D02*
D03*
Y497718D02*
D03*
Y495159D02*
D03*
Y490041D02*
D03*
Y492600D02*
D03*
Y484923D02*
D03*
Y487482D02*
D03*
D109*
X733495Y162043D02*
D03*
Y157043D02*
D03*
Y167043D02*
D03*
Y147043D02*
D03*
Y152043D02*
D03*
Y142043D02*
D03*
Y132043D02*
D03*
Y137043D02*
D03*
X695305Y161965D02*
D03*
Y166965D02*
D03*
Y156965D02*
D03*
Y151965D02*
D03*
Y141965D02*
D03*
Y146965D02*
D03*
Y131965D02*
D03*
Y136965D02*
D03*
D110*
X178050Y490781D02*
D03*
X181200Y497600D02*
D03*
X187500D02*
D03*
X184350D02*
D03*
X187500Y490781D02*
D03*
X184350D02*
D03*
X181200D02*
D03*
X178050Y497600D02*
D03*
D111*
X518405Y91929D02*
D03*
X515256D02*
D03*
X508957D02*
D03*
X512106D02*
D03*
X518405Y86811D02*
D03*
X515256D02*
D03*
X512106D02*
D03*
X508957D02*
D03*
D112*
X351800Y409300D02*
D03*
Y415500D02*
D03*
Y435100D02*
D03*
Y441300D02*
D03*
D113*
X215698Y338695D02*
D03*
Y320585D02*
D03*
Y329640D02*
D03*
D114*
X240502D02*
D03*
D115*
X77200Y370758D02*
D03*
Y403042D02*
D03*
D116*
X205300Y409988D02*
D03*
Y371012D02*
D03*
D117*
X343653Y125600D02*
D03*
X357747D02*
D03*
D118*
X84500Y253106D02*
D03*
Y228894D02*
D03*
D119*
X618507Y335039D02*
D03*
X631893D02*
D03*
X618507Y304600D02*
D03*
X631893D02*
D03*
M02*
